ply
format ascii 1.0
element vertex 868
property float x
property float y
property float z
end_header
31.306352615356445 17.769712448120117 6.347402095794678
31.095321655273438 18.482385635375977 6.378350257873535
32.7227783203125 20.34683609008789 6.7943644523620605
32.93381881713867 21.403711318969727 6.925754070281982
32.933837890625 28.676593780517578 7.70002555847168
32.93384552001953 32.3498420715332 8.140024185180664
32.93385314941406 33.67117691040039 8.304953575134277
32.933876037597656 36.48413848876953 8.666486740112305
6.060264587402344 9.368400573730469 1.9673389196395874
2.2965478897094727 20.08602523803711 3.56478214263916
1.856054663658142 19.723724365234375 3.493190288543701
1.0449987649917603 19.406137466430664 3.4267828464508057
31.306346893310547 16.950443267822266 5.453816890716553
31.306352615356445 17.76971435546875 5.514679908752441
31.095327377319336 21.105897903442383 5.757291316986084
31.21431541442871 25.055402755737305 6.131801128387451
31.039091110229492 27.026790618896484 6.304973602294922
32.93384552001953 32.34982681274414 7.072124481201172
32.92707824707031 36.476619720458984 7.52796745300293
2.5783019065856934 19.1466007232666 2.959627628326416
2.2832701206207275 19.96989631652832 3.0792088508605957
1.8563475608825684 19.72684097290039 3.035393714904785
1.4320226907730103 19.365787506103516 2.974830150604248
0.981280505657196 18.222795486450195 2.7956762313842773
0.6698681712150574 19.821353912353516 3.038255453109741
0.2564184367656708 18.62387466430664 2.853344678878784
-0.11718383431434631 18.75588607788086 2.8733532428741455
-0.4936889410018921 18.794124603271484 2.880147695541382
-0.8646532893180847 18.67083740234375 2.8633337020874023
31.306352615356445 16.95044708251953 4.635943412780762
31.30635643005371 20.346025466918945 4.862050533294678
31.095327377319336 21.105899810791016 4.893947601318359
31.306365966796875 22.17711639404297 4.995988845825195
31.306386947631836 30.7512264251709 5.7144951820373535
31.11765480041504 31.8143253326416 5.795138835906982
31.306396484375 34.68122482299805 6.084084510803223
31.039648056030273 37.283111572265625 6.3173747062683105
6.060264587402344 9.368400573730469 1.4529685974121094
2.63188099861145 19.544479370117188 2.568071126937866
2.192692756652832 19.177675247192383 2.513603925704956
1.3790991306304932 18.650066375732422 2.4352595806121826
0.6501415967941284 19.23763084411621 2.5065717697143555
30.569501876831055 16.55148696899414 3.7328813076019287
30.48918914794922 18.122116088867188 3.8086509704589844
30.56951141357422 19.007944107055664 3.865440607070923
30.53084373474121 20.722747802734375 3.9623210430145264
30.489198684692383 21.598247528076172 4.0122222900390625
30.48920249938965 22.52800178527832 4.070749282836914
31.21431541442871 25.055402755737305 4.298096656799316
31.306381225585938 28.38087272644043 4.537515640258789
31.095359802246094 31.79152488708496 4.7753167152404785
31.306396484375 34.68122100830078 5.017012596130371
31.306400299072266 36.10862350463867 5.131818771362305
6.060264587402344 9.368400573730469 1.1981333494186401
4.335128307342529 19.95559310913086 2.1928508281707764
2.1946094036102295 19.1944580078125 2.074563980102539
1.795253872871399 19.077587127685547 2.057636260986328
1.02642822265625 19.061288833618164 2.0498011112213135
0.6475487947463989 19.160924911499023 2.0587096214294434
30.569501876831055 16.55148696899414 2.9427599906921387
30.569501876831055 17.351470947265625 2.975600004196167
30.56951141357422 19.007944107055664 3.0472612380981445
30.530839920043945 20.722747802734375 3.1236352920532227
30.569520950317383 22.587343215942383 3.217566967010498
30.56952476501465 24.53783416748047 3.3183469772338867
30.569536209106445 27.712881088256836 3.492889404296875
30.496103286743164 28.779008865356445 3.549616575241089
31.095359802246094 34.44743728637695 3.928424596786499
31.1136474609375 37.37198257446289 4.116531848907471
2.0634520053863525 18.047311782836914 1.5377100706100464
1.7031676769256592 18.099008560180664 1.538901448249817
1.3400145769119263 18.12153434753418 1.5382273197174072
0.9720959067344666 18.052236557006836 1.530386209487915
-0.12442992627620697 19.915895462036133 1.6859703063964844
-0.5104882717132568 19.433761596679688 1.6456910371780396
-0.948577880859375 20.48317527770996 1.7358176708221436
30.569501876831055 16.551483154296875 2.155646800994873
30.489192962646484 18.122114181518555 2.1994147300720215
30.56951141357422 19.00794219970703 2.232196092605591
30.56951141357422 19.86714744567871 2.2607834339141846
30.53084373474121 20.722747802734375 2.288142442703247
30.569520950317383 22.587345123291016 2.356950283050537
30.56954002380371 30.027450561523438 2.657158136367798
30.489286422729492 38.14963912963867 3.0283586978912354
6.060264587402344 9.368400573730469 0.6919401288032532
4.291318416595459 19.75386619567871 1.2535148859024048
3.4843249320983887 19.835643768310547 1.2488477230072021
2.6443028450012207 19.636728286743164 1.228671669960022
1.8669140338897705 19.839128494262695 1.235666275024414
0.26304563879966736 19.104841232299805 1.1848100423812866
-0.49281737208366394 18.760793685913086 1.163764476776123
-0.8612414598464966 18.597259521484375 1.1544584035873413
-1.3118395805358887 19.75982666015625 1.2280110120773315
-1.721859097480774 19.90095329284668 1.2386757135391235
30.48918342590332 16.50800323486328 1.3671271800994873
30.489192962646484 18.12211799621582 1.3985569477081299
30.489198684692383 20.69448471069336 1.452994465827942
30.48920249938965 22.527997970581055 1.4947950839996338
30.489208221435547 23.48569107055664 1.5175400972366333
30.489213943481445 24.47336769104004 1.5416151285171509
30.48921775817871 26.547985076904297 1.594099521636963
30.48922348022461 28.772525787353516 1.6530252695083618
30.489227294921875 29.948556900024414 1.685189962387085
30.56954574584961 31.253950119018555 1.7238636016845703
6.060264587402344 9.368401527404785 0.4399549663066864
3.5077781677246094 17.863292694091797 0.7178202867507935
3.209381103515625 18.270444869995117 0.7314533591270447
2.1581358909606934 18.875452041625977 0.7491276264190674
1.7774267196655273 18.88814353942871 0.7480695843696594
-0.5246496200561523 19.972856521606445 0.7878220677375793
-0.9345141649246216 20.179506301879883 0.7965516448020935
-1.3478673696517944 20.302526473999023 0.8023118376731873
-1.7639330625534058 20.387237548828125 0.8068934679031372
30.48918914794922 17.305885314941406 0.5921971201896667
30.489198684692383 20.694488525390625 0.6224461197853088
30.48920249938965 22.52800178527832 0.6403523087501526
30.489208221435547 23.485692977905273 0.6500962972640991
30.489208221435547 24.473365783691406 0.660409688949585
30.489213943481445 25.49331283569336 0.6713289022445679
30.489227294921875 29.948566436767578 0.7219154238700867
30.489286422729492 38.1496467590332 0.8249332904815674
-0.5675122141838074 21.6043643951416 0.3650627136230469
-1.047615885734558 22.621747970581055 0.3825315833091736
-4.230934143066406 48.90040969848633 0.8291007876396179
31.157480239868164 16.86983871459961 -0.19948531687259674
31.157480239868164 17.685211181640625 -0.20171158015727997
31.157489776611328 19.373544692993164 -0.20656920969486237
31.157489776611328 20.249277114868164 -0.20921477675437927
31.157493591308594 21.148090362548828 -0.21201491355895996
31.157493591308594 22.0716552734375 -0.21497832238674164
31.157499313354492 24.00047492980957 -0.22143295407295227
31.15750503540039 25.009796142578125 -0.2249458283185959
31.15082359313965 27.124074935913086 -0.23255431652069092
30.50518035888672 31.188138961791992 -0.24562515318393707
31.712543487548828 38.09135818481445 -0.27905914187431335
6.060264587402344 9.368400573730469 -0.06280609220266342
-4.230935096740723 48.90040969848633 -0.27634748816490173
31.157480239868164 16.86983871459961 -0.9976673722267151
31.157489776611328 20.24927520751953 -1.046325922012329
31.157499313354492 23.021785736083984 -1.090833306312561
31.15750503540039 25.00979995727539 -1.1250004768371582
31.150835037231445 27.124074935913086 -1.1630518436431885
30.48921775817871 27.640071868896484 -1.158773422241211
31.4769287109375 29.704618453979492 -1.21867036819458
31.712553024291992 38.09136199951172 -1.3956245183944702
6.381541728973389 22.708003997802734 -0.6641750931739807
4.321103572845459 32.08872985839844 -0.9116987586021423
3.6377551555633545 31.816486358642578 -0.9017173647880554
1.5193127393722534 20.546245574951172 -0.5801151990890503
0.44332030415534973 32.198760986328125 -0.9067298769950867
-0.19932617247104645 31.903522491455078 -0.8983486890792847
-0.8347021341323853 31.77621078491211 -0.8950544595718384
-1.4740796089172363 31.830646514892578 -0.8972395062446594
31.157480239868164 16.869840621948242 -1.796875
31.15748405456543 18.51934051513672 -1.8381767272949219
31.15748405456543 19.373546600341797 -1.8606836795806885
31.157489776611328 20.24928092956543 -1.884512186050415
31.157493591308594 21.148090362548828 -1.909735083580017
31.157493591308594 22.071659088134766 -1.9364269971847534
31.157499313354492 24.000473022460938 -1.994569182395935
31.15750503540039 25.00979232788086 -2.0262115001678467
31.157508850097656 26.052106857299805 -2.05971360206604
30.48921775817871 27.64007568359375 -2.087052583694458
30.50557518005371 28.78795051574707 -2.1271822452545166
30.50557518005371 29.964616775512695 -2.168572425842285
30.50518035888672 31.188138961791992 -2.2124829292297363
29.062885284423828 33.5209846496582 -2.249969959259033
27.693769454956055 34.65168762207031 -2.2496156692504883
25.56447410583496 36.251155853271484 -2.2496156692504883
24.8338565826416 36.75551223754883 -2.2496156692504883
23.292682647705078 41.24041748046875 -2.4020156860351562
22.462642669677734 41.69831848144531 -2.4020156860351562
21.623565673828125 42.13983917236328 -2.4020156860351562
20.775917053222656 42.56389617919922 -2.4020156860351562
19.919918060302734 42.971107482910156 -2.4020156860351562
18.18429946899414 43.73387908935547 -2.4020156860351562
17.30540657043457 44.08903121948242 -2.4020156860351562
16.41956329345703 44.426536560058594 -2.4020156860351562
15.527145385742188 44.74626541137695 -2.4020156860351562
14.628518104553223 45.04802703857422 -2.4020156860351562
13.724030494689941 45.331790924072266 -2.4020156860351562
10.979025840759277 46.073665618896484 -2.4020156860351562
10.054738998413086 46.284149169921875 -2.4020156860351562
6.798594951629639 43.83454132080078 -2.2496156692504883
3.644670248031616 31.876956939697266 -1.6271491050720215
1.7188634872436523 31.92007064819336 -1.6211484670639038
1.0752233266830444 31.815832138061523 -1.6144378185272217
-1.4804723262786865 31.9686279296875 -1.6230050325393677
-2.7633416652679443 31.938261032104492 -1.6257768869400024
26.682607650756836 15.14523983001709 -2.2496156692504883
26.374149322509766 15.676222801208496 -2.2496156692504883
25.38591194152832 17.230627059936523 -2.2496156692504883
25.03598976135254 17.735254287719727 -2.2496156692504883
24.822940826416016 18.341289520263672 -2.2630081176757812
24.81488800048828 19.11479377746582 -2.296696901321411
24.80794334411621 19.913068771362305 -2.3324785232543945
24.800600051879883 20.736827850341797 -2.370342254638672
23.825685501098633 22.48418426513672 -2.4020156860351562
22.906803131103516 23.419652938842773 -2.4020156860351562
22.433523178100586 23.873390197753906 -2.4020156860351562
21.951242446899414 24.31757926940918 -2.4020156860351562
21.46015739440918 24.752033233642578 -2.4020156860351562
20.960512161254883 25.176477432250977 -2.4020156860351562
20.45241355895996 25.59102439880371 -2.4020156860351562
19.93614959716797 25.995223999023438 -2.4020156860351562
19.411916732788086 26.388999938964844 -2.4020156860351562
6.060264587402344 9.368400573730469 -0.8180720210075378
17.23932647705078 27.85691261291504 -2.4020156860351562
16.678346633911133 28.196359634399414 -2.4020156860351562
16.110715866088867 28.52448844909668 -2.4020156860351562
14.95626449584961 29.146385192871094 -2.4020156860351562
13.7778902053833 29.7215633392334 -2.4020156860351562
13.180290222167969 29.991355895996094 -2.4020156860351562
12.57741928100586 30.249135971069336 -2.4020156860351562
11.969526290893555 30.49479103088379 -2.4020156860351562
11.356818199157715 30.72823715209961 -2.4020156860351562
10.73956298828125 30.94937515258789 -2.4020156860351562
6.345315933227539 22.579111099243164 -1.7196804285049438
3.1314990520477295 17.82706642150879 -1.327132225036621
3.123084545135498 20.136337280273438 -1.494104027748108
3.480448007583618 30.440643310546875 -2.2465150356292725
1.5184838771820068 20.535037994384766 -1.5097838640213013
-1.3893200159072876 30.00035285949707 -2.2020480632781982
-1.4090099334716797 21.223552703857422 -1.559582233428955
22.00174331665039 11.912576675415039 -2.4020156860351562
21.758895874023438 12.350507736206055 -2.4020156860351562
21.507360458374023 12.783506393432617 -2.4020156860351562
21.247203826904297 13.211392402648926 -2.4020156860351562
20.978544235229492 13.633973121643066 -2.4020156860351562
20.70148468017578 14.051092147827148 -2.4020156860351562
20.4161319732666 14.4625825881958 -2.4020156860351562
19.511493682861328 15.66166877746582 -2.4020156860351562
18.86909294128418 16.429950714111328 -2.4020156860351562
18.196449279785156 17.171894073486328 -2.4020156860351562
17.13320541381836 18.232877731323242 -2.4020156860351562
16.38981819152832 18.9039249420166 -2.4020156860351562
16.008216857910156 19.228179931640625 -2.4020156860351562
15.22588062286377 19.8533878326416 -2.4020156860351562
14.82552433013916 20.154151916503906 -2.4020156860351562
14.419203758239746 20.446828842163086 -2.4020156860351562
14.007091522216797 20.731287002563477 -2.4020156860351562
12.737797737121582 21.53447914123535 -2.4020156860351562
11.865800857543945 22.02696418762207 -2.4020156860351562
10.52261734008789 22.699316024780273 -2.4020156860351562
10.066215515136719 22.905364990234375 -2.4020156860351562
9.605778694152832 23.102235794067383 -2.4020156860351562
8.561525344848633 21.812211990356445 -2.2496156692504883
8.123261451721191 21.979167938232422 -2.2496156692504883
7.681752681732178 22.13734245300293 -2.2496156692504883
7.2371826171875 22.286645889282227 -2.2496156692504883
6.338409423828125 22.554529190063477 -2.2492282390594482
5.428635120391846 22.78135108947754 -2.248363733291626
4.97065544128418 22.88100814819336 -2.2479286193847656
2.945424795150757 16.767803192138672 -1.6344424486160278
2.256889581680298 16.759796142578125 -1.6235482692718506
1.576393961906433 16.75188446044922 -1.6153717041015625
0.9016479253768921 16.74403953552246 -1.6098403930664062
-0.9608923196792603 20.74909210205078 -1.9941520690917969
-1.3759630918502808 20.725704193115234 -1.9941520690917969
15.769542694091797 12.65804386138916 -2.4020156860351562
15.250346183776855 13.2789888381958 -2.4020156860351562
14.706718444824219 13.878649711608887 -2.4020156860351562
13.84737777709961 14.73615837097168 -2.4020156860351562
13.5496826171875 15.010343551635742 -2.4020156860351562
12.305849075317383 16.045888900756836 -2.4020156860351562
11.982257843017578 16.288955688476562 -2.4020156860351562
11.653857231140137 16.525501251220703 -2.4020156860351562
11.32080078125 16.75542449951172 -2.4020156860351562
6.060263633728027 9.368401527404785 -1.3253737688064575
10.294926643371582 17.404571533203125 -2.4020156860351562
8.646210670471191 16.849515914916992 -2.2496156692504883
7.964990139007568 17.182029724121094 -2.2496156692504883
7.619523525238037 17.337995529174805 -2.2496156692504883
6.919576168060303 17.629026412963867 -2.2496156692504883
6.564865589141846 17.762609481811523 -2.2494418621063232
6.207118988037109 17.88773536682129 -2.2491018772125244
4.753782749176025 18.315589904785156 -2.247720718383789
4.385587215423584 18.40419578552246 -2.247370958328247
4.015751838684082 18.485387802124023 -2.2470192909240723
3.29345440864563 16.771848678588867 -2.0303072929382324
2.256889581680298 16.759796142578125 -2.0087969303131104
1.238442301750183 16.747955322265625 -1.9948554039001465
-1.1162035465240479 16.813030242919922 -2.001546859741211
-1.4463573694229126 16.716739654541016 -1.9931319952011108
14.74328327178955 8.368395805358887 -2.4020190238952637
14.214670181274414 9.238068580627441 -2.402017831802368
13.833439826965332 9.799470901489258 -2.4020156860351562
13.430190086364746 10.345218658447266 -2.4020156860351562
13.220465660095215 10.611929893493652 -2.4020156860351562
12.094118118286133 11.879653930664062 -2.4020156860351562
11.609015464782715 12.354131698608398 -2.4020156860351562
11.359448432922363 12.583990097045898 -2.4020156860351562
11.105317115783691 12.80881404876709 -2.4020156860351562
10.045377731323242 13.65592098236084 -2.4020156860351562
9.770063400268555 13.854223251342773 -2.4020156860351562
9.49084186553955 14.046985626220703 -2.4020156860351562
6.060266017913818 9.368399620056152 -1.5809229612350464
8.083203315734863 13.665435791015625 -2.2496156692504883
7.808093070983887 13.824472427368164 -2.2496156692504883
7.529848575592041 13.977970123291016 -2.2496156692504883
7.248597145080566 14.125868797302246 -2.2496156692504883
6.964437007904053 14.268110275268555 -2.2496156692504883
6.386885643005371 14.533172607421875 -2.249272346496582
5.798731327056885 14.773451805114746 -2.248713493347168
5.501224040985107 14.884674072265625 -2.2484307289123535
5.201549053192139 14.989885330200195 -2.248145341873169
4.899903297424316 15.089056015014648 -2.2478585243225098
3.984056234359741 15.349953651428223 -2.24698805809021
3.6755735874176025 15.424600601196289 -2.246694803237915
3.3656957149505615 15.493038177490234 -2.2464003562927246
3.054553270339966 15.555246353149414 -2.2461047172546387
2.4289512634277344 15.660881042480469 -2.2455101013183594
2.114753484725952 15.704265594482422 -2.245211601257324
1.1680896282196045 15.796539306640625 -2.244312047958374
0.21797484159469604 15.831793785095215 -2.2434089183807373
-0.0989099070429802 15.830860137939453 -2.243107795715332
-0.41566038131713867 15.823586463928223 -2.2428066730499268
-1.0482897758483887 15.7900390625 -2.2422053813934326
-1.3639013767242432 15.763789176940918 -2.241905689239502
12.68044376373291 7.197520732879639 -2.402021884918213
12.533852577209473 7.449857711791992 -2.4020204544067383
12.382247924804688 7.69921350479126 -2.402020215988159
12.225687980651855 7.945483207702637 -2.402020215988159
12.064221382141113 8.188568115234375 -2.402020215988159
11.897927284240723 8.428370475769043 -2.40201997756958
11.72685718536377 8.66479206085205 -2.4020187854766846
11.55108642578125 8.897746086120605 -2.40201735496521
11.370651245117188 9.127131462097168 -2.4020164012908936
11.18575382232666 9.352876663208008 -2.4020159244537354
10.996320724487305 9.574868202209473 -2.4020156860351562
10.802495002746582 9.7930269241333 -2.4020156860351562
10.604337692260742 10.007261276245117 -2.4020156860351562
10.401857376098633 10.217469215393066 -2.4020156860351562
10.195363998413086 10.42362117767334 -2.4020156860351562
9.770060539245605 10.823269844055176 -2.4020156860351562
8.737195014953613 10.494633674621582 -2.2496156692504883
8.525422096252441 10.667394638061523 -2.2496156692504883
8.31021499633789 10.835878372192383 -2.2496156692504883
8.091687202453613 11.00002384185791 -2.2496156692504883
7.869919300079346 11.159759521484375 -2.2496156692504883
6.060266017913818 9.368400573730469 -1.838106393814087
5.98808479309082 12.26784896850586 -2.2488999366760254
2.928607225418091 8.439676284790039 -1.4716728925704956
4.213096618652344 12.97409725189209 -2.247210741043091
3.425816535949707 13.199142456054688 -2.246462821960449
1.5478112697601318 13.537449836730957 -2.244678497314453
1.276424527168274 13.564159393310547 -2.2444207668304443
-0.08507079631090164 13.615970611572266 -2.2431275844573975
-0.3575109839439392 13.609970092773438 -2.2428691387176514
-0.6297497153282166 13.598520278930664 -2.242610454559326
11.237885475158691 6.0846171379089355 -2.4020230770111084
10.57375717163086 7.176919937133789 -2.4020233154296875
10.27807331085205 7.594305992126465 -2.4020211696624756
9.803820610046387 8.19738483428955 -2.402019500732422
9.637792587280273 8.391947746276855 -2.4020183086395264
9.294228553771973 8.770914077758789 -2.4020166397094727
9.116833686828613 8.955162048339844 -2.4020161628723145
8.195924758911133 8.721969604492188 -2.249617338180542
8.019736289978027 8.884246826171875 -2.249617099761963
7.840319633483887 9.04296875 -2.249616861343384
7.657758712768555 9.198076248168945 -2.249616861343384
7.472138404846191 9.349493026733398 -2.2496166229248047
7.28352165222168 9.497162818908691 -2.2496163845062256
7.092002868652344 9.64102840423584 -2.2496161460876465
6.095823764801025 10.305584907531738 -2.2505452632904053
5.88762092590332 10.424212455749512 -2.2502639293670654
5.677126407623291 10.538683891296387 -2.2499916553497314
5.464423656463623 10.648944854736328 -2.2497284412384033
5.24653434753418 10.748897552490234 -2.2482047080993652
4.590911865234375 11.04130744934082 -2.2475812435150146
3.0794224739074707 8.332005500793457 -1.66962730884552
3.9189562797546387 11.293680191040039 -2.2469420433044434
3.691795587539673 11.36876106262207 -2.2467257976531982
2.375035285949707 8.451290130615234 -1.6500457525253296
2.014047861099243 8.451958656311035 -1.6331185102462769
1.8361730575561523 8.452288627624512 -1.6257542371749878
1.6410900354385376 8.357196807861328 -1.600824236869812
1.4774487018585205 8.410823822021484 -1.6051095724105835
0.455291748046875 8.454848289489746 -1.591482400894165
-0.07455932348966599 11.933892250061035 -2.2431480884552
-0.22212035953998566 8.456104278564453 -1.5899641513824463
-0.5519677400588989 11.918937683105469 -2.2426950931549072
-1.0283019542694092 11.884906768798828 -2.2422432899475098
9.768298149108887 5.806062698364258 -2.4020237922668457
9.528120040893555 6.192333221435547 -2.402024030685425
9.272680282592773 6.568673610687256 -2.402024269104004
9.139360427856445 6.752934455871582 -2.402024269104004
9.002382278442383 6.93449068069458 -2.402024269104004
8.861796379089355 7.113271236419678 -2.402024269104004
8.717660903930664 7.289198875427246 -2.402024030685425
8.106780052185059 7.963022232055664 -2.4020204544067383
7.441666126251221 7.608272552490234 -2.2496249675750732
7.131237506866455 7.899980068206787 -2.2496249675750732
6.133459568023682 8.697415351867676 -2.2496259212493896
5.958168983459473 8.818425178527832 -2.2496261596679688
5.780490398406982 8.935903549194336 -2.249626636505127
5.418254375457764 9.16008186340332 -2.2496261596679688
5.053822994232178 9.381621360778809 -2.2525203227996826
4.089271068572998 9.834840774536133 -2.251431465148926
3.0794224739074707 8.332005500793457 -1.8776562213897705
3.490880012512207 10.06004524230957 -2.2508809566497803
2.8803038597106934 10.249247550964355 -2.2504096031188965
2.6744420528411865 10.304203033447266 -2.250270128250122
2.259676456451416 10.401813507080078 -2.250018835067749
1.6410925388336182 8.357198715209961 -1.8002800941467285
1.6311779022216797 10.517226219177246 -2.2497105598449707
0.7840099930763245 10.600518226623535 -2.246853828430176
0.11496826261281967 8.349809646606445 -1.7651482820510864
-0.06628905981779099 10.61927604675293 -2.2447447776794434
-0.27867797017097473 10.61513900756836 -2.244600772857666
-0.4911425709724426 10.607486724853516 -2.244612455368042
-0.9155004620552063 10.581647872924805 -2.2451040744781494
8.987555503845215 4.866204261779785 -2.402024269104004
8.888368606567383 5.045103549957275 -2.402024269104004
8.67934799194336 5.396768569946289 -2.402024507522583
8.569599151611328 5.569390773773193 -2.402024507522583
8.219953536987305 6.073596477508545 -2.402024745941162
8.096750259399414 6.2368903160095215 -2.402024745941162
7.707900047302246 6.711526393890381 -2.4020256996154785
6.270369529724121 7.232205867767334 -2.2496302127838135
5.671899318695068 7.710516929626465 -2.249630928039551
5.358798503875732 7.931307315826416 -2.249630928039551
5.198985576629639 8.036974906921387 -2.249630928039551
4.873188495635986 8.23859691619873 -2.249630928039551
4.707331657409668 8.334473609924316 -2.249630928039551
4.207143306732178 8.619216918945312 -2.254150867462158
4.033449649810791 8.700931549072266 -2.2539546489715576
3.858182191848755 8.779178619384766 -2.253765821456909
3.503211498260498 8.925142288208008 -2.2534117698669434
3.0794224739074707 8.33200454711914 -2.0876739025115967
2.9606969356536865 9.117366790771484 -2.252938985824585
2.777460813522339 9.174220085144043 -2.2527976036071777
2.593144416809082 9.227417945861816 -2.2526638507843018
2.2215564250946045 9.322796821594238 -2.2524211406707764
1.641091227531433 8.357196807861328 -2.001643180847168
1.477447509765625 8.410823822021484 -2.0070018768310547
1.468605875968933 9.468974113464355 -2.2520339488983154
1.2787597179412842 9.496150016784668 -2.251957893371582
0.7065539360046387 9.55501937866211 -2.2517802715301514
-0.4432006776332855 9.570305824279785 -2.251652717590332
-0.6346496343612671 9.559555053710938 -2.2516610622406006
-0.8258471488952637 9.54500961303711 -2.251677989959717
8.158120155334473 4.417118549346924 -2.402024745941162
7.974814414978027 4.740067481994629 -2.402024984359741
7.778735160827637 5.055405139923096 -2.402024984359741
7.676005840301514 5.2100749015808105 -2.4020259380340576
7.349538326263428 5.661312580108643 -2.4020280838012695
7.234764099121094 5.807270526885986 -2.4020285606384277
6.996574401855469 6.0921502113342285 -2.4020297527313232
6.618386268615723 6.501018047332764 -2.4020304679870605
6.486950397491455 6.632182598114014 -2.4020304679870605
5.877472877502441 6.511063575744629 -2.271090030670166
5.691696643829346 6.564772129058838 -2.249630928039551
5.287496089935303 6.894495487213135 -2.249630928039551
4.719188213348389 7.2952728271484375 -2.249630928039551
4.572238445281982 7.388247489929199 -2.249630928039551
4.423454284667969 7.478272914886475 -2.249630928039551
4.278553485870361 7.575310707092285 -2.25260591506958
4.12646484375 7.660122394561768 -2.252810478210449
3.341813802719116 8.037176132202148 -2.253685474395752
3.017895460128784 8.165536880493164 -2.2539780139923096
2.854036808013916 8.224788665771484 -2.2541115283966064
2.6890149116516113 8.280714988708496 -2.254236936569214
2.522885799407959 8.333309173583984 -2.2543535232543945
2.355717658996582 8.382529258728027 -2.2544617652893066
2.187426805496216 8.427818298339844 -2.254413366317749
2.018223762512207 8.469504356384277 -2.2543065547943115
1.848232388496399 8.50782299041748 -2.2542073726654053
1.6775243282318115 8.54276180267334 -2.254115581512451
1.5061620473861694 8.574309349060059 -2.2540314197540283
1.1617406606674194 8.627155303955078 -2.253885507583618
0.8155224323272705 8.666289329528809 -2.253770112991333
0.6419018507003784 8.68070125579834 -2.2537238597869873
-0.05437988042831421 8.70380973815918 -2.2536158561706543
-0.4026501476764679 8.694633483886719 -2.253607988357544
-0.7502844333648682 8.671643257141113 -2.2536308765411377
7.379109859466553 4.188435077667236 -2.4020280838012695
7.205580711364746 4.4803595542907715 -2.402028799057007
7.020511150360107 4.765159606933594 -2.402029514312744
6.824201583862305 5.042296409606934 -2.4020302295684814
6.721922397613525 5.177863597869873 -2.4020304679870605
6.616948127746582 5.31135368347168 -2.4020304679870605
6.286298751831055 5.698859691619873 -2.4020309448242188
6.170981407165527 5.823521614074707 -2.4020309448242188
5.810401439666748 6.183335304260254 -2.4020309448242188
5.685492992401123 6.298388957977295 -2.4020309448242188
5.522217750549316 6.369295120239258 -2.3864376544952393
5.017277717590332 6.277857303619385 -2.27506422996521
4.835965633392334 6.305728435516357 -2.249630928039551
4.713433742523193 6.4075517654418945 -2.2518465518951416
4.317550182342529 6.674380302429199 -2.250340700149536
4.047720909118652 6.84306526184082 -2.2507495880126953
3.910283088684082 6.923276424407959 -2.2509384155273438
3.7712461948394775 7.000720024108887 -2.2511203289031982
3.488596200942993 7.147117614746094 -2.251461982727051
3.0540404319763184 7.345075607299805 -2.2519190311431885
2.906608819961548 7.405176162719727 -2.25205659866333
2.608225107192993 7.516404151916504 -2.2523083686828613
2.457399845123291 7.567481517791748 -2.25242280960083
2.152787923812866 7.66046142578125 -2.2526280879974365
1.9991259574890137 7.702321529388428 -2.2527191638946533
1.844643473625183 7.741074085235596 -2.2528021335601807
1.6894042491912842 7.776692867279053 -2.2528772354125977
1.533474087715149 7.809178352355957 -2.2529444694519043
1.3769116401672363 7.838517665863037 -2.2530035972595215
0.9041051864624023 7.907473087310791 -2.2531330585479736
0.745678722858429 7.924072265625 -2.253159999847412
0.5869433283805847 7.937479019165039 -2.2531790733337402
0.4279736280441284 7.947670936584473 -2.2531898021698
0.268829345703125 7.954661846160889 -2.253192663192749
-0.6860339045524597 7.929036617279053 -2.253039598464966
6.867475509643555 3.718312978744507 -2.4020299911499023
6.791684627532959 3.8550097942352295 -2.4020302295684814
6.631969928741455 4.123721599578857 -2.4020304679870605
6.372564792633057 4.5142621994018555 -2.4020309448242188
6.280943393707275 4.640891075134277 -2.4020309448242188
6.186802864074707 4.765665054321289 -2.4020309448242188
6.090188026428223 4.8885297775268555 -2.4020309448242188
5.99113130569458 5.009436130523682 -2.4020309448242188
5.785859107971191 5.245185375213623 -2.4020309448242188
5.679726600646973 5.359928607940674 -2.4020309448242188
5.571319580078125 5.472522258758545 -2.4020309448242188
5.347850322723389 5.691097736358643 -2.4020309448242188
5.232882022857666 5.7969865798950195 -2.4020309448242188
4.875579833984375 6.100558757781982 -2.4020309448242188
4.752509593963623 6.196913719177246 -2.4020309448242188
4.569252967834473 6.211546897888184 -2.371774673461914
4.025274753570557 6.222565650939941 -2.2794692516326904
3.5969066619873047 6.368432998657227 -2.249630928039551
3.46880841255188 6.439288139343262 -2.249680995941162
3.33947491645813 6.507884979248047 -2.2498414516448975
3.2087817192077637 6.573863983154297 -2.249994993209839
2.8090367317199707 6.755834579467773 -2.250415325164795
2.6734204292297363 6.8110809326171875 -2.2505416870117188
2.5367040634155273 6.863584518432617 -2.2506608963012695
2.398953914642334 6.913323879241943 -2.2507731914520264
2.120561361312866 7.004422664642334 -2.250976324081421
1.8386987447738647 7.084218502044678 -2.251150608062744
1.6966063976287842 7.119840621948242 -2.2512269020080566
1.410402774810791 7.182449817657471 -2.2513577938079834
1.2664037942886353 7.209414958953857 -2.2514121532440186
0.6858251690864563 7.288065433502197 -2.251555919647217
0.5398339629173279 7.300388813018799 -2.251573324203491
0.3936206102371216 7.309763431549072 -2.2515833377838135
0.10077636688947678 7.319650650024414 -2.2515809535980225
-0.6309716701507568 7.292659282684326 -2.2514452934265137
6.354551792144775 3.4405510425567627 -2.4020309448242188
6.059041500091553 3.937775135040283 -2.4020309448242188
5.979018211364746 4.0582475662231445 -2.4020309448242188
5.72471809387207 4.409670829772949 -2.4020309448242188
5.052823543548584 5.166102409362793 -2.4020309448242188
4.948423862457275 5.266036033630371 -2.4020309448242188
4.842041969299316 5.364014625549316 -2.4020309448242188
4.733717918395996 5.459847450256348 -2.4020309448242188
4.623498439788818 5.553493022918701 -2.4020309448242188
4.164557933807373 5.90546178817749 -2.4020309448242188
4.045536994934082 5.9876251220703125 -2.4020309448242188
3.8026793003082275 6.144724369049072 -2.4020309448242188
3.505800724029541 6.207131385803223 -2.369637966156006
3.3463659286499023 6.211997985839844 -2.3454532623291016
3.190009593963623 6.216607570648193 -2.322618246078491
3.0365283489227295 6.220970153808594 -2.3010776042938232
2.738291025161743 6.230900764465332 -2.2623705863952637
2.0902721881866455 6.436869144439697 -2.249638557434082
1.7003453969955444 6.5511651039123535 -2.249797821044922
1.436898112297058 6.614359378814697 -2.249932289123535
1.0374597311019897 6.689113140106201 -2.2500832080841064
0.9033947587013245 6.708646297454834 -2.250119924545288
0.6342138648033142 6.739582538604736 -2.2501726150512695
0.49920654296875 6.750974655151367 -2.2501885890960693
0.36400023102760315 6.759640216827393 -2.2501978874206543
0.22864378988742828 6.765577793121338 -2.2502002716064453
0.09319335967302322 6.76878547668457 -2.2501957416534424
-0.04229370132088661 6.769260883331299 -2.2501842975616455
-0.3131506145000458 6.7620158195495605 -2.250140905380249
-0.44841307401657104 6.754297256469727 -2.2501089572906494
5.906727313995361 3.1981260776519775 -2.4020309448242188
5.632039546966553 3.6602678298950195 -2.4020309448242188
5.55765962600708 3.772251605987549 -2.4020309448242188
5.481049537658691 3.882720947265625 -2.4020309448242188
5.152980804443359 4.308622360229492 -2.4020309448242188
5.065718650817871 4.410889625549316 -2.4020309448242188
4.976425647735596 4.51138973236084 -2.4020309448242188
4.791905403137207 4.7069525718688965 -2.4020309448242188
4.599697113037109 4.894920349121094 -2.4020309448242188
4.500809192657471 4.985996723175049 -2.4020309448242188
4.193493366241455 5.24709939956665 -2.4020309448242188
3.648294687271118 5.639801979064941 -2.4020309448242188
3.534693479537964 5.711688041687012 -2.4020309448242188
3.1855711936950684 5.913505554199219 -2.4020309448242188
2.946367025375366 6.036253452301025 -2.4020309448242188
2.436304807662964 6.206978797912598 -2.384523630142212
1.8829492330551147 6.219560623168945 -2.3238537311553955
1.4838403463363647 6.226957321166992 -2.2891554832458496
0.9677367806434631 6.23958158493042 -2.25799822807312
0.8409057259559631 6.2446136474609375 -2.2532758712768555
0.46390989422798157 6.273657321929932 -2.249630928039551
0.3382605016231537 6.281684875488281 -2.249630928039551
0.21247680485248566 6.287197113037109 -2.249630928039551
-0.03930419683456421 6.290663242340088 -2.249630928039551
-0.4167224168777466 6.276967525482178 -2.249630928039551
-0.5422631502151489 6.26737117767334 -2.249630928039551
5.451143741607666 3.094109535217285 -2.4020309448242188
5.255646705627441 3.4156298637390137 -2.4020309448242188
5.041209697723389 3.724872350692749 -2.4020309448242188
4.88810920715332 3.923633337020874 -2.4020309448242188
4.64384651184082 4.209891319274902 -2.4020309448242188
4.558664321899414 4.3019866943359375 -2.4020309448242188
4.471653938293457 4.3923563957214355 -2.4020309448242188
4.382849216461182 4.480973243713379 -2.4020309448242188
4.292293548583984 4.567788124084473 -2.4020309448242188
3.913240909576416 4.896432399749756 -2.4020309448242188
3.7141575813293457 5.049112319946289 -2.4020309448242188
3.509122133255005 5.193701267242432 -2.4020309448242188
3.404474973678589 5.262889862060547 -2.4020309448242188
3.2984678745269775 5.3299713134765625 -2.4020309448242188
2.861640453338623 5.576691150665283 -2.4020309448242188
2.749457836151123 5.632844924926758 -2.4020309448242188
2.5218749046325684 5.738363742828369 -2.4020309448242188
2.2901744842529297 5.834687232971191 -2.4020309448242188
2.172943115234375 5.879353046417236 -2.4020309448242188
2.0548412799835205 5.921663761138916 -2.4020309448242188
1.935919165611267 5.961601257324219 -2.4020309448242188
1.8162206411361694 5.999153137207031 -2.4020309448242188
1.6957933902740479 6.034299850463867 -2.4020309448242188
1.4529491662979126 6.097328186035156 -2.4020309448242188
1.330629825592041 6.125186443328857 -2.4020309448242188
0.8359631299972534 6.207921504974365 -2.400460958480835
0.7099536061286926 6.209240436553955 -2.394995927810669
0.2099633812904358 6.212822914123535 -2.3822250366210938
-0.038823239505290985 6.2136149406433105 -2.381215810775757
-0.16322632133960724 6.2137627601623535 -2.3820478916168213
-0.41251340508461 6.213566303253174 -2.38639235496521
5.161050796508789 2.7943882942199707 -2.4020309448242188
5.104091644287109 2.8971197605133057 -2.4020309448242188
5.045087814331055 2.9986908435821533 -2.4020309448242188
4.984062194824219 3.0990617275238037 -2.4020309448242188
4.856048583984375 3.2960331439971924 -2.4020309448242188
4.649510383605957 3.581496000289917 -2.4020309448242188
4.502460956573486 3.76469349861145 -2.4020309448242188
4.426210880279541 3.854050874710083 -2.4020309448242188
4.34819221496582 3.9418632984161377 -2.4020309448242188
4.268431186676025 4.0280961990356445 -2.4020309448242188
4.186960220336914 4.112714767456055 -2.4020309448242188
4.103810787200928 4.195687770843506 -2.4020309448242188
3.8446409702301025 4.434388160705566 -2.4020309448242188
3.664100170135498 4.584695816040039 -2.4020309448242188
3.571611166000366 4.657107353210449 -2.4020309448242188
3.477694034576416 4.727653503417969 -2.4020309448242188
3.3823790550231934 4.79630708694458 -2.4020309448242188
3.285712718963623 4.863040447235107 -2.4020309448242188
3.1877293586730957 4.9278244972229 -2.4020309448242188
2.9879674911499023 5.051446437835693 -2.4020309448242188
2.886277914047241 5.110234260559082 -2.4020309448242188
2.574411630630493 5.274224758148193 -2.4020309448242188
2.4683423042297363 5.324692249298096 -2.4020309448242188
2.361281633377075 5.373025894165039 -2.4020309448242188
1.8126684427261353 5.5820512771606445 -2.4020309448242188
1.3604223728179932 5.709136962890625 -2.4020309448242188
1.130828857421875 5.759006977081299 -2.4020309448242188
0.6666918992996216 5.831001281738281 -2.4020309448242188
0.5498583912849426 5.843175411224365 -2.4020309448242188
0.4328063726425171 5.853010177612305 -2.4020309448242188
0.3155810534954071 5.860499858856201 -2.4020309448242188
0.19822998344898224 5.865641117095947 -2.4020309448242188
0.08079712092876434 5.868434429168701 -2.4020309448242188
-0.036668699234724045 5.868875980377197 -2.4020309448242188
4.793245792388916 2.7206811904907227 -2.4020309448242188
4.680526256561279 2.91032338142395 -2.4020309448242188
4.621344089508057 3.0034148693084717 -2.4020309448242188
4.560308933258057 3.095302104949951 -2.4020309448242188
4.298160076141357 3.4500889778137207 -2.4020309448242188
4.22825288772583 3.5354185104370117 -2.4020309448242188
3.8538830280303955 3.940164089202881 -2.4020309448242188
3.7742576599121094 4.01650333404541 -2.4020309448242188
3.6931164264678955 4.0912346839904785 -2.4020309448242188
3.085606575012207 4.566873550415039 -2.4020309448242188
2.9935901165008545 4.627712249755859 -2.4020309448242188
2.805994749069214 4.743806838989258 -2.4020309448242188
2.71049427986145 4.799014091491699 -2.4020309448242188
2.3180198669433594 5.000410079956055 -2.4020309448242188
2.2174816131591797 5.045802116394043 -2.4020309448242188
2.1160521507263184 5.089170455932617 -2.4020309448242188
1.9106981754302979 5.169774532318115 -2.4020309448242188
1.491127848625183 5.3060197830200195 -2.4020309448242188
1.277593970298767 5.361442565917969 -2.4020309448242188
1.06201171875 5.408275127410889 -2.4020309448242188
0.7355541586875916 5.462258338928223 -2.4020309448242188
0.6260876059532166 5.475885391235352 -2.4020309448242188
0.1861572265625 5.508416652679443 -2.4020309448242188
0.07587768137454987 5.5110392570495605 -2.4020309448242188
-0.2549682557582855 5.505660057067871 -2.4020309448242188
-0.4750927686691284 5.49104642868042 -2.4020309448242188
4.512951374053955 2.5615837574005127 -2.4020309448242188
4.460780143737793 2.65139102935791 -2.4020309448242188
4.406822204589844 2.7401373386383057 -2.4020309448242188
4.351100921630859 2.8277831077575684 -2.4020309448242188
4.293635368347168 2.914297342300415 -2.4020309448242188
4.234450817108154 2.999642848968506 -2.4020309448242188
4.046816349029541 3.248338460922241 -2.4020309448242188
3.980997323989868 3.328679084777832 -2.4020309448242188
3.9135801792144775 3.4076859951019287 -2.4020309448242188
3.774073362350464 3.5615739822387695 -2.4020309448242188
3.6285204887390137 3.709757089614868 -2.4020309448242188
3.553548574447632 3.7816295623779297 -2.4020309448242188
3.399365186691284 3.9208104610443115 -2.4020309448242188
3.3202147483825684 3.988060235977173 -2.4020309448242188
3.2397351264953613 4.053709506988525 -2.4020309448242188
3.1579551696777344 4.117735385894775 -2.4020309448242188
3.074915647506714 4.180111408233643 -2.4020309448242188
2.990640878677368 4.240814208984375 -2.4020309448242188
2.730771541595459 4.412633419036865 -2.4020309448242188
2.5519933700561523 4.518382549285889 -2.4020309448242188
2.461054563522339 4.568553447723389 -2.4020309448242188
2.369127035140991 4.616891384124756 -2.4020309448242188
2.276252508163452 4.663381099700928 -2.4020309448242188
2.1824657917022705 4.708001136779785 -2.4020309448242188
2.0878050327301025 4.75073766708374 -2.4020309448242188
1.9923095703125 4.791572093963623 -2.4020309448242188
1.8960143327713013 4.830483436584473 -2.4020309448242188
1.7989599704742432 4.867462158203125 -2.4020309448242188
1.7011816501617432 4.902491569519043 -2.4020309448242188
1.5036364793777466 4.966644287109375 -2.4020309448242188
1.4039342403411865 4.9957404136657715 -2.4020309448242188
1.3036645650863647 5.022838115692139 -2.4020309448242188
1.101619839668274 5.070984363555908 -2.4020309448242188
0.9999120831489563 5.092015743255615 -2.4020309448242188
0.6925451755523682 5.1428446769714355 -2.4020309448242188
0.5894726514816284 5.155674934387207 -2.4020309448242188
0.38268187642097473 5.175132751464844 -2.4020309448242188
0.17527343332767487 5.18630313873291 -2.4020309448242188
-0.13626708090305328 5.187472343444824 -2.4020309448242188
-0.24005736410617828 5.183706760406494 -2.4020309448242188
-0.44731199741363525 5.169947624206543 -2.4020309448242188
4.306193828582764 2.3315367698669434 -2.4020309448242188
4.258667945861816 2.4172511100769043 -2.4020309448242188
4.209437370300293 2.5019984245300293 -2.4020309448242188
4.158520221710205 2.5857439041137695 -2.4020309448242188
4.051712512969971 2.7500927448272705 -2.4020309448242188
3.8793835639953613 2.988269567489624 -2.4020309448242188
3.493448495864868 3.4314990043640137 -2.4020309448242188
3.353325128555298 3.568553924560547 -2.4020309448242188
3.2812352180480957 3.6349523067474365 -2.4020309448242188
3.2078282833099365 3.699892997741699 -2.4020309448242188
3.133138418197632 3.7633519172668457 -2.4020309448242188
3.0571911334991455 3.825303792953491 -2.4020309448242188
2.980023145675659 3.8857219219207764 -2.4020309448242188
2.822133779525757 4.001864910125732 -2.4020309448242188
2.741478204727173 4.057543754577637 -2.4020309448242188
2.6597251892089844 4.111598491668701 -2.4020309448242188
2.576904296875 4.164003372192383 -2.4020309448242188
2.4082019329071045 4.263794422149658 -2.4020309448242188
2.3223838806152344 4.311136245727539 -2.4020309448242188
2.1479954719543457 4.400622844696045 -2.4020309448242188
1.9701671600341797 4.483057975769043 -2.4020309448242188
1.789183259010315 4.558310508728027 -2.4020309448242188
1.6053344011306763 4.626260280609131 -2.4020309448242188
1.5124255418777466 4.657461643218994 -2.4020309448242188
1.418911099433899 4.686798095703125 -2.4020309448242188
1.3248279094696045 4.714255332946777 -2.4020309448242188
1.2302148342132568 4.739825248718262 -2.4020309448242188
1.135107398033142 4.763497352600098 -2.4020309448242188
1.0395482778549194 4.7852606773376465 -2.4020309448242188
0.943572998046875 4.8051066398620605 -2.4020309448242188
0.847216784954071 4.823029041290283 -2.4020309448242188
0.7505163550376892 4.839017868041992 -2.4020309448242188
0.6535180807113647 4.853068828582764 -2.4020309448242188
0.5562597513198853 4.865176200866699 -2.4020309448242188
0.45878416299819946 4.875334739685059 -2.4020309448242188
0.2633154094219208 4.889790058135986 -2.4020309448242188
0.16539184749126434 4.894078731536865 -2.4020309448242188
0.06741943210363388 4.8964104652404785 -2.4020309448242188
-0.12858642637729645 4.895185470581055 -2.4020309448242188
-0.3243798613548279 4.886117935180664 -2.4020309448242188
3.9801671504974365 2.365724563598633 -2.4020309448242188
3.9320225715637207 2.444908618927002 -2.4020309448242188
3.882303476333618 2.5231122970581055 -2.4020309448242188
3.7782225608825684 2.6764557361602783 -2.4020309448242188
3.7239012718200684 2.7515337467193604 -2.4020309448242188
3.610804319381714 2.898355007171631 -2.4020309448242188
3.491922616958618 3.040534496307373 -2.4020309448242188
3.3674473762512207 3.1778416633605957 -2.4020309448242188
3.170682191848755 3.3741893768310547 -2.4020309448242188
3.102518320083618 3.436969518661499 -2.4020309448242188
2.9624876976013184 3.5583763122558594 -2.4020309448242188
2.8906774520874023 3.6169543266296387 -2.4020309448242188
2.5921592712402344 3.83654522895813 -2.4020309448242188
2.436551570892334 3.9372074604034424 -2.4020309448242188
2.277036190032959 4.031562328338623 -2.4020309448242188
1.6917333602905273 4.310036659240723 -2.4020309448242188
1.6051379442214966 4.343031406402588 -2.4020309448242188
1.3416284322738647 4.431525707244873 -2.4020309448242188
1.2526708841323853 4.457488536834717 -2.4020309448242188
0.8921765089035034 4.543390274047852 -2.4020309448242188
0.8010668754577637 4.560336589813232 -2.4020309448242188
0.7096386551856995 4.575455665588379 -2.4020309448242188
0.6179248094558716 4.588741302490234 -2.4020309448242188
0.43379515409469604 4.6097941398620605 -2.4020309448242188
0.24896849691867828 4.623462200164795 -2.4020309448242188
0.06374267488718033 4.629721164703369 -2.4020309448242188
-0.12158813327550888 4.628564357757568 -2.4020309448242188
-0.21419432759284973 4.62520170211792 -2.4020309448242188
3.8566272258758545 2.088124990463257 -2.4020309448242188
3.677278995513916 2.389867067337036 -2.4020309448242188
3.628713369369507 2.4629836082458496 -2.4020309448242188
3.4743762016296387 2.676295042037964 -2.4020309448242188
3.4201183319091797 2.7452921867370605 -2.4020309448242188
3.3075132369995117 2.8799638748168945 -2.4020309448242188
2.9386730194091797 3.255463123321533 -2.4020309448242188
2.872931957244873 3.313624858856201 -2.4020309448242188
2.6689085960388184 3.480052947998047 -2.4020309448242188
2.527503490447998 3.5840721130371094 -2.4020309448242188
2.4552698135375977 3.633937358856201 -2.4020309448242188
2.382049560546875 3.682347297668457 -2.4020309448242188
2.3078770637512207 3.729283332824707 -2.4020309448242188
2.15678334236145 3.818655252456665 -2.4020309448242188
2.079927921295166 3.8610551357269287 -2.4020309448242188
1.9237463474273682 3.9411985874176025 -2.4020309448242188
1.8444836139678955 3.978909730911255 -2.4020309448242188
1.683773159980774 4.049537181854248 -2.4020309448242188
1.4377355575561523 4.143279552459717 -2.4020309448242188
1.3545275926589966 4.1712236404418945 -2.4020309448242188
1.1865160465240479 4.22208833694458 -2.4020309448242188
1.1017810106277466 4.244988441467285 -2.4020309448242188
1.0166027545928955 4.26618766784668 -2.4020309448242188
0.7587634325027466 4.31950569152832 -2.4020309448242188
0.672161877155304 4.333826065063477 -2.4020309448242188
0.5852929353713989 4.346410274505615 -2.4020309448242188
0.4108862280845642 4.366351127624512 -2.4020309448242188
0.23581908643245697 4.37929630279541 -2.4020309448242188
0.1481286585330963 4.3831377029418945 -2.4020309448242188
0.06037597358226776 4.385225296020508 -2.4020309448242188
-0.11516357213258743 4.384129047393799 -2.4020309448242188
-0.2028820812702179 4.380946159362793 -2.4020309448242188
-0.37803953886032104 4.369317054748535 -2.4020309448242188
3.618215322494507 2.053725004196167 -2.4020309448242188
3.4884519577026367 2.267148017883301 -2.4020309448242188
3.3949291706085205 2.4049341678619385 -2.4020309448242188
3.3461179733276367 2.472395181655884 -2.4020309448242188
3.244497060775757 2.604323625564575 -2.4020309448242188
3.191725969314575 2.668735980987549 -2.4020309448242188
3.137676954269409 2.7320799827575684 -2.4020309448242188
2.7254087924957275 3.1434717178344727 -2.4020309448242188
2.661949396133423 3.1973876953125 -2.4020309448242188
2.5974254608154297 3.250023126602173 -2.4020309448242188
2.4652843475341797 3.351362943649292 -2.4020309448242188
2.397717237472534 3.4000303745269775 -2.4020309448242188
2.259732723236084 3.4932615756988525 -2.4020309448242188
2.1893675327301025 3.537785530090332 -2.4020309448242188
1.899422526359558 3.701547145843506 -2.4020309448242188
1.6738756895065308 3.808858633041382 -2.4020309448242188
1.5973131656646729 3.8415958881378174 -2.4020309448242188
1.520111083984375 3.8727922439575195 -2.4020309448242188
1.3639074563980103 3.9305241107940674 -2.4020309448242188
1.2055236101150513 3.9819579124450684 -2.4020309448242188
1.1255896091461182 4.005285739898682 -2.4020309448242188
1.045204997062683 4.027010917663574 -2.4020309448242188
0.8832104206085205 4.065612316131592 -2.4020309448242188
0.6376476883888245 4.111286640167236 -2.4020309448242188
0.5552392601966858 4.123225212097168 -2.4020309448242188
0.47260618209838867 4.133511066436768 -2.4020309448242188
0.30681028962135315 4.149111747741699 -2.4020309448242188
0.14052246510982513 4.158066749572754 -2.4020309448242188
0.05727783218026161 4.160045623779297 -2.4020309448242188
-0.10924804210662842 4.159005641937256 -2.4020309448242188
-0.19246459007263184 4.1559858322143555 -2.4020309448242188
-0.2756018042564392 4.151301383972168 -2.4020309448242188
-0.35862791538238525 4.144956111907959 -2.4020309448242188
