ply
format ascii 1.0
element vertex 282
property float x
property float y
property float z
end_header
-47.362518310546875 -0.37506285309791565 -2.4020309448242188
-47.18438720703125 -4.1210479736328125 -2.4020309448242188
-46.85649871826172 -6.914863109588623 -2.4020309448242188
-45.80725860595703 -9.568150520324707 -2.3732190132141113
-43.23432540893555 -9.927924156188965 -2.2496626377105713
-43.03240966796875 -10.782764434814453 -2.249826192855835
-37.09108352661133 -12.48604679107666 -1.9847631454467773
-40.373634338378906 -16.318756103515625 -2.208449125289917
-39.70087432861328 -17.90656280517578 -2.2087242603302
-26.20444107055664 -12.44926643371582 -1.4712902307510376
-32.74738311767578 -0.9079424738883972 -2.4020309448242188
-32.68575668334961 -2.203684091567993 -2.4020309448242188
-32.408958435058594 -4.782776832580566 -2.4020309448242188
-32.30788803100586 -5.423490524291992 -2.4020309448242188
-32.19428253173828 -6.062088489532471 -2.4020309448242188
-31.928974151611328 -7.331869125366211 -2.4020309448242188
-31.613676071166992 -8.590166091918945 -2.4020309448242188
-31.437400817871094 -9.214398384094238 -2.4020309448242188
-30.534423828125 -9.61015510559082 -2.3471176624298096
-29.09718132019043 -9.795047760009766 -2.251107931137085
-28.670597076416016 -10.933187484741211 -2.2498483657836914
-28.46419334411621 -11.505041122436523 -2.2510929107666016
-28.148101806640625 -12.030962944030762 -2.2444958686828613
-27.646930694580078 -12.469902038574219 -2.223808765411377
-26.20444107055664 -12.44926643371582 -2.1271157264709473
-25.019086837768555 -0.19812621176242828 -2.4020309448242188
-24.991601943969727 -1.1884517669677734 -2.4020309448242188
-24.92498207092285 -2.176928758621216 -2.4020309448242188
-24.751771926879883 -3.6527702808380127 -2.4020309448242188
-24.587779998779297 -4.629807472229004 -2.4020309448242188
-24.26976203918457 -6.08131742477417 -2.4020309448242188
-24.144411087036133 -6.5605950355529785 -2.4020309448242188
-24.009784698486328 -7.037341117858887 -2.4020309448242188
-23.37773323059082 -8.914834022521973 -2.4020309448242188
-23.196884155273438 -9.375935554504395 -2.4020309448242188
-22.52774429321289 -9.628728866577148 -2.352047920227051
-21.411590576171875 -9.65742301940918 -2.2550370693206787
-21.165740966796875 -10.055469512939453 -2.2496769428253174
-20.17571449279785 -1.3602529764175415 -2.4020309448242188
-20.10604476928711 -2.1579337120056152 -2.4020309448242188
-20.05937957763672 -2.5555789470672607 -2.4020309448242188
-20.004852294921875 -2.9522311687469482 -2.4020309448242188
-19.7943115234375 -4.13460636138916 -2.4020309448242188
-19.615102767944336 -4.915017604827881 -2.4020309448242188
-19.51387596130371 -5.302384376525879 -2.4020309448242188
-19.03327751159668 -6.829647541046143 -2.4020309448242188
-18.894329071044922 -7.205137729644775 -2.4020309448242188
-18.74797248840332 -7.577807903289795 -2.4020309448242188
-18.433277130126953 -8.314090728759766 -2.4020309448242188
-18.264009475708008 -8.677409172058105 -2.4020309448242188
-16.952268600463867 -0.13424484431743622 -2.4020309448242188
-16.933664321899414 -0.8052642345428467 -2.4020309448242188
-16.91440200805664 -1.1403743028640747 -2.4020309448242188
-16.888507843017578 -1.4750291109085083 -2.4020309448242188
-16.816871643066406 -2.1424806118011475 -2.4020309448242188
-16.718870162963867 -2.806577682495117 -2.4020309448242188
-16.660024642944336 -3.1370346546173096 -2.4020309448242188
-16.522769927978516 -3.794135093688965 -2.4020309448242188
-16.444412231445312 -4.120523929595947 -2.4020309448242188
-16.268394470214844 -4.768315315246582 -2.4020309448242188
-16.06691551208496 -5.408628940582275 -2.4020309448242188
-15.717451095581055 -6.3528900146484375 -2.4020309448242188
-15.453624725341797 -6.970148086547852 -2.4020309448242188
-15.312594413757324 -7.274743556976318 -2.4020309448242188
-14.547781944274902 -0.9808160066604614 -2.4020309448242188
-14.497550010681152 -1.5559872388839722 -2.4020309448242188
-14.46390151977539 -1.8427109718322754 -2.4020309448242188
-14.424582481384277 -2.128718614578247 -2.4020309448242188
-14.379613876342773 -2.413888931274414 -2.4020309448242188
-14.328998565673828 -2.6981091499328613 -2.4020309448242188
-14.272771835327148 -2.9812755584716797 -2.4020309448242188
-14.070619583129883 -3.823312282562256 -2.4020309448242188
-13.992162704467773 -4.101145267486572 -2.4020309448242188
-13.818835258483887 -4.651864528656006 -2.4020309448242188
-13.72402572631836 -4.92454719543457 -2.4020309448242188
-13.291399955749512 -5.994913101196289 -2.4020309448242188
-12.779041290283203 -0.10119964182376862 -2.4020309448242188
-12.764997482299805 -0.6070275902748108 -2.4020309448242188
-12.730961799621582 -1.1119122505187988 -2.4020309448242188
-12.64250659942627 -1.8657255172729492 -2.4020309448242188
-12.558738708496094 -2.364772081375122 -2.4020309448242188
-12.509439468383789 -2.6129534244537354 -2.4020309448242188
-12.455256462097168 -2.8601083755493164 -2.4020309448242188
-12.396193504333496 -3.106152296066284 -2.4020309448242188
-12.263505935668945 -3.594470500946045 -2.4020309448242188
-11.542997360229492 -5.4838762283325195 -2.4020309448242188
-11.363239288330078 -0.08998870849609375 -2.4020309448242188
-11.359204292297363 -0.3149406313896179 -2.4020309448242188
-11.337830543518066 -0.7643997073173523 -2.4020309448242188
-11.272459030151367 -1.4361190795898438 -2.4020309448242188
-11.123502731323242 -2.3234610557556152 -2.4020309448242188
-10.96595573425293 -2.979703664779663 -2.4020309448242188
-10.839396476745605 -3.4115028381347656 -2.4020309448242188
-10.769731521606445 -3.625437021255493 -2.4020309448242188
-10.695840835571289 -3.837952136993408 -2.4020309448242188
-10.264138221740723 -4.876308917999268 -2.4020309448242188
-10.220142364501953 -0.08093978464603424 -2.4020309448242188
-10.181648254394531 -0.88925701379776 -2.4020309448242188
-10.162046432495117 -1.0906683206558228 -2.4020309448242188
-10.138459205627441 -1.2916463613510132 -2.4020309448242188
-10.110902786254883 -1.4921241998672485 -2.4020309448242188
-10.079378128051758 -1.6920139789581299 -2.4020309448242188
-10.004487037658691 -2.0897231101989746 -2.4020309448242188
-9.961159706115723 -2.287386655807495 -2.4020309448242188
-9.91392707824707 -2.4841601848602295 -2.4020309448242188
-9.86279296875 -2.679948329925537 -2.4020309448242188
-9.748963356018066 -3.0683090686798096 -2.4020309448242188
-9.619848251342773 -3.4518580436706543 -2.4020309448242188
-9.475648880004883 -3.8299946784973145 -2.4020309448242188
-9.397970199584961 -4.016845226287842 -2.4020309448242188
-9.316596031188965 -4.202129364013672 -2.4020309448242188
-9.231573104858398 -4.385756969451904 -2.4020309448242188
-9.273625373840332 -0.2571167051792145 -2.4020309448242188
-9.266718864440918 -0.4406696856021881 -2.4020309448242188
-9.242013931274414 -0.8071900606155396 -2.4020309448242188
-9.177791595458984 -1.3544197082519531 -2.4020309448242188
-9.081191062927246 -1.8968677520751953 -2.4020309448242188
-9.04186725616455 -2.076289176940918 -2.4020309448242188
-8.998992919921875 -2.2549045085906982 -2.4020309448242188
-8.952593803405762 -2.432623863220215 -2.4020309448242188
-8.792381286621094 -2.9597973823547363 -2.4020309448242188
-8.732063293457031 -3.133296251296997 -2.4020309448242188
-8.668316841125488 -3.305562973022461 -2.4020309448242188
-8.456793785095215 -3.814326763153076 -2.4020309448242188
-8.379615783691406 -3.9810075759887695 -2.4020309448242188
-8.475372314453125 -0.4030378758907318 -2.4020309448242188
-8.465741157531738 -0.5707626342773438 -2.4020309448242188
-8.45278263092041 -0.7382592558860779 -2.4020309448242188
-8.394042015075684 -1.2387570142745972 -2.4020309448242188
-8.30569839477539 -1.7348814010620117 -2.4020309448242188
-8.269740104675293 -1.8989825248718262 -2.4020309448242188
-8.188066482543945 -2.224886655807495 -2.4020309448242188
-8.093565940856934 -2.547302722930908 -2.4020309448242188
-7.928073406219482 -3.023280382156372 -2.4020309448242188
-7.8666534423828125 -3.17965030670166 -2.4020309448242188
-7.802159786224365 -3.3347718715667725 -2.4020309448242188
-7.734613418579102 -3.488597869873047 -2.4020309448242188
-7.664031028747559 -3.641044855117798 -2.4020309448242188
-7.80649471282959 -0.21644088625907898 -2.4020309448242188
-7.800675868988037 -0.37095382809638977 -2.4020309448242188
-7.791801452636719 -0.5253258943557739 -2.4020309448242188
-7.764896869659424 -0.8333877325057983 -2.4020309448242188
-7.746872425079346 -0.9869568943977356 -2.4020309448242188
-7.725813865661621 -1.1401429176330566 -2.4020309448242188
-7.701725482940674 -1.2928799390792847 -2.4020309448242188
-7.5753374099731445 -1.898163080215454 -2.4020309448242188
-7.494212627410889 -2.1965761184692383 -2.4020309448242188
-7.350596904754639 -2.637592077255249 -2.4020309448242188
-7.296934604644775 -2.7826030254364014 -2.4020309448242188
-7.1810526847839355 -3.0692999362945557 -2.4020309448242188
-7.118875980377197 -3.2108774185180664 -2.4020309448242188
-7.225976467132568 -0.05722213536500931 -2.4020309448242188
-7.218050003051758 -0.3432476818561554 -2.4020309448242188
-7.18494176864624 -0.7711427211761475 -2.4020309448242188
-7.168265342712402 -0.9132420420646667 -2.4020309448242188
-7.126491069793701 -1.196315884590149 -2.4020309448242188
-7.101408958435059 -1.3371750116348267 -2.4020309448242188
-7.009487152099609 -1.756392478942871 -2.4020309448242188
-6.973394393920898 -1.8948217630386353 -2.4020309448242188
-6.934492588043213 -2.032515287399292 -2.4020309448242188
-6.848581790924072 -2.3054497241973877 -2.4020309448242188
-6.699633598327637 -2.707947254180908 -2.4020309448242188
-6.644707679748535 -2.8400564193725586 -2.4020309448242188
-6.587173938751221 -2.9710590839385986 -2.4020309448242188
-6.5270609855651855 -3.10089111328125 -2.4020309448242188
-6.716741561889648 -0.053189847618341446 -2.4020309448242188
-6.7143731117248535 -0.18616028130054474 -2.4020309448242188
-6.7093706130981445 -0.3190576136112213 -2.4020309448242188
-6.691483020782471 -0.5844288468360901 -2.4020309448242188
-6.644984722137451 -0.9806386828422546 -2.4020309448242188
-6.624267578125 -1.1120065450668335 -2.4020309448242188
-6.546567916870117 -1.5032925605773926 -2.4020309448242188
-6.515532493591309 -1.6326141357421875 -2.4020309448242188
-6.481964588165283 -1.7612876892089844 -2.4020309448242188
-6.4071044921875 -2.016523599624634 -2.4020309448242188
-6.365932941436768 -2.142977476119995 -2.4020309448242188
-6.322257041931152 -2.26859450340271 -2.4020309448242188
-6.276110649108887 -2.3933215141296387 -2.4020309448242188
-6.227488994598389 -2.5171098709106445 -2.4020309448242188
-6.176433086395264 -2.639909267425537 -2.4020309448242188
-6.122958660125732 -2.761680841445923 -2.4020309448242188
-6.265646457672119 -0.17371916770935059 -2.4020309448242188
-6.260976314544678 -0.2977345287799835 -2.4020309448242188
-6.253856182098389 -0.4216366410255432 -2.4020309448242188
-6.244284152984619 -0.5453707575798035 -2.4020309448242188
-6.232261657714844 -0.6688936948776245 -2.4020309448242188
-6.217794895172119 -0.792151153087616 -2.4020309448242188
-6.200893402099609 -0.9151012897491455 -2.4020309448242188
-6.10905647277832 -1.4028260707855225 -2.4020309448242188
-6.08008337020874 -1.5235055685043335 -2.4020309448242188
-5.856668472290039 -2.2333734035491943 -2.4020309448242188
-5.763665199279785 -2.4634816646575928 -2.4020309448242188
-5.6616106033325195 -2.6897315979003906 -2.4020309448242188
-5.868809700012207 -0.0464753694832325 -2.4020309448242188
-5.86673641204834 -0.16265898942947388 -2.4020309448242188
-5.86236572265625 -0.27877914905548096 -2.4020309448242188
-5.846734046936035 -0.5106490850448608 -2.4020309448242188
-5.806107044219971 -0.8568404912948608 -2.4020309448242188
-5.788005828857422 -0.9716259837150574 -2.4020309448242188
-5.767634868621826 -1.0860289335250854 -2.4020309448242188
-5.744999408721924 -1.2000068426132202 -2.4020309448242188
-5.720117092132568 -1.3135141134262085 -2.4020309448242188
-5.632043361663818 -1.6507717370986938 -2.4020309448242188
-5.598244667053223 -1.7619527578353882 -2.4020309448242188
-5.562321662902832 -1.8724439144134521 -2.4020309448242188
-5.524139404296875 -1.9822040796279907 -2.4020309448242188
-5.441318035125732 -2.199345111846924 -2.4020309448242188
-5.3967084884643555 -2.3066418170928955 -2.4020309448242188
-5.505339622497559 -0.26180097460746765 -2.4020309448242188
-5.490659713745117 -0.47954970598220825 -2.4020309448242188
-5.48008918762207 -0.5881646871566772 -2.4020309448242188
-5.46737003326416 -0.6965467929840088 -2.4020309448242188
-5.452508926391602 -0.804658055305481 -2.4020309448242188
-5.4355082511901855 -0.9124525189399719 -2.4020309448242188
-5.416377544403076 -1.0198882818222046 -2.4020309448242188
-5.39512300491333 -1.1269252300262451 -2.4020309448242188
-5.371754169464111 -1.2335193157196045 -2.4020309448242188
-5.346278667449951 -1.3396334648132324 -2.4020309448242188
-5.318708419799805 -1.4452160596847534 -2.4020309448242188
-5.2235307693481445 -1.7584092617034912 -2.4020309448242188
-5.187694549560547 -1.8614851236343384 -2.4020309448242188
-5.149828910827637 -1.9638270139694214 -2.4020309448242188
-5.068037986755371 -2.166163921356201 -2.4020309448242188
-5.024161338806152 -2.2660796642303467 -2.4020309448242188
-4.978306770324707 -2.365107297897339 -2.4020309448242188
-5.1872687339782715 -0.14382034540176392 -2.4020309448242188
-5.1775078773498535 -0.3490690588951111 -2.4020309448242188
-5.147655487060547 -0.6558146476745605 -2.4020309448242188
-5.133662223815918 -0.7576040625572205 -2.4020309448242188
-5.1176557540893555 -0.8590937852859497 -2.4020309448242188
-5.09964656829834 -0.9602485299110413 -2.4020309448242188
-5.0796332359313965 -1.061025857925415 -2.4020309448242188
-5.033646106719971 -1.261296033859253 -2.4020309448242188
-4.97976541519165 -1.459584355354309 -2.4020309448242188
-4.918095111846924 -1.6555830240249634 -2.4020309448242188
-4.88427734375 -1.7526319026947021 -2.4020309448242188
-4.848677635192871 -1.84898841381073 -2.4020309448242188
-4.811113357543945 -1.944623351097107 -2.4020309448242188
-4.7716779708862305 -2.0394935607910156 -2.4020309448242188
-4.687197208404541 -2.2268033027648926 -2.4020309448242188
-4.894991874694824 -0.1357165426015854 -2.4020309448242188
-4.878304481506348 -0.42606720328330994 -2.4020309448242188
-4.85761022567749 -0.6188629269599915 -2.4020309448242188
-4.8444061279296875 -0.7149168252944946 -2.4020309448242188
-4.829300880432129 -0.8106892108917236 -2.4020309448242188
-4.793422222137451 -1.0012423992156982 -2.4020309448242188
-4.750025749206543 -1.1902285814285278 -2.4020309448242188
-4.670989990234375 -1.470109224319458 -2.4020309448242188
-4.609139442443848 -1.653879165649414 -2.4020309448242188
-4.502814292907715 -1.924578309059143 -2.4020309448242188
-4.463840961456299 -2.013354539871216 -2.4020309448242188
-4.423094272613525 -2.1013340950012207 -2.4020309448242188
-4.619673252105713 -0.31145966053009033 -2.4020309448242188
-4.59303617477417 -0.5851557850837708 -2.4020309448242188
-4.566269397735596 -0.7665345668792725 -2.4020309448242188
-4.550198078155518 -0.8567889332771301 -2.4020309448242188
-4.512711524963379 -1.0362566709518433 -2.4020309448242188
-4.388193130493164 -1.4772067070007324 -2.4020309448242188
-4.358087062835693 -1.5637987852096558 -2.4020309448242188
-4.257565021514893 -1.819753646850586 -2.4020309448242188
-4.182177543640137 -1.9868826866149902 -2.4020309448242188
-4.385504722595215 -0.03472900390625 -2.4020309448242188
-4.3690080642700195 -0.3815855383872986 -2.4020309448242188
-4.360597610473633 -0.4680125415325165 -2.4020309448242188
-4.338651657104492 -0.6402795314788818 -2.4020309448242188
-4.309901237487793 -0.8115415573120117 -2.4020309448242188
-4.208587169647217 -1.23354971408844 -2.4020309448242188
-4.127936363220215 -1.4812136888504028 -2.4020309448242188
-4.066105842590332 -1.6434742212295532 -2.4020309448242188
-4.032723903656006 -1.7236530780792236 -2.4020309448242188
-3.9978082180023193 -1.803159475326538 -2.4020309448242188
-3.9613287448883057 -1.8819544315338135 -2.4020309448242188
-2.213381290435791 -0.01752777025103569 -1.2779362201690674
-2.229011297225952 -0.2392343133687973 -1.2943100929260254
-2.2477269172668457 -0.3317100405693054 -1.3117808103561401
-4.054905414581299 -0.9311303496360779 -2.4020309448242188
-3.992478609085083 -1.1702078580856323 -2.4020309448242188
-3.9685277938842773 -1.2490229606628418 -2.4020309448242188
-3.943021059036255 -1.3273476362228394 -2.4020309448242188
-3.8256590366363525 -1.6351433992385864 -2.4020309448242188
-3.792523145675659 -1.710569143295288 -2.4020309448242188
-3.7579345703125 -1.7853178977966309 -2.4020309448242188
