ply
format ascii 1.0
element vertex 859
property float x
property float y
property float z
end_header
-20.825098037719727 13.199926376342773 4.347532272338867
-21.77800941467285 13.19992446899414 4.4903483390808105
-26.48520851135254 14.635587692260742 5.335497856140137
-29.2711124420166 14.676447868347168 5.773719787597656
-32.60941696166992 13.199912071228027 6.203131198883057
-34.585811614990234 13.199904441833496 6.527470111846924
-39.23646545410156 13.19987678527832 7.299445152282715
-17.74608039855957 13.353185653686523 3.402263641357422
-18.294044494628906 13.199931144714355 3.455918550491333
-19.088581085205078 13.199930191040039 3.5553386211395264
-20.825092315673828 13.199926376342773 3.777175188064575
-21.77800750732422 13.19992446899414 3.9012553691864014
-22.79609489440918 13.199922561645508 4.0354437828063965
-23.887163162231445 13.199920654296875 4.1809282302856445
-25.060359954833984 13.199917793273926 4.339106559753418
-32.763641357421875 13.262340545654297 5.414824485778809
-34.74671936035156 13.26131534576416 5.697508335113525
-36.7812385559082 13.199881553649902 5.986541748046875
-42.00244140625 13.199870109558105 6.744801044464111
-18.379262924194336 13.26141357421875 2.9513397216796875
-19.178083419799805 13.261820793151855 3.03633713722229
-20.024694442749023 13.26225471496582 3.127673864364624
-21.882404327392578 13.263202667236328 3.332106351852417
-24.53898811340332 13.56011962890625 3.650920867919922
-25.06035804748535 13.199917793273926 3.6883976459503174
-26.950531005859375 13.512914657592773 3.9259581565856934
-27.697654724121094 13.199931144714355 3.995464324951172
-29.189359664916992 13.19992446899414 4.171657562255859
-30.819374084472656 13.199917793273926 4.365936756134033
-32.60942077636719 13.199912071228027 4.581131458282471
-34.74671936035156 13.26131534576416 4.843090534210205
-39.42427062988281 13.263084411621094 5.4165940284729
-38.941585540771484 -23.181381225585938 5.901495456695557
-18.379262924194336 13.26141357421875 2.4337122440338135
-19.17809295654297 13.261820793151855 2.503803253173828
-20.924142837524414 13.262714385986328 2.6602063179016113
-21.88240623474121 13.263202667236328 2.747697591781616
-22.90628433227539 13.263726234436035 2.842320442199707
-26.485187530517578 14.635586738586426 3.249393939971924
-29.742210388183594 14.174309730529785 3.537916898727417
-29.742198944091797 13.449926376342773 3.5051543712615967
-30.81934928894043 13.199917793273926 3.600205659866333
-32.60941696166992 13.199912071228027 3.7776591777801514
-34.58584213256836 13.199904441833496 3.975182294845581
-17.746078491210938 13.353185653686523 1.8800379037857056
-18.29404640197754 13.199931144714355 1.909685730934143
-19.930593490600586 13.199929237365723 2.0236551761627197
-20.825092315673828 13.199926376342773 2.087205410003662
-22.796092987060547 13.199922561645508 2.229921340942383
-29.27110481262207 14.676447868347168 2.771904945373535
-30.96728515625 13.26326847076416 2.8517906665802
-32.76364517211914 13.262340545654297 2.992144823074341
-17.746091842651367 13.353180885314941 1.3771754503250122
-18.294052124023438 13.199931144714355 1.3988935947418213
-19.08858299255371 13.199930191040039 1.4391359090805054
-22.796098709106445 13.199922561645508 1.6334736347198486
-23.88715362548828 13.199920654296875 1.6923631429672241
-27.697654724121094 13.199930191040039 1.9026145935058594
-30.819379806518555 13.199917793273926 2.0790321826934814
-32.60942077636719 13.199912071228027 2.1815054416656494
-36.95386505126953 13.261821746826172 2.434617519378662
-39.424278259277344 13.263084411621094 2.5793468952178955
-35.18995666503906 8.775436401367188 2.2489676475524902
-21.366024017333984 14.774799346923828 1.0242966413497925
-22.333974838256836 14.79167652130127 1.0562797784805298
-23.364715576171875 14.80965805053711 1.0907758474349976
-24.4693546295166 14.831183433532715 1.1282457113265991
-25.259225845336914 14.626178741455078 1.1509217023849487
-25.547164916992188 14.117233276367188 1.1509217023849487
-26.950531005859375 13.51291561126709 1.1887849569320679
-29.189348220825195 13.199925422668457 1.2631813287734985
-30.819374084472656 13.199917793273926 1.3220118284225464
-34.5858154296875 13.199904441833496 1.4597026109695435
-36.7812385559082 13.199881553649902 1.540888786315918
-42.00244903564453 13.199870109558105 1.7360572814941406
-20.121700286865234 15.140739440917969 0.42536574602127075
-21.360502243041992 14.77098274230957 0.4386824071407318
-24.08759307861328 15.267849922180176 0.48173201084136963
-26.48520851135254 14.635587692260742 0.5111616253852844
-31.596078872680664 15.057809829711914 0.5912205576896667
-37.18239974975586 15.92519474029541 0.6832594275474548
-38.70217514038086 14.77093505859375 0.6997410655021667
-43.920467376708984 14.775691032409668 0.782752513885498
-21.360511779785156 14.77098274230957 -0.14621764421463013
-23.020160675048828 15.246137619018555 -0.15545623004436493
-24.087587356567383 15.267849922180176 -0.16056609153747559
-25.228071212768555 15.291049003601074 -0.16609297692775726
-26.01338768005371 15.062875747680664 -0.16923949122428894
-37.182395935058594 15.92519474029541 -0.22773711383342743
-37.83530044555664 15.315286636352539 -0.22981064021587372
-38.702171325683594 14.77093505859375 -0.23323042690753937
-35.17905044555664 8.77271842956543 -0.2041303962469101
-41.53550720214844 -20.41387939453125 -0.2605705261230469
-39.91587829589844 -20.620752334594727 -0.2529512047767639
-20.543649673461914 14.823112487792969 -0.7133234739303589
-21.360502243041992 14.77098274230957 -0.7312636971473694
-26.01338768005371 15.062871932983398 -0.8464258909225464
-28.983251571655273 15.266209602355957 -0.9223906993865967
-30.3902530670166 15.237580299377441 -0.9572572112083435
-38.70216369628906 14.77093505859375 -1.1664385795593262
-42.52558517456055 15.261375427246094 -1.2721999883651733
-43.920467376708984 14.775691986083984 -1.3048198223114014
-35.1744270324707 8.771564483642578 -1.0207645893096924
-46.19850158691406 8.611473083496094 -1.3232522010803223
-41.04458999633789 -20.17262840270996 -1.2877651453018188
-39.60148620605469 -20.45833396911621 -1.255097508430481
-39.59405517578125 -21.470048904418945 -1.268241286277771
-39.712913513183594 -23.640520095825195 -1.3013607263565063
-23.02016830444336 15.246137619018555 -1.4002773761749268
-25.228078842163086 15.291049003601074 -1.4960904121398926
-26.01338768005371 15.062872886657715 -1.5244579315185547
-26.485206604003906 14.635587692260742 -1.534600853919983
-28.98325538635254 15.266209602355957 -1.66129732131958
-31.596078872680664 15.057809829711914 -1.7750353813171387
-36.43011474609375 16.474321365356445 -2.0276541709899902
-37.76729965209961 15.287764549255371 -2.0663094520568848
-38.70217514038086 14.77093505859375 -2.100844144821167
-25.31501007080078 8.516461372375488 -1.3545409440994263
-31.325841903686523 8.481884956359863 -1.645875096321106
-34.331565856933594 8.561380386352539 -1.7944189310073853
-43.8984260559082 6.375181198120117 -2.249630928039551
-46.999267578125 5.866728782653809 -2.4020309448242188
-47.10740280151367 4.924018859863281 -2.4020309448242188
-47.19654083251953 3.979332685470581 -2.4020309448242188
-47.26678466796875 3.033031463623047 -2.4020309448242188
-47.31806182861328 2.0855512619018555 -2.4020309448242188
-47.36360168457031 0.18842604756355286 -2.4020309448242188
-47.357879638671875 -0.7604499459266663 -2.4020309448242188
-47.33316421508789 -1.709036111831665 -2.4020309448242188
-47.2894287109375 -2.6568946838378906 -2.4020309448242188
-47.22671890258789 -3.603710174560547 -2.4020309448242188
-47.14503860473633 -4.549100399017334 -2.4020309448242188
-47.04444122314453 -5.492617607116699 -2.4020309448242188
-46.92496871948242 -6.4339423179626465 -2.4020309448242188
-43.6374397277832 -9.593307495117188 -2.265887498855591
-42.91348648071289 -11.253737449645996 -2.2499160766601562
-41.67644500732422 -12.734156608581543 -2.2100789546966553
-41.09868240356445 -14.381251335144043 -2.2082102298736572
-31.538393020629883 -12.475303649902344 -1.7200289964675903
-39.46555709838867 -18.42432975769043 -2.2088301181793213
-38.32469177246094 -19.798730850219727 -2.1876437664031982
-37.877933502197266 -21.532421112060547 -2.2096428871154785
-20.121694564819336 15.140738487243652 -1.8463860750198364
-20.543649673461914 14.823111534118652 -1.8574774265289307
-21.360504150390625 14.77098274230957 -1.9041938781738281
-23.366779327392578 14.810966491699219 -2.02848219871521
-24.469730377197266 14.831414222717285 -2.0980112552642822
-27.035701751708984 13.555621147155762 -2.217536211013794
-27.551116943359375 12.459090232849121 -2.2170634269714355
-20.833051681518555 8.432979583740234 -1.6479264497756958
-23.83054542541504 8.55219554901123 -1.856417179107666
-25.315011978149414 8.516463279724121 -1.9583709239959717
-29.471893310546875 8.617171287536621 -2.251417398452759
-30.435150146484375 6.306527137756348 -2.278975248336792
-32.507686614990234 4.057803630828857 -2.4020309448242188
-32.582420349121094 3.4057512283325195 -2.4020309448242188
-32.64414596557617 2.7523655891418457 -2.4020309448242188
-32.69280242919922 2.0978517532348633 -2.4020309448242188
-32.72819519042969 1.442500114440918 -2.4020309448242188
-32.75052261352539 0.7865678071975708 -2.4020309448242188
-32.75970458984375 0.13031966984272003 -2.4020309448242188
-32.73862838745117 -1.1820783615112305 -2.4020309448242188
-32.70838165283203 -1.8376778364181519 -2.4020309448242188
-32.6085205078125 -3.1464476585388184 -2.4020309448242188
-32.5389404296875 -3.7990386486053467 -2.4020309448242188
-32.456298828125 -4.450127124786377 -2.4020309448242188
-32.36064529418945 -5.0994391441345215 -2.4020309448242188
-31.995981216430664 -7.034021377563477 -2.4020309448242188
-31.848575592041016 -7.673584461212158 -2.4020309448242188
-31.688461303710938 -8.310056686401367 -2.4020309448242188
-31.515634536743164 -8.943196296691895 -2.4020309448242188
-29.38985824584961 -9.627668380737305 -2.2675912380218506
-28.5421142578125 -11.2900972366333 -2.2505462169647217
-27.816043853759766 -12.3132905960083 -2.2304272651672363
-27.44277572631836 -12.811545372009277 -2.2206344604492188
-26.93210792541504 -13.91325569152832 -2.2226614952087402
-26.649763107299805 -14.450945854187012 -2.2228097915649414
-26.3568115234375 -14.983020782470703 -2.2229702472686768
-11.825545310974121 8.532641410827637 -1.3999994993209839
-19.063079833984375 13.182295799255371 -2.225109815597534
-19.32126235961914 12.796375274658203 -2.224870443344116
-13.319244384765625 8.442376136779785 -1.5139446258544922
-19.81429100036621 12.009696960449219 -2.2244136333465576
-15.353290557861328 8.484152793884277 -1.6840707063674927
-20.494047164916992 10.794683456420898 -2.2237706184387207
-17.806438446044922 8.486054420471191 -1.8937084674835205
-21.91683006286621 8.364700317382812 -2.2521634101867676
-22.211898803710938 7.472512245178223 -2.2498936653137207
-22.355602264404297 7.025571346282959 -2.2497398853302
-22.491029739379883 6.576055526733398 -2.2496538162231445
-23.206729888916016 6.283524513244629 -2.30818510055542
-24.392675399780273 5.566362380981445 -2.4020309448242188
-24.596216201782227 4.584773540496826 -2.4020309448242188
-24.68312644958496 4.0911054611206055 -2.4020309448242188
-24.884368896484375 2.6010961532592773 -2.4020309448242188
-24.99557876586914 1.1016840934753418 -2.4020309448242188
-25.01266098022461 0.6007276773452759 -2.4020309448242188
-25.0196475982666 0.0995289608836174 -2.4020309448242188
-25.016618728637695 -0.4017086625099182 -2.4020309448242188
-25.003576278686523 -0.9027925133705139 -2.4020309448242188
-24.980445861816406 -1.4034936428070068 -2.4020309448242188
-24.9041748046875 -2.403043746948242 -2.4020309448242188
-24.851064682006836 -2.901451587677002 -2.4020309448242188
-24.714895248413086 -3.894604444503784 -2.4020309448242188
-24.63188934326172 -4.388930797576904 -2.4020309448242188
-24.201454162597656 -6.346655368804932 -2.4020309448242188
-24.069528579711914 -6.830215930938721 -2.4020309448242188
-23.927846908569336 -7.311014652252197 -2.4020309448242188
-23.26579475402832 -9.20300006866455 -2.4020309448242188
-22.965377807617188 -9.620555877685547 -2.3904356956481934
-21.232812881469727 -9.91244888305664 -2.2496495246887207
-21.03072166442871 -10.336177825927734 -2.2497305870056152
-20.120275497436523 -11.97731876373291 -2.2479982376098633
-11.265165328979492 8.476574897766113 -1.6746543645858765
-11.825543403625488 8.532633781433105 -1.7322008609771729
-15.43111515045166 10.670755386352539 -2.2285714149475098
-15.66294002532959 10.373554229736328 -2.2315988540649414
-13.319244384765625 8.442375183105469 -1.8731883764266968
-16.3957462310791 9.49384593963623 -2.250526189804077
-16.95273780822754 8.500053405761719 -2.2526962757110596
-17.694093704223633 6.753085613250732 -2.249689817428589
-17.825410842895508 6.397096633911133 -2.249630928039551
-18.629873275756836 6.267449855804443 -2.3348398208618164
-19.518688201904297 5.284940719604492 -2.4020309448242188
-19.620643615722656 4.89286470413208 -2.4020309448242188
-19.714717864990234 4.498832702636719 -2.4020309448242188
-19.87911033630371 3.7054972648620605 -2.4020309448242188
-19.949352264404297 3.3065061569213867 -2.4020309448242188
-20.01158905029297 2.906198024749756 -2.4020309448242188
-20.06563377380371 2.5047154426574707 -2.4020309448242188
-20.112016677856445 2.10225510597229 -2.4020309448242188
-20.180011749267578 1.2949161529541016 -2.4020309448242188
-20.201904296875 0.8904029726982117 -2.4020309448242188
-20.215682983398438 0.48552533984184265 -2.4020309448242188
-20.218908309936523 -0.3246661424636841 -2.4020309448242188
-20.20834732055664 -0.7296514511108398 -2.4020309448242188
-20.189674377441406 -1.13433039188385 -2.4020309448242188
-20.16290283203125 -1.5385619401931763 -2.4020309448242188
-20.034076690673828 -2.746899127960205 -2.4020309448242188
-19.975027084350586 -3.147695302963257 -2.4020309448242188
-19.907962799072266 -3.547217607498169 -2.4020309448242188
-19.832902908325195 -3.945326566696167 -2.4020309448242188
-19.74989128112793 -4.341842174530029 -2.4020309448242188
-19.658945083618164 -4.7366204261779785 -2.4020309448242188
-19.56011199951172 -5.129491329193115 -2.4020309448242188
-19.08672332763672 -6.678827285766602 -2.4020309448242188
-18.803861618041992 -7.438041687011719 -2.4020309448242188
-18.651090621948242 -7.813232421875 -2.4020309448242188
-18.49081802368164 -8.185304641723633 -2.4020309448242188
-18.323137283325195 -8.55408000946045 -2.4020309448242188
-18.148099899291992 -8.91943073272705 -2.4020309448242188
-17.761837005615234 -9.63143253326416 -2.4000847339630127
-16.27341079711914 -9.687326431274414 -2.249630928039551
-12.69282341003418 9.550806999206543 -2.2507002353668213
-11.825543403625488 8.532635688781738 -2.066187620162964
-13.07164192199707 9.039162635803223 -2.25180983543396
-13.253448486328125 8.777692794799805 -2.252377986907959
-13.43006420135498 8.51261043548584 -2.2529544830322266
-13.595904350280762 8.240650177001953 -2.252624273300171
-13.753929138183594 7.964118480682373 -2.2519145011901855
-13.90628433227539 7.684544563293457 -2.251197576522827
-14.052922248840332 7.4020280838012695 -2.250473976135254
-14.193882942199707 7.116771697998047 -2.2497611045837402
-14.33322811126709 6.830831050872803 -2.249706268310547
-14.46688461303711 6.5421624183654785 -2.2496509552001953
-15.451555252075195 6.25469970703125 -2.3619182109832764
-15.838472366333008 6.044856548309326 -2.4020309448242188
-15.956393241882324 5.726351261138916 -2.4020309448242188
-16.172964096069336 5.082587242126465 -2.4020309448242188
-16.36357879638672 4.430657386779785 -2.4020309448242188
-16.449052810668945 4.101956844329834 -2.4020309448242188
-16.527923583984375 3.771617889404297 -2.4020309448242188
-16.60016632080078 3.439754009246826 -2.4020309448242188
-16.665740966796875 3.106520414352417 -2.4020309448242188
-16.72463035583496 2.7720251083374023 -2.4020309448242188
-16.822309494018555 2.0998589992523193 -2.4020309448242188
-16.918006896972656 1.0855997800827026 -2.4020309448242188
-16.936365127563477 0.7464683651924133 -2.4020309448242188
-16.95266342163086 0.06743942201137543 -2.4020309448242188
-16.95061683654785 -0.2721879482269287 -2.4020309448242188
-16.941761016845703 -0.6117085218429565 -2.4020309448242188
-16.87440299987793 -1.6282401084899902 -2.4020309448242188
-16.746156692504883 -2.6388838291168213 -2.4020309448242188
-16.689931869506836 -2.9738261699676514 -2.4020309448242188
-16.62700653076172 -3.3075859546661377 -2.4020309448242188
-16.39830780029297 -4.300332546234131 -2.4020309448242188
-15.764304161071777 -6.235715866088867 -2.4020309448242188
-15.636226654052734 -6.550259113311768 -2.4020309448242188
-15.501864433288574 -6.862188339233398 -2.4020309448242188
-15.361287117004395 -7.171352386474609 -2.4020309448242188
-15.2145414352417 -7.477644443511963 -2.4020309448242188
-15.061685562133789 -7.780943870544434 -2.4020309448242188
-14.737907409667969 -8.378037452697754 -2.4020309448242188
-10.927176475524902 8.222246170043945 -2.2528257369995117
-11.086870193481445 7.999650478363037 -2.252251386642456
-11.241991996765137 7.773942470550537 -2.2516696453094482
-11.39249324798584 7.545193195343018 -2.2510809898376465
-11.679375648498535 7.079023361206055 -2.249882459640503
-11.817940711975098 6.843094348907471 -2.2497098445892334
-11.952428817749023 6.604841232299805 -2.249664068222046
-12.082133293151855 6.3639702796936035 -2.249630928039551
-12.482823371887207 6.258862018585205 -2.300427198410034
-13.40325927734375 5.740581035614014 -2.4020309448242188
-13.622393608093262 5.199075698852539 -2.4020309448242188
-13.994868278503418 4.091904163360596 -2.4020309448242188
-14.074030876159668 3.810728073120117 -2.4020309448242188
-14.384566307067871 2.3841705322265625 -2.4020309448242188
-14.429441452026367 2.0955262184143066 -2.4020309448242188
-14.501797676086426 1.515837550163269 -2.4020309448242188
-14.529266357421875 1.2250193357467651 -2.4020309448242188
-14.550882339477539 0.9337064623832703 -2.4020309448242188
-14.566667556762695 0.642027735710144 -2.4020309448242188
-14.576605796813965 0.350085586309433 -2.4020309448242188
-14.57893180847168 -0.23410369455814362 -2.4020309448242188
-14.557852745056152 -0.8179136514663696 -2.4020309448242188
-14.513402938842773 -1.400421380996704 -2.4020309448242188
-14.482440948486328 -1.6908766031265259 -2.4020309448242188
-14.403082847595215 -2.2696588039398193 -2.4020309448242188
-14.300600051879883 -2.8447978496551514 -2.4020309448242188
-14.240741729736328 -3.13070011138916 -2.4020309448242188
-14.175176620483398 -3.4153616428375244 -2.4020309448242188
-14.103903770446777 -3.698641300201416 -2.4020309448242188
-13.856271743774414 -4.539134979248047 -2.4020309448242188
-13.762561798095703 -4.815798282623291 -2.4020309448242188
-13.663326263427734 -5.090535640716553 -2.4020309448242188
-13.558774948120117 -5.363246440887451 -2.4020309448242188
-13.3328857421875 -5.902048587799072 -2.4020309448242188
-13.211976051330566 -6.16795539855957 -2.4020309448242188
-12.817636489868164 -6.950419902801514 -2.4020309448242188
-12.528922080993652 -7.458287715911865 -2.4020309448242188
-9.566774368286133 7.1986002922058105 -2.2503790855407715
-9.706897735595703 7.003940105438232 -2.2498769760131836
-9.844505310058594 6.807558059692383 -2.249703884124756
-10.109065055847168 6.407537460327148 -2.249630928039551
-10.326874732971191 6.259291648864746 -2.269773006439209
-11.306833267211914 5.955593109130859 -2.4020309448242188
-11.423762321472168 5.727895259857178 -2.4020309448242188
-11.64411449432373 5.265681266784668 -2.4020309448242188
-11.747299194335938 5.031359672546387 -2.4020309448242188
-11.84573745727539 4.795016288757324 -2.4020309448242188
-12.028300285339355 4.316661357879639 -2.4020309448242188
-12.112359046936035 4.074832439422607 -2.4020309448242188
-12.191558837890625 3.831374406814575 -2.4020309448242188
-12.265867233276367 3.586369037628174 -2.4020309448242188
-12.33525276184082 3.339935302734375 -2.4020309448242188
-12.459219932556152 2.8431408405303955 -2.4020309448242188
-12.513593673706055 2.5929667949676514 -2.4020309448242188
-12.646759986877441 1.836634635925293 -2.4020309448242188
-12.71018123626709 1.3285609483718872 -2.4020309448242188
-12.734236717224121 1.0736771821975708 -2.4020309448242188
-12.767041206359863 0.56270432472229 -2.4020309448242188
-12.77573013305664 0.30683761835098267 -2.4020309448242188
-12.779298782348633 0.05084029957652092 -2.4020309448242188
-12.77774715423584 -0.20517714321613312 -2.4020309448242188
-12.74238395690918 -0.9723278880119324 -2.4020309448242188
-12.660951614379883 -1.7359625101089478 -2.4020309448242188
-12.581265449523926 -2.2417407035827637 -2.4020309448242188
-12.481372833251953 -2.7439215183258057 -2.4020309448242188
-12.361432075500488 -3.241691827774048 -2.4020309448242188
-12.294018745422363 -3.4886767864227295 -2.4020309448242188
-12.144402503967285 -3.978349447250366 -2.4020309448242188
-12.06226921081543 -4.22083044052124 -2.4020309448242188
-11.975286483764648 -4.4616241455078125 -2.4020309448242188
-11.883509635925293 -4.700631618499756 -2.4020309448242188
-11.579691886901855 -5.405935764312744 -2.4020309448242188
-11.353888511657715 -5.865462303161621 -2.4020309448242188
-11.233953475952148 -6.09171724319458 -2.4020309448242188
-11.10977840423584 -6.315561771392822 -2.4020309448242188
-10.981033325195312 -6.536854267120361 -2.4020309448242188
-9.03318977355957 6.246561050415039 -2.321512460708618
-9.414779663085938 6.235365390777588 -2.3869833946228027
-9.717827796936035 5.8901286125183105 -2.4020309448242188
-9.833948135375977 5.694268226623535 -2.4020309448242188
-10.258197784423828 4.888772964477539 -2.4020309448242188
-10.9069185256958 3.1890318393707275 -2.4020309448242188
-11.078767776489258 2.528139352798462 -2.4020309448242188
-11.127202987670898 2.305689573287964 -2.4020309448242188
-11.24560260772705 1.6331537961959839 -2.4020309448242188
-11.276063919067383 1.4075459241867065 -2.4020309448242188
-11.301998138427734 1.18136727809906 -2.4020309448242188
-11.340238571166992 0.7276878356933594 -2.4020309448242188
-11.36212158203125 -0.18245071172714233 -2.4020309448242188
-11.356168746948242 -0.41003143787384033 -2.4020309448242188
-11.34567928314209 -0.6374419927597046 -2.4020309448242188
-11.311037063598633 -1.0914198160171509 -2.4020309448242188
-11.286904335021973 -1.3177868127822876 -2.4020309448242188
-11.258218765258789 -1.5436325073242188 -2.4020309448242188
-11.225049018859863 -1.7688612937927246 -2.4020309448242188
-11.145200729370117 -2.2170968055725098 -2.4020309448242188
-11.098559379577637 -2.439917802810669 -2.4020309448242188
-11.047436714172363 -2.6617650985717773 -2.4020309448242188
-10.991896629333496 -2.8825414180755615 -2.4020309448242188
-10.93194580078125 -3.1021602153778076 -2.4020309448242188
-10.867610931396484 -3.3205296993255615 -2.4020309448242188
-10.725873947143555 -3.7531981468200684 -2.4020309448242188
-10.566917419433594 -4.179841041564941 -2.4020309448242188
-10.296773910522461 -4.807004928588867 -2.4020309448242188
-10.198407173156738 -5.012320518493652 -2.4020309448242188
-10.095947265625 -5.21561861038208 -2.4020309448242188
-9.878960609436035 -5.61585807800293 -2.4020309448242188
-9.764521598815918 -5.812635898590088 -2.4020309448242188
-8.288146018981934 5.980248928070068 -2.4020309448242188
-8.521010398864746 5.643446922302246 -2.4020309448242188
-8.632343292236328 5.471619606018066 -2.4020309448242188
-9.042702674865723 4.763018608093262 -2.4020309448242188
-9.136297225952148 4.5809149742126465 -2.4020309448242188
-9.226236343383789 4.396966934204102 -2.4020309448242188
-9.312466621398926 4.211258411407471 -2.4020309448242188
-9.394963264465332 4.0238566398620605 -2.4020309448242188
-9.68692684173584 3.2588682174682617 -2.4020309448242188
-9.750266075134277 3.0641605854034424 -2.4020309448242188
-9.809694290161133 2.8682169914245605 -2.4020309448242188
-9.964278221130371 2.273812770843506 -2.4020309448242188
-10.007822036743164 2.073740005493164 -2.4020309448242188
-10.08285140991211 1.67118239402771 -2.4020309448242188
-10.165027618408203 1.062523365020752 -2.4020309448242188
-10.184273719787598 0.8586793541908264 -2.4020309448242188
-10.199433326721191 0.6544807553291321 -2.4020309448242188
-10.21049690246582 0.4500291347503662 -2.4020309448242188
-10.220328330993652 0.04065689072012901 -2.4020309448242188
-10.213754653930664 -0.36878326535224915 -2.4020309448242188
-10.204313278198242 -0.5733155608177185 -2.4020309448242188
-10.095858573913574 -1.5909157991409302 -2.4020309448242188
-10.061861038208008 -1.7928439378738403 -2.4020309448242188
-10.02400016784668 -1.9940567016601562 -2.4020309448242188
-9.982037544250488 -2.1944618225097656 -2.4020309448242188
-9.936070442199707 -2.3939943313598633 -2.4020309448242188
-9.886123657226562 -2.592560291290283 -2.4020309448242188
-9.832202911376953 -2.790086507797241 -2.4020309448242188
-9.712547302246094 -3.1817047595977783 -2.4020309448242188
-9.503898620605469 -3.7593538761138916 -2.4020309448242188
-9.260927200317383 -4.323424816131592 -2.4020309448242188
-9.172459602355957 -4.508086204528809 -2.4020309448242188
-9.080310821533203 -4.6909308433532715 -2.4020309448242188
-8.88510799407959 -5.050905704498291 -2.4020309448242188
-8.78214168548584 -5.227882385253906 -2.4020309448242188
-7.412971496582031 5.577973365783691 -2.4020309448242188
-7.630887985229492 5.27655553817749 -2.4020309448242188
-7.835727214813232 4.966655254364014 -2.4020309448242188
-7.933653831481934 4.808690071105957 -2.4020309448242188
-8.208170890808105 4.323451042175293 -2.4020309448242188
-8.293142318725586 4.1581549644470215 -2.4020309448242188
-8.599390983581543 3.48093318939209 -2.4020309448242188
-8.667390823364258 3.3079674243927 -2.4020309448242188
-8.850443840026855 2.7813799381256104 -2.4020309448242188
-8.904375076293945 2.603516101837158 -2.4020309448242188
-8.954754829406738 2.424618721008301 -2.4020309448242188
-9.001524925231934 2.244741678237915 -2.4020309448242188
-9.044692039489746 2.0639679431915283 -2.4020309448242188
-9.152334213256836 1.5169541835784912 -2.4020309448242188
-9.180888175964355 1.3333009481430054 -2.4020309448242188
-9.205756187438965 1.1491175889968872 -2.4020309448242188
-9.226923942565918 0.9644675850868225 -2.4020309448242188
-9.244391441345215 0.7794337272644043 -2.4020309448242188
-9.258157730102539 0.5940803289413452 -2.4020309448242188
-9.274557113647461 0.22274062037467957 -2.4020309448242188
-9.27599811553955 -0.14895080029964447 -2.4020309448242188
-9.271162033081055 -0.33475005626678467 -2.4020309448242188
-9.262585639953613 -0.5204060077667236 -2.4020309448242188
-9.2503080368042 -0.7058594822883606 -2.4020309448242188
-9.214606285095215 -1.075838327407837 -2.4020309448242188
-9.191205024719238 -1.2602183818817139 -2.4020309448242188
-9.164113998413086 -1.4440946578979492 -2.4020309448242188
-9.09891128540039 -1.8100332021713257 -2.4020309448242188
-9.060843467712402 -1.9919437170028687 -2.4020309448242188
-8.924818992614746 -2.532597541809082 -2.4020309448242188
-8.872289657592773 -2.710876703262329 -2.4020309448242188
-8.816206932067871 -2.8880748748779297 -2.4020309448242188
-8.756583213806152 -3.064103364944458 -2.4020309448242188
-8.693442344665527 -3.238908529281616 -2.4020309448242188
-8.626812934875488 -3.4124138355255127 -2.4020309448242188
-8.556714057922363 -3.5845415592193604 -2.4020309448242188
-8.406259536743164 -3.9244279861450195 -2.4020309448242188
-8.325959205627441 -4.092048168182373 -2.4020309448242188
-8.242310523986816 -4.258018493652344 -2.4020309448242188
-8.155351638793945 -4.422276496887207 -2.4020309448242188
-8.0651216506958 -4.584769248962402 -2.4020309448242188
-6.779962062835693 5.101637363433838 -2.4020309448242188
-7.166591167449951 4.542525768280029 -2.4020309448242188
-7.2561492919921875 4.398047924041748 -2.4020309448242188
-7.342804431915283 4.2517991065979 -2.4020309448242188
-7.426501750946045 4.103850841522217 -2.4020309448242188
-7.659594535827637 3.6503491401672363 -2.4020309448242188
-7.865035057067871 3.183673620223999 -2.4020309448242188
-8.042064666748047 2.705509662628174 -2.4020309448242188
-8.341287612915039 1.5548288822174072 -2.4020309448242188
-8.370762825012207 1.3874115943908691 -2.4020309448242188
-8.396876335144043 1.21944260597229 -2.4020309448242188
-8.419617652893066 1.050987720489502 -2.4020309448242188
-8.454960823059082 0.7128733396530151 -2.4020309448242188
-8.467547416687012 0.5433482527732849 -2.4020309448242188
-8.476777076721191 0.373606413602829 -2.4020309448242188
-8.483857154846191 -0.136230930685997 -2.4020309448242188
-8.479434967041016 -0.30616286396980286 -2.4020309448242188
-8.471592903137207 -0.4759652614593506 -2.4020309448242188
-8.460366249084473 -0.6455817818641663 -2.4020309448242188
-8.44572639465332 -0.81494140625 -2.4020309448242188
-8.40631103515625 -1.152600646018982 -2.4020309448242188
-8.381535530090332 -1.320774793624878 -2.4020309448242188
-8.287066459655762 -1.821837306022644 -2.4020309448242188
-8.248913764953613 -1.9874883890151978 -2.4020309448242188
-8.207436561584473 -2.1523377895355225 -2.4020309448242188
-8.162671089172363 -2.3163232803344727 -2.4020309448242188
-8.114625930786133 -2.479376792907715 -2.4020309448242188
-8.063332557678223 -2.6414434909820557 -2.4020309448242188
-8.008801460266113 -2.8024401664733887 -2.4020309448242188
-7.951052665710449 -2.962317943572998 -2.4020309448242188
-7.890113353729248 -3.121006727218628 -2.4020309448242188
-7.8260016441345215 -3.2784340381622314 -2.4020309448242188
-7.758759498596191 -3.434558868408203 -2.4020309448242188
-7.61494255065918 -3.742598295211792 -2.4020309448242188
-7.290907859802246 -4.340171813964844 -2.4020309448242188
-6.24022102355957 4.695504665374756 -2.4020309448242188
-6.678501605987549 4.04792594909668 -2.4020309448242188
-6.835294246673584 3.777150869369507 -2.4020309448242188
-6.90959358215332 3.6394567489624023 -2.4020309448242188
-7.049834251403809 3.359755277633667 -2.4020309448242188
-7.115724563598633 3.2178525924682617 -2.4020309448242188
-7.178759574890137 3.074658155441284 -2.4020309448242188
-7.238914489746094 2.9302282333374023 -2.4020309448242188
-7.401852130889893 2.490125894546509 -2.4020309448242188
-7.450249671936035 2.341348648071289 -2.4020309448242188
-7.495645999908447 2.191624641418457 -2.4020309448242188
-7.53805685043335 2.041027545928955 -2.4020309448242188
-7.577434539794922 1.8896100521087646 -2.4020309448242188
-7.677253723144531 1.43105149269104 -2.4020309448242188
-7.749350547790527 0.9673203825950623 -2.4020309448242188
-7.781878471374512 0.6561228632926941 -2.4020309448242188
-7.793463706970215 0.5000932216644287 -2.4020309448242188
-7.801915645599365 0.34387069940567017 -2.4020309448242188
-7.8072404861450195 0.18750594556331635 -2.4020309448242188
-7.80848503112793 -0.1253863424062729 -2.4020309448242188
-7.804401874542236 -0.28178924322128296 -2.4020309448242188
-7.773386478424072 -0.7500666379928589 -2.4020309448242188
-7.714297771453857 -1.2156304121017456 -2.4020309448242188
-7.659409523010254 -1.523673176765442 -2.4020309448242188
-7.627372741699219 -1.6768065690994263 -2.4020309448242188
-7.592228889465332 -1.8292688131332397 -2.4020309448242188
-7.554075241088867 -1.980994701385498 -2.4020309448242188
-7.512859344482422 -2.1319258213043213 -2.4020309448242188
-7.468637943267822 -2.281996965408325 -2.4020309448242188
-7.421432971954346 -2.431163787841797 -2.4020309448242188
-7.141103267669678 -3.1611413955688477 -2.4020309448242188
-7.076342582702637 -3.303560733795166 -2.4020309448242188
-6.8651323318481445 -3.722646474838257 -2.4020309448242188
-6.710495471954346 -3.994662284851074 -2.4020309448242188
-5.860018730163574 4.228256702423096 -2.4020309448242188
-6.253487586975098 3.621039390563965 -2.4020309448242188
-6.393521785736084 3.367628812789917 -2.4020309448242188
-6.459700584411621 3.238875150680542 -2.4020309448242188
-6.69824743270874 2.7113707065582275 -2.4020309448242188
-6.84901237487793 2.304140329360962 -2.4020309448242188
-6.93581485748291 2.027935266494751 -2.4020309448242188
-7.151186943054199 1.038536787033081 -2.4020309448242188
-7.18704891204834 0.7512431144714355 -2.4020309448242188
-7.211374759674072 0.4627418518066406 -2.4020309448242188
-7.2192063331604 0.3181861937046051 -2.4020309448242188
-7.224123477935791 0.173501119017601 -2.4020309448242188
-7.214828968048096 -0.40535566210746765 -2.4020309448242188
-7.205259799957275 -0.549808919429779 -2.4020309448242188
-7.177453517913818 -0.8379934430122375 -2.4020309448242188
-7.159224033355713 -0.9816107153892517 -2.4020309448242188
-7.114155292510986 -1.2676063776016235 -2.4020309448242188
-7.057662010192871 -1.55156672000885 -2.4020309448242188
-6.989851951599121 -1.8330351114273071 -2.4020309448242188
-6.910815238952637 -2.1115562915802 -2.4020309448242188
-6.77150297164917 -2.5228538513183594 -2.4020309448242188
-6.665011405944824 -2.792076349258423 -2.4020309448242188
-6.607736587524414 -2.925037145614624 -2.4020309448242188
-6.547817230224609 -3.0568203926086426 -2.4020309448242188
-6.2820963859558105 -3.5711755752563477 -2.4020309448242188
-6.209298610687256 -3.6963067054748535 -2.4020309448242188
-5.367225646972656 4.038609504699707 -2.4020309448242188
-5.6001152992248535 3.708930015563965 -2.4020309448242188
-5.673290729522705 3.596001625061035 -2.4020309448242188
-5.744195461273193 3.481631278991699 -2.4020309448242188
-5.812784194946289 3.3658549785614014 -2.4020309448242188
-5.942949295043945 3.130302667617798 -2.4020309448242188
-6.004465103149414 3.0106217861175537 -2.4020309448242188
-6.120244026184082 2.767681121826172 -2.4020309448242188
-6.174461364746094 2.6445202827453613 -2.4020309448242188
-6.2754364013671875 2.3950605392456055 -2.4020309448242188
-6.366344928741455 2.1417603492736816 -2.4020309448242188
-6.407955646514893 2.01379656791687 -2.4020309448242188
-6.4835028648376465 1.7554923295974731 -2.4020309448242188
-6.517362594604492 1.625255823135376 -2.4020309448242188
-6.626548767089844 1.0983173847198486 -2.4020309448242188
-6.680561542510986 0.6983015537261963 -2.4020309448242188
-6.693202495574951 0.5643324255943298 -2.4020309448242188
-6.716085433959961 -0.10784469544887543 -2.4020309448242188
-6.706377029418945 -0.3767889440059662 -2.4020309448242188
-6.671638488769531 -0.778937816619873 -2.4020309448242188
-6.654694557189941 -0.9124342203140259 -2.4020309448242188
-6.635081768035889 -1.0455659627914429 -2.4020309448242188
-6.587871074676514 -1.3105155229568481 -2.4020309448242188
-6.4237847328186035 -1.9627517461776733 -2.4020309448242188
-6.3831787109375 -2.0910470485687256 -2.4020309448242188
-6.294295310974121 -2.3450605869293213 -2.4020309448242188
-6.195308208465576 -2.595310688018799 -2.4020309448242188
-6.028229713439941 -2.9627575874328613 -2.4020309448242188
-5.967665672302246 -3.0829262733459473 -2.4020309448242188
-5.839383602142334 -3.319502592086792 -2.4020309448242188
-5.771708965301514 -3.435816526412964 -2.4020309448242188
-5.155472278594971 3.565054178237915 -2.4020309448242188
-5.294139862060547 3.3556785583496094 -2.4020309448242188
-5.545778751373291 2.9211010932922363 -2.4020309448242188
-5.71122407913208 2.5827136039733887 -2.4020309448242188
-5.761818885803223 2.467782974243164 -2.4020309448242188
-5.899638652801514 2.117236852645874 -2.4020309448242188
-5.940870761871338 1.9986246824264526 -2.4020309448242188
-5.97971773147583 1.8792130947113037 -2.4020309448242188
-6.016165733337402 1.7590430974960327 -2.4020309448242188
-6.050199031829834 1.6381711959838867 -2.4020309448242188
-6.081801414489746 1.5166401863098145 -2.4020309448242188
-6.110962867736816 1.3945014476776123 -2.4020309448242188
-6.137673854827881 1.2717994451522827 -2.4020309448242188
-6.161917686462402 1.148591160774231 -2.4020309448242188
-6.219784259796143 0.7763904929161072 -2.4020309448242188
-6.234091281890869 0.6516328454017639 -2.4020309448242188
-6.255188465118408 0.4013853371143341 -2.4020309448242188
-6.261974811553955 0.27599745988845825 -2.4020309448242188
-6.249885559082031 -0.47690749168395996 -2.4020309448242188
-6.225764751434326 -0.7268801927566528 -2.4020309448242188
-6.209954738616943 -0.8514549136161804 -2.4020309448242188
-6.170861721038818 -1.0995293855667114 -2.4020309448242188
-6.121864318847656 -1.3458373546600342 -2.4020309448242188
-6.09367561340332 -1.4682079553604126 -2.4020309448242188
-6.063038349151611 -1.5899860858917236 -2.4020309448242188
-6.029969215393066 -1.7111265659332275 -2.4020309448242188
-5.994481086730957 -1.8315790891647339 -2.4020309448242188
-5.956611156463623 -1.951301097869873 -2.4020309448242188
-5.8736443519592285 -2.188338279724121 -2.4020309448242188
-5.828625202178955 -2.3055660724639893 -2.4020309448242188
-5.781271934509277 -2.421863555908203 -2.4020309448242188
-5.679615497589111 -2.6515045166015625 -2.4020309448242188
-5.6253557205200195 -2.764754056930542 -2.4020309448242188
-5.51009464263916 -2.987870693206787 -2.4020309448242188
-4.68965482711792 3.5287699699401855 -2.4020309448242188
-4.893146991729736 3.2407066822052 -2.4020309448242188
-4.957086086273193 3.1420342922210693 -2.4020309448242188
-5.078969478607178 2.94094181060791 -2.4020309448242188
-5.192702293395996 2.735126256942749 -2.4020309448242188
-5.246451377868652 2.630554676055908 -2.4020309448242188
-5.440188407897949 2.2021265029907227 -2.4020309448242188
-5.524033069610596 1.9824399948120117 -2.4020309448242188
-5.562642574310303 1.8713804483413696 -2.4020309448242188
-5.5990166664123535 1.7595713138580322 -2.4020309448242188
-5.63314151763916 1.6470518112182617 -2.4020309448242188
-5.665006160736084 1.533875584602356 -2.4020309448242188
-5.769614219665527 1.0754649639129639 -2.4020309448242188
-5.82379674911499 0.7269605994224548 -2.4020309448242188
-5.837166786193848 0.6101493835449219 -2.4020309448242188
-5.848287105560303 0.4930839538574219 -2.4020309448242188
-5.86330509185791 0.25842514634132385 -2.4020309448242188
-5.867303848266602 0.1409141570329666 -2.4020309448242188
-5.868951320648193 0.023345947265625 -2.4020309448242188
-5.86823844909668 -0.09423080086708069 -2.4020309448242188
-5.865170001983643 -0.2117709368467331 -2.4020309448242188
-5.8519792556762695 -0.4465443193912506 -2.4020309448242188
-5.841859817504883 -0.5636903047561646 -2.4020309448242188
-5.814591407775879 -0.7972462177276611 -2.4020309448242188
-5.777987480163574 -1.0295265913009644 -2.4020309448242188
-5.705717086791992 -1.3747332096099854 -2.4020309448242188
-5.646067142486572 -1.602185606956482 -2.4020309448242188
-5.577353477478027 -1.8270694017410278 -2.4020309448242188
-5.539649486541748 -1.9384294748306274 -2.4020309448242188
-5.413200378417969 -2.2676734924316406 -2.4020309448242188
-5.366692543029785 -2.375661849975586 -2.4020309448242188
-5.318025588989258 -2.4826934337615967 -2.4020309448242188
-5.214297294616699 -2.6937320232391357 -2.4020309448242188
-5.102205276489258 -2.9004440307617188 -2.4020309448242188
-5.04307746887207 -3.00207257270813 -2.4020309448242188
-4.469550609588623 3.2249701023101807 -2.4020309448242188
-4.7133684158325195 2.856832265853882 -2.4020309448242188
-4.975462436676025 2.371155261993408 -2.4020309448242188
-5.021933555603027 2.271005630493164 -2.4020309448242188
-5.187619686126709 1.8617075681686401 -2.4020309448242188
-5.223870754241943 1.7574106454849243 -2.4020309448242188
-5.258028030395508 1.6524107456207275 -2.4020309448242188
-5.290076732635498 1.5467442274093628 -2.4020309448242188
-5.396915912628174 1.1183054447174072 -2.4020309448242188
-5.469117164611816 0.6826881170272827 -2.4020309448242188
-5.481698036193848 0.572986900806427 -2.4020309448242188
-5.4920806884765625 0.4630592167377472 -2.4020309448242188
-5.500253677368164 0.3529411256313324 -2.4020309448242188
-5.506218910217285 0.2426869124174118 -2.4020309448242188
-5.5099778175354 0.13233231008052826 -2.4020309448242188
-5.507972717285156 -0.19887389242649078 -2.4020309448242188
-5.502882480621338 -0.30917221307754517 -2.4020309448242188
-5.495585918426514 -0.41934934258461 -2.4020309448242188
-5.486082553863525 -0.5293607711791992 -2.4020309448242188
-5.4743757247924805 -0.6391529440879822 -2.4020309448242188
-5.46047306060791 -0.7486926317214966 -2.4020309448242188
-5.4443817138671875 -0.857933759689331 -2.4020309448242188
-5.405642032623291 -1.0753350257873535 -2.4020309448242188
-5.383016109466553 -1.1834090948104858 -2.4020309448242188
-5.3582305908203125 -1.2910101413726807 -2.4020309448242188
-5.331289768218994 -1.3980903625488281 -2.4020309448242188
-5.302211761474609 -1.5046099424362183 -2.4020309448242188
-5.0398430824279785 -2.230980396270752 -2.4020309448242188
-4.946426868438721 -2.4310755729675293 -2.4020309448242188
-4.896736145019531 -2.529679775238037 -2.4020309448242188
-4.791473388671875 -2.723801612854004 -2.4020309448242188
-4.7359466552734375 -2.8192410469055176 -2.4020309448242188
-4.268166542053223 2.95147442817688 -2.4020309448242188
-4.382968425750732 2.7781341075897217 -2.4020309448242188
-4.437746047973633 2.6897735595703125 -2.4020309448242188
-4.591297626495361 2.4183521270751953 -2.4020309448242188
-4.728270053863525 2.13820481300354 -2.4020309448242188
-4.810127258300781 1.947082281112671 -2.4020309448242188
-4.884260177612305 1.7528388500213623 -2.4020309448242188
-4.918393611907959 1.6546427011489868 -2.4020309448242188
-4.95054817199707 1.5557841062545776 -2.4020309448242188
-4.980730056762695 1.4562950134277344 -2.4020309448242188
-5.008904933929443 1.3562257289886475 -2.4020309448242188
-5.05920934677124 1.154495120048523 -2.4020309448242188
-5.0813093185424805 1.052912712097168 -2.4020309448242188
-5.1013946533203125 0.9509074091911316 -2.4020309448242188
-5.119422435760498 0.8485181927680969 -2.4020309448242188
-5.170914173126221 0.4359816014766693 -2.4020309448242188
-5.178613662719727 0.332302987575531 -2.4020309448242188
-5.189220428466797 0.020643005147576332 -2.4020309448242188
-5.188593864440918 -0.08331680297851562 -2.4020309448242188
-5.185884952545166 -0.18724410235881805 -2.4020309448242188
-5.181091785430908 -0.2910928428173065 -2.4020309448242188
-5.174220085144043 -0.3948267996311188 -2.4020309448242188
-5.165272235870361 -0.4984053075313568 -2.4020309448242188
-5.1542534828186035 -0.6017773151397705 -2.4020309448242188
-5.126009941101074 -0.8077641129493713 -2.4020309448242188
-5.089536666870117 -1.0124527215957642 -2.4020309448242188
-5.019533157348633 -1.3163344860076904 -2.4020309448242188
-4.962775707244873 -1.516347885131836 -2.4020309448242188
-4.931371212005615 -1.6154634952545166 -2.4020309448242188
-4.702101707458496 -2.1951560974121094 -2.4020309448242188
-4.657182693481445 -2.2889115810394287 -2.4020309448242188
-4.561769485473633 -2.473630428314209 -2.4020309448242188
-3.9710729122161865 2.8653008937835693 -2.4020309448242188
-4.027675151824951 2.7851758003234863 -2.4020309448242188
-4.187701225280762 2.538219451904297 -2.4020309448242188
-4.286015510559082 2.3684310913085938 -2.4020309448242188
-4.420538425445557 2.106705665588379 -2.4020309448242188
-4.461850643157959 2.017727851867676 -2.4020309448242188
-4.609057426452637 1.6540753841400146 -2.4020309448242188
-4.641268253326416 1.5614122152328491 -2.4020309448242188
-4.726675510406494 1.2798099517822266 -2.4020309448242188
-4.751364231109619 1.1848636865615845 -2.4020309448242188
-4.859164237976074 0.6065500974655151 -2.4020309448242188
-4.892122745513916 0.21562117338180542 -2.4020309448242188
-4.89546012878418 0.11757460981607437 -2.4020309448242188
-4.896243095397949 -0.07862243801355362 -2.4020309448242188
-4.889163017272949 -0.27469101548194885 -2.4020309448242188
-4.8826799392700195 -0.3725804090499878 -2.4020309448242188
-4.874235153198242 -0.4703224003314972 -2.4020309448242188
-4.8514838218688965 -0.6651933193206787 -2.4020309448242188
-4.820943355560303 -0.8589996099472046 -2.4020309448242188
-4.802769660949707 -0.9554076790809631 -2.4020309448242188
-4.782665729522705 -1.0514274835586548 -2.4020309448242188
-4.760644435882568 -1.147027850151062 -2.4020309448242188
-4.653541564941406 -1.5244401693344116 -2.4020309448242188
-4.516599655151367 -1.8920643329620361 -2.4020309448242188
-4.257088661193848 -2.4200236797332764 -2.4020309448242188
-4.207762241363525 -2.5048205852508545 -2.4020309448242188
-3.699758291244507 2.783914804458618 -2.4020309448242188
-3.808305501937866 2.6334776878356934 -2.4020309448242188
-3.910740375518799 2.478811025619507 -2.4020309448242188
-3.9596123695373535 2.399972677230835 -2.4020309448242188
-4.05256986618042 2.2394306659698486 -2.4020309448242188
-4.2188334465026855 1.9078296422958374 -2.4020309448242188
-4.291872978210449 1.737299919128418 -2.4020309448242188
-4.388477802276611 1.4763679504394531 -2.4020309448242188
-4.4171977043151855 1.3881549835205078 -2.4020309448242188
-4.469232082366943 1.210102915763855 -2.4020309448242188
-4.49257755279541 1.1203299760818481 -2.4020309448242188
-4.567843914031982 0.7570973038673401 -2.4020309448242188
-4.582092761993408 0.6654380559921265 -2.4020309448242188
-4.613790988922119 0.3890080153942108 -2.4020309448242188
-4.620658874511719 0.2964997887611389 -2.4020309448242188
-4.625671863555908 0.20387710630893707 -2.4020309448242188
-4.62882661819458 0.111170195043087 -2.4020309448242188
-4.630124568939209 0.018418731167912483 -2.4020309448242188
-4.6295623779296875 -0.07433990389108658 -2.4020309448242188
-4.627143859863281 -0.1670701503753662 -2.4020309448242188
-4.622868537902832 -0.2597295939922333 -2.4020309448242188
-4.608752727508545 -0.4447059631347656 -2.4020309448242188
-4.598921298980713 -0.5369405746459961 -2.4020309448242188
-4.5872416496276855 -0.6289628744125366 -2.4020309448242188
-4.541179180145264 -0.9033697247505188 -2.4020309448242188
-4.501349449157715 -1.0845532417297363 -2.4020309448242188
-4.454289436340332 -1.263994574546814 -2.4020309448242188
-4.428074359893799 -1.3529702425003052 -2.4020309448242188
-4.3055572509765625 -1.703102707862854 -2.4020309448242188
-4.270599842071533 -1.7890105247497559 -2.4020309448242188
-4.195483684539795 -1.9586446285247803 -2.4020309448242188
-4.155405044555664 -2.0423014163970947 -2.4020309448242188
-4.070261001586914 -2.207115650177002 -2.4020309448242188
-4.025227069854736 -2.288214921951294 -2.4020309448242188
-3.978583812713623 -2.3683924674987793 -2.4020309448242188
-3.7042126655578613 2.347904682159424 -2.4020309448242188
-3.7952330112457275 2.1976332664489746 -2.4020309448242188
-3.8802807331085205 2.0438404083251953 -2.4020309448242188
-3.9204461574554443 1.9656989574432373 -2.4020309448242188
-3.9960386753082275 1.807077169418335 -2.4020309448242188
-4.097368240356445 1.5637873411178589 -2.4020309448242188
-4.127873420715332 1.4813904762268066 -2.4020309448242188
-4.1567206382751465 1.3984010219573975 -2.4020309448242188
-4.2094011306762695 1.2307697534561157 -2.4020309448242188
-4.233213424682617 1.1461988687515259 -2.4020309448242188
-4.3113813400268555 0.8036478757858276 -2.4020309448242188
-4.326614856719971 0.7171149849891663 -2.4020309448242188
-4.340113639831543 0.6302958726882935 -2.4020309448242188
-4.361878395080566 0.45593520998954773 -2.4020309448242188
-4.376639366149902 0.2808418273925781 -2.4020309448242188
-4.381387710571289 0.19311049580574036 -2.4020309448242188
-4.385076999664307 -0.07041442394256592 -2.4020309448242188
-4.382784843444824 -0.15824706852436066 -2.4020309448242188
-4.3787360191345215 -0.24601347744464874 -2.4020309448242188
-4.356052875518799 -0.50858473777771 -2.4020309448242188
-4.34498929977417 -0.5957473516464233 -2.4020309448242188
-4.332183837890625 -0.6826717853546143 -2.4020309448242188
-4.301359176635742 -0.8556620478630066 -2.4020309448242188
-4.242196559906006 -1.1124836206436157 -2.4020309448242188
-4.219058036804199 -1.1972427368164062 -2.4020309448242188
-4.1395263671875 -1.4485037326812744 -2.4020309448242188
-4.109677791595459 -1.531139850616455 -2.4020309448242188
-4.078181266784668 -1.6131619215011597 -2.4020309448242188
-3.9359686374664307 -1.9344455003738403 -2.4020309448242188
-3.855311155319214 -2.0905580520629883 -2.4020309448242188
-3.768472909927368 -2.2433176040649414 -2.4020309448242188
-3.3244261741638184 2.501492977142334 -2.4020309448242188
-3.421961545944214 2.3663172721862793 -2.4020309448242188
-3.4686784744262695 2.297288417816162 -2.4020309448242188
-3.60040020942688 2.084789514541626 -2.4020309448242188
-3.6414525508880615 2.01224684715271 -2.4020309448242188
-3.7908434867858887 1.7142841815948486 -2.4020309448242188
-3.8564751148223877 1.5610554218292236 -2.4020309448242188
-3.8869895935058594 1.483483076095581 -2.4020309448242188
-3.9159069061279297 1.405321717262268 -2.4020309448242188
-4.07390022277832 0.8441609144210815 -2.4020309448242188
-4.089992523193359 0.7623804807662964 -2.4020309448242188
-4.1044440269470215 0.6802915930747986 -2.4020309448242188
-2.2304136753082275 0.18805557489395142 -1.2922989130020142
-2.2283775806427 0.14299117028713226 -1.2891994714736938
-2.224581241607666 0.09804916381835938 -1.2856098413467407
-2.219057559967041 0.053295593708753586 -1.2815427780151367
-2.2118237018585205 0.008798522874712944 -1.2770071029663086
-2.2163891792297363 -0.03559005632996559 -1.2797973155975342
-2.2225964069366455 -0.08025024086236954 -1.2840521335601807
-2.2298169136047363 -0.17014968395233154 -1.291127324104309
-2.2275352478027344 -0.2600727677345276 -1.2948036193847656
-4.1097307205200195 -0.6476173400878906 -2.4020309448242188
-4.0959296226501465 -0.7298161387443542 -2.4020309448242188
-4.0804877281188965 -0.8117254376411438 -2.4020309448242188
-4.002412796020508 -1.1357653141021729 -2.4020309448242188
-3.926966428756714 -1.3741244077682495 -2.4020309448242188
-3.8373358249664307 -1.607519507408142 -2.4020309448242188
-3.7698748111724854 -1.7599445581436157 -2.4020309448242188
-3.696359872817993 -1.909545660018921 -2.4020309448242188
-3.6573381423950195 -1.983208417892456 -2.4020309448242188
-3.616877317428589 -2.056079387664795 -2.4020309448242188
