ply
format ascii 1.0
element vertex 270
property float x
property float y
property float z
end_header
-33.472938537597656 13.199908256530762 6.344523906707764
-37.88705825805664 13.199878692626953 7.074347972869873
-40.69633865356445 13.263733863830566 7.547364711761475
-35.762046813964844 13.274922370910645 5.843812942504883
-40.50039291381836 13.199873924255371 6.525646209716797
-33.47292709350586 13.199908256530762 4.68555212020874
-31.589218139648438 13.199915885925293 3.6763432025909424
-33.47293472290039 13.199908256530762 3.8637664318084717
-37.887054443359375 13.199878692626953 4.308224201202393
-40.50039291381836 13.199873924255371 4.574158191680908
-31.739871978759766 13.262869834899902 2.91201114654541
-37.88706588745117 13.199878692626953 3.3963236808776855
-40.500389099121094 13.199873924255371 3.605968475341797
-31.589218139648438 13.199915885925293 2.122997283935547
-35.762046813964844 13.274922370910645 2.3654685020446777
-38.066490173339844 13.26239013671875 2.4996747970581055
-31.58922004699707 13.199915885925293 1.349968433380127
-33.47292709350586 13.199909210205078 1.4187895059585571
-40.50039291381836 13.199873924255371 1.6796488761901855
-37.520530700683594 15.678380012512207 0.6868952512741089
-38.00548553466797 14.987287521362305 0.6900935173034668
-41.09385681152344 15.254096031188965 0.740428626537323
-37.520530700683594 15.678377151489258 -0.2289494276046753
-41.09385681152344 15.254096031188965 -0.24679213762283325
-43.690155029296875 15.22168254852295 -0.2604733109474182
-43.690155029296875 15.221681594848633 -1.302728295326233
-37.52052307128906 15.678378105163574 -2.062270402908325
-39.85426712036133 14.793959617614746 -2.155937433242798
-41.57856369018555 12.628758430480957 -2.2037453651428223
-32.822322845458984 8.538578987121582 -1.7199605703353882
-35.82720947265625 8.552058219909668 -1.8679945468902588
-38.84989547729492 8.448538780212402 -2.0163002014160156
-47.15926742553711 4.39911413192749 -2.4020309448242188
-47.298397064208984 2.492121934890747 -2.4020309448242188
-47.36042785644531 0.5810185074806213 -2.4020309448242188
-27.895511627197266 11.656458854675293 -2.2167463302612305
-21.543598175048828 8.49562931060791 -1.69800865650177
-28.697111129760742 9.997991561889648 -2.228158473968506
-29.844676971435547 7.124006748199463 -2.2497551441192627
-29.980863571166992 6.519825458526611 -2.2496395111083984
-32.26667022705078 5.663730144500732 -2.4020309448242188
-32.71458435058594 1.7237107753753662 -2.4020309448242188
-32.742713928222656 1.0630216598510742 -2.4020309448242188
-32.75749969482422 0.40186813473701477 -2.4020309448242188
-22.421722412109375 6.810197830200195 -2.2496986389160156
-24.33616065979004 5.809106826782227 -2.4020309448242188
-24.448421478271484 5.316702365875244 -2.4020309448242188
-24.55078125 4.822136878967285 -2.4020309448242188
-24.859750747680664 2.8262102603912354 -2.4020309448242188
-24.911727905273438 2.323821544647217 -2.4020309448242188
-24.953527450561523 1.820513129234314 -2.4020309448242188
-17.47644805908203 7.302731990814209 -2.249906539916992
-17.618865966796875 6.947930812835693 -2.2497270107269287
-19.198043823242188 6.257039546966553 -2.398527145385742
-19.46339225769043 5.48508358001709 -2.4020309448242188
-19.668922424316406 4.6950249671936035 -2.4020309448242188
-19.842390060424805 3.897339344024658 -2.4020309448242188
-19.983524322509766 3.0932774543762207 -2.4020309448242188
-20.04189109802246 2.689284086227417 -2.4020309448242188
-20.134033203125 1.878144383430481 -2.4020309448242188
-20.21086311340332 0.6561668515205383 -2.4020309448242188
-20.21999168395996 0.24806319177150726 -2.4020309448242188
-14.992149353027344 6.264636039733887 -2.3022239208221436
-15.89320182800293 5.899564743041992 -2.4020309448242188
-16.118328094482422 5.2532806396484375 -2.4020309448242188
-16.31722068786621 4.598444938659668 -2.4020309448242188
-16.489530563354492 3.936096668243408 -2.4020309448242188
-16.634958267211914 3.2673516273498535 -2.4020309448242188
-16.75328254699707 2.5932633876800537 -2.4020309448242188
-16.802213668823242 2.254573106765747 -2.4020309448242188
-16.844276428222656 1.9149610996246338 -2.4020309448242188
-16.8795166015625 1.5745618343353271 -2.4020309448242188
-16.907869338989258 1.2335286140441895 -2.4020309448242188
-16.92932891845703 0.8919886350631714 -2.4020309448242188
-13.453495979309082 5.621697425842285 -2.4020309448242188
-13.564228057861328 5.348995208740234 -2.4020309448242188
-13.863094329833984 4.518255710601807 -2.4020309448242188
-13.951468467712402 4.237513542175293 -2.4020309448242188
-14.034160614013672 3.955042600631714 -2.4020309448242188
-14.111136436462402 3.6709465980529785 -2.4020309448242188
-14.182357788085938 3.3853673934936523 -2.4020309448242188
-14.307438850402832 2.810192108154297 -2.4020309448242188
-14.361250877380371 2.5208137035369873 -2.4020309448242188
-14.40920639038086 2.230421543121338 -2.4020309448242188
-14.517789840698242 1.3542481660842896 -2.4020309448242188
-14.542158126831055 1.0609397888183594 -2.4020309448242188
-14.573131561279297 0.4731330871582031 -2.4020309448242188
-11.79137897491455 4.927162170410156 -2.4020309448242188
-11.888436317443848 4.688151836395264 -2.4020309448242188
-11.980639457702637 4.447230339050293 -2.4020309448242188
-12.067967414855957 4.204488277435303 -2.4020309448242188
-12.15038013458252 3.960047483444214 -2.4020309448242188
-12.22783374786377 3.7139892578125 -2.4020309448242188
-12.30030632019043 3.4664158821105957 -2.4020309448242188
-12.367772102355957 3.217418670654297 -2.4020309448242188
-12.430204391479492 2.96712327003479 -2.4020309448242188
-12.487530708312988 2.715620756149292 -2.4020309448242188
-12.586992263793945 2.209378957748413 -2.4020309448242188
-12.62901496887207 1.9548628330230713 -2.4020309448242188
-12.697635650634766 1.4435453414916992 -2.4020309448242188
-12.745549201965332 0.9298649430274963 -2.4020309448242188
-12.76171875 0.6724064350128174 -2.4020309448242188
-12.772697448730469 0.41467511653900146 -2.4020309448242188
-12.778473854064941 0.15676376223564148 -2.4020309448242188
-10.571295738220215 4.168746471405029 -2.4020309448242188
-10.653289794921875 3.954517126083374 -2.4020309448242188
-10.730940818786621 3.7386693954467773 -2.4020309448242188
-10.873092651367188 3.30251145362854 -2.4020309448242188
-10.99753189086914 2.860956907272339 -2.4020309448242188
-11.052988052368164 2.63838791847229 -2.4020309448242188
-11.104071617126465 2.414754629135132 -2.4020309448242188
-11.15052318572998 2.1901276111602783 -2.4020309448242188
-11.192465782165527 1.964599370956421 -2.4020309448242188
-11.22983455657959 1.7382817268371582 -2.4020309448242188
-11.26263427734375 1.5112550258636475 -2.4020309448242188
-11.29084300994873 1.2836130857467651 -2.4020309448242188
-11.333452224731445 0.8268449306488037 -2.4020309448242188
-11.347830772399902 0.5979102849960327 -2.4020309448242188
-11.357588768005371 0.36873671412467957 -2.4020309448242188
-9.430217742919922 3.940524101257324 -2.4020309448242188
-9.50783634185791 3.7493743896484375 -2.4020309448242188
-9.58158016204834 3.556697368621826 -2.4020309448242188
-9.651420593261719 3.362562894821167 -2.4020309448242188
-9.717329025268555 3.167067289352417 -2.4020309448242188
-9.779272079467773 2.970282554626465 -2.4020309448242188
-9.837237358093262 2.772284507751465 -2.4020309448242188
-9.891189575195312 2.5731475353240967 -2.4020309448242188
-9.98698616027832 2.171830892562866 -2.4020309448242188
-10.066509246826172 1.7669620513916016 -2.4020309448242188
-10.100123405456543 1.5634123086929321 -2.4020309448242188
-10.129622459411621 1.3592243194580078 -2.4020309448242188
-10.154995918273926 1.1544828414916992 -2.4020309448242188
-10.206259727478027 0.53775954246521 -2.4020309448242188
-10.215039253234863 0.33163803815841675 -2.4020309448242188
-8.63038158416748 3.4033544063568115 -2.4020309448242188
-8.697319030761719 3.228458881378174 -2.4020309448242188
-8.760722160339355 3.0522422790527344 -2.4020309448242188
-8.876769065856934 2.696162700653076 -2.4020309448242188
-8.97835636138916 2.3356781005859375 -2.4020309448242188
-9.103263854980469 1.7880158424377441 -2.4020309448242188
-9.252602577209473 0.6750339865684509 -2.4020309448242188
-9.264347076416016 0.4881324768066406 -2.4020309448242188
-9.272307395935059 0.30103376507759094 -2.4020309448242188
-9.27651596069336 0.11380172520875931 -2.4020309448242188
-7.828946590423584 3.271414041519165 -2.4020309448242188
-7.954598426818848 2.952759265899658 -2.4020309448242188
-8.012587547302246 2.7915923595428467 -2.4020309448242188
-8.118720054626465 2.465919256210327 -2.4020309448242188
-8.211625099182129 2.1362199783325195 -2.4020309448242188
-8.291173934936523 1.8030506372451782 -2.4020309448242188
-8.325879096984863 1.6353260278701782 -2.4020309448242188
-8.385093688964844 1.2979398965835571 -2.4020309448242188
-8.409600257873535 1.1284229755401611 -2.4020309448242188
-8.430654525756836 0.9584495425224304 -2.4020309448242188
-8.44827651977539 0.7880738377571106 -2.4020309448242188
-8.46246337890625 0.6173887252807617 -2.4020309448242188
-8.473207473754883 0.4464482069015503 -2.4020309448242188
-7.205702304840088 3.01098370552063 -2.4020309448242188
-7.425076961517334 2.419980049133301 -2.4020309448242188
-7.472408771514893 2.2696139812469482 -2.4020309448242188
-7.516702651977539 2.1183228492736816 -2.4020309448242188
-7.557929515838623 1.9661606550216675 -2.4020309448242188
-7.63113260269165 1.6595139503479004 -2.4020309448242188
-7.775732040405273 0.7253373265266418 -2.4020309448242188
-7.78878927230835 0.5682398676872253 -2.4020309448242188
-6.667511463165283 2.7860960960388184 -2.4020309448242188
-6.774529933929443 2.514714479446411 -2.4020309448242188
-6.870514392852783 2.239234209060669 -2.4020309448242188
-6.914306640625 2.1000990867614746 -2.4020309448242188
-6.99343729019165 1.8193100690841675 -2.4020309448242188
-7.028733253479004 1.6777784824371338 -2.4020309448242188
-7.141144752502441 1.1053929328918457 -2.4020309448242188
-7.162015914916992 0.9610218405723572 -2.4020309448242188
-7.19497013092041 0.6711628437042236 -2.4020309448242188
-7.2070512771606445 0.525798499584198 -2.4020309448242188
-6.248593807220459 2.4641222953796387 -2.4020309448242188
-6.297109127044678 2.3374955654144287 -2.4020309448242188
-6.342974662780762 2.2099063396453857 -2.4020309448242188
-6.465126991271973 1.8219724893569946 -2.4020309448242188
-6.500588417053223 1.6910974979400635 -2.4020309448242188
-6.533400058746338 1.5595399141311646 -2.4020309448242188
-6.563545227050781 1.4273481369018555 -2.4020309448242188
-6.6158061027526855 1.1612651348114014 -2.4020309448242188
-6.699162006378174 0.4887419044971466 -2.4020309448242188
-6.707644939422607 0.3534223735332489 -2.4020309448242188
-6.713413715362549 0.2179573029279709 -2.4020309448242188
-6.716451168060303 0.08239669352769852 -2.4020309448242188
-5.783430576324463 2.4166760444641113 -2.4020309448242188
-5.91908597946167 2.0622177124023438 -2.4020309448242188
-5.959517478942871 1.9423246383666992 -2.4020309448242188
-6.033058166503906 1.7002081871032715 -2.4020309448242188
-6.1248779296875 1.3319621086120605 -2.4020309448242188
-6.173648357391357 1.0836601257324219 -2.4020309448242188
-6.194283962249756 0.9588215351104736 -2.4020309448242188
-6.212375164031982 0.8335956931114197 -2.4020309448242188
-6.227960586547852 0.7080268859863281 -2.4020309448242188
-6.264753341674805 0.20339065790176392 -2.4020309448242188
-6.267582416534424 0.07689071446657181 -2.4020309448242188
-5.542250156402588 1.9309253692626953 -2.4020309448242188
-5.615673542022705 1.7056617736816406 -2.4020309448242188
-5.648956298828125 1.591963291168213 -2.4020309448242188
-5.7086100578308105 1.3626610040664673 -2.4020309448242188
-5.758955955505371 1.1311442852020264 -2.4020309448242188
-5.799919128417969 0.8977775573730469 -2.4020309448242188
-5.831428527832031 0.6629530191421509 -2.4020309448242188
-5.843622207641602 0.5451063513755798 -2.4020309448242188
-5.8534393310546875 0.4270435869693756 -2.4020309448242188
-5.865903377532959 0.19044142961502075 -2.4020309448242188
-5.868555068969727 0.07199447602033615 -2.4020309448242188
-5.167064189910889 1.9180207252502441 -2.4020309448242188
-5.204723358154297 1.8133292198181152 -2.4020309448242188
-5.240264892578125 1.7079050540924072 -2.4020309448242188
-5.334025859832764 1.387621283531189 -2.4020309448242188
-5.360947608947754 1.279672622680664 -2.4020309448242188
-5.385683536529541 1.171204924583435 -2.4020309448242188
-5.408226013183594 1.0622557401657104 -2.4020309448242188
-5.428569316864014 0.9528703093528748 -2.4020309448242188
-5.4626030921936035 0.7329893112182617 -2.4020309448242188
-5.496950149536133 0.4010365307331085 -2.4020309448242188
-5.503924369812012 0.2899989187717438 -2.4020309448242188
-5.508662700653076 0.17884323000907898 -2.4020309448242188
-4.788071155548096 2.000744342803955 -2.4020309448242188
-4.827465534210205 1.903689980506897 -2.4020309448242188
-4.864906311035156 1.8058604001998901 -2.4020309448242188
-4.965282917022705 1.5081171989440918 -2.4020309448242188
-4.99471378326416 1.4075864553451538 -2.4020309448242188
-5.0919718742370605 1.0001389980316162 -2.4020309448242188
-5.1562957763671875 0.586139976978302 -2.4020309448242188
-5.166835784912109 0.4819727838039398 -2.4020309448242188
-5.175506591796875 0.3775852918624878 -2.4020309448242188
-5.188874244689941 0.06365707516670227 -2.4020309448242188
-4.518271446228027 1.8880119323730469 -2.4020309448242188
-4.590793132781982 1.7041096687316895 -2.4020309448242188
-4.713284015655518 1.3282761573791504 -2.4020309448242188
-4.739136219024658 1.2328641414642334 -2.4020309448242188
-4.805065155029297 0.943785548210144 -2.4020309448242188
-4.875704765319824 0.4548167288303375 -2.4020309448242188
-4.890089511871338 0.2576557993888855 -2.4020309448242188
-4.896504878997803 0.06007034331560135 -2.4020309448242188
-4.3723931312561035 1.523344874382019 -2.4020309448242188
-4.43031120300293 1.345629096031189 -2.4020309448242188
-4.456571578979492 1.2559303045272827 -2.4020309448242188
-4.5433502197265625 0.8923817276954651 -2.4020309448242188
-4.560445308685303 0.8004875183105469 -2.4020309448242188
-4.5756659507751465 0.7082737684249878 -2.4020309448242188
-4.589035987854004 0.6157701015472412 -2.4020309448242188
-4.617890357971191 0.336902916431427 -2.4020309448242188
-4.623748779296875 0.24362197518348694 -2.4020309448242188
-4.6277265548706055 0.15024276077747345 -2.4020309448242188
-4.6298112869262695 0.056798551231622696 -2.4020309448242188
-4.046566009521484 1.6909037828445435 -2.4020309448242188
-4.141519069671631 1.4428907632827759 -2.4020309448242188
-4.169765949249268 1.359008550643921 -2.4020309448242188
-4.196346282958984 1.2745667695999146 -2.4020309448242188
-4.221202373504639 1.1896073818206787 -2.4020309448242188
-4.2443718910217285 1.1041535139083862 -2.4020309448242188
-4.2657952308654785 1.0182570219039917 -2.4020309448242188
-4.285477638244629 0.9319471716880798 -2.4020309448242188
-4.334026336669922 0.6708698868751526 -2.4020309448242188
-4.346684455871582 0.5832517743110657 -2.4020309448242188
-4.357572078704834 0.4953959584236145 -2.4020309448242188
-4.383333683013916 0.14230850338935852 -2.4020309448242188
-3.9808671474456787 1.209118127822876 -2.4020309448242188
-4.004462242126465 1.1285194158554077 -2.4020309448242188
-4.046749591827393 0.9659705758094788 -2.4020309448242188
-4.111478328704834 0.6364201307296753 -2.4020309448242188
-2.2309203147888184 0.2993525564670563 -1.2995665073394775
-2.226422071456909 0.11731033027172089 -1.2872086763381958
-2.2215940952301025 0.07212570309638977 -1.2833138704299927
-2.2150230407714844 0.02717483416199684 -1.2789400815963745
