ply
format ascii 1.0
element vertex 301
property float x
property float y
property float z
end_header
2.1617212295532227 19.9503173828125 3.5383708477020264
1.7245373725891113 19.608957290649414 3.4709343910217285
1.3186047077178955 19.50304412841797 3.446763277053833
0.9227843880653381 19.496810913085938 3.4416630268096924
0.533825695514679 19.707189559936523 3.476184606552124
0.14484862983226776 21.090953826904297 3.718994140625
2.926783323287964 19.582523345947266 3.0332555770874023
2.1560046672821045 19.897525787353516 3.066033363342285
1.7271605730056763 19.638803482055664 3.0201690196990967
-0.6294335722923279 18.749269485473633 2.873901844024658
2.509694814682007 19.477149963378906 2.557300329208374
2.0563268661499023 18.977636337280273 2.4857497215270996
1.6212316751480103 18.43429946899414 2.4097964763641357
1.2677404880523682 18.750680923461914 2.4473042488098145
0.5224902033805847 19.288652420043945 2.512706756591797
0.9076024889945984 19.176054000854492 2.0614640712738037
-0.24174803495407104 18.114545822143555 1.9453459978103638
3.225297689437866 18.95138168334961 1.627366304397583
2.320927619934082 18.012149810791016 1.5373858213424683
1.5932226181030273 18.115766525268555 1.5394707918167114
1.2237499952316284 18.10002326965332 1.53571617603302
0.8534008860588074 18.030893325805664 1.5280752182006836
0.4863342046737671 17.953868865966797 1.5204033851623535
0.12117186933755875 17.64351463317871 1.4936089515686035
-0.26710081100463867 20.014083862304688 1.6944003105163574
2.953630208969116 19.762155532836914 1.2390698194503784
2.1591758728027344 19.926794052124023 1.2429003715515137
1.7393689155578613 19.77757453918457 1.231148362159729
0.5168774127960205 19.081398010253906 1.1836785078048706
-0.2518371641635895 18.87038230895996 1.1702632904052734
3.1191978454589844 18.327836990356445 0.7330770492553711
2.7718358039855957 18.54580307006836 0.7394027709960938
2.418487548828125 18.769287109375 0.7462112307548523
2.049140691757202 18.911317825317383 0.7500576376914978
1.3849890232086182 20.484865188598633 0.8095837235450745
-0.6730419993400574 20.048248291015625 0.7909685969352722
-1.0892260074615479 20.236879348754883 0.7991161942481995
-1.5079723596572876 20.345035552978516 0.8044265508651733
-1.9219481945037842 20.342905044555664 0.8057137727737427
-2.3245861530303955 20.22905921936035 0.8029025197029114
-1.239282250404358 23.024837493896484 0.38949400186538696
4.178044319152832 47.50682830810547 -0.26850494742393494
4.117548942565918 31.95525550842285 -0.9072280526161194
2.802431583404541 31.86509895324707 -0.9007132053375244
1.3838536739349365 20.468069076538086 -0.5776504278182983
1.4967626333236694 31.623964309692383 -0.8914569020271301
-0.4244006276130676 31.800580978393555 -0.8955127000808716
-1.7083227634429932 31.739215850830078 -0.8949987888336182
-3.002734422683716 31.782472610473633 -0.8989080786705017
-3.6970677375793457 32.172645568847656 -0.9118710160255432
-5.640006065368652 31.8893985748291 -0.9118693470954895
9.827882766723633 46.33738708496094 -2.4022045135498047
6.557010173797607 43.87166976928711 -2.2496330738067627
0.8670727610588074 32.009586334228516 -1.6239389181137085
0.21991942822933197 32.02151107788086 -1.623986005783081
-0.42496457695961 31.842723846435547 -1.615023136138916
-2.375635862350464 32.05120849609375 -1.6299127340316772
-3.00628662109375 31.820077896118164 -1.620917797088623
-3.690647602081299 32.116817474365234 -1.6395001411437988
6.365332126617432 30.01131820678711 -2.2494454383850098
5.755961894989014 30.126089096069336 -2.248866319656372
3.122532844543457 18.347415924072266 -1.3645910024642944
3.1237633228302 24.24272346496582 -1.7922195196151733
3.300602912902832 30.46091079711914 -2.246532917022705
2.6835484504699707 30.51344108581543 -2.2459464073181152
1.3830981254577637 20.456951141357422 -1.5033715963363647
0.81329345703125 30.024070739746094 -2.2022366523742676
-0.4007970988750458 30.03240966796875 -2.2022366523742676
-1.0077440738677979 30.01817512512207 -2.2022366523742676
-1.6142627000808716 29.99166488647461 -2.2022366523742676
-1.4093518257141113 19.014455795288086 -1.3980050086975098
-2.8250627517700195 29.901920318603516 -2.2022366523742676
-3.4288628101348877 29.838720321655273 -2.2022366523742676
-5.230854511260986 29.576072692871094 -2.2022366523742676
-5.827559471130371 29.464311599731445 -2.2022366523742676
3.2042651176452637 16.77081298828125 -1.6392121315002441
3.1225340366363525 18.347415924072266 -1.786761999130249
3.0706470012664795 20.54509162902832 -1.9943407773971558
1.8199193477630615 20.69342041015625 -1.9943407773971558
1.3827258348464966 20.45137596130371 -1.9679174423217773
0.9820995926856995 20.750062942504883 -1.9943407773971558
0.11492919921875 16.734891891479492 -1.6066720485687256
-0.22328978776931763 16.730960845947266 -1.6063995361328125
-0.5615466237068176 16.727027893066406 -1.6067818403244019
-0.9001013040542603 16.72309112548828 -1.6078249216079712
-1.239223599433899 16.719146728515625 -1.6095205545425415
-3.59822678565979 23.05270767211914 -2.239973545074463
3.925020694732666 18.50575065612793 -2.247121810913086
2.861393928527832 16.813030242919922 -2.025867223739624
2.5128538608551025 16.813030242919922 -2.0193333625793457
1.8154528141021729 16.754663467407227 -2.0018703937530518
1.4786474704742432 16.813030242919922 -2.0048599243164062
1.1367321014404297 16.813030242919922 -2.0017101764678955
0.795758068561554 16.813030242919922 -1.9993869066238403
0.11493407934904099 16.734891891479492 -1.9879162311553955
-0.22328734397888184 16.730960845947266 -1.987579345703125
-2.1540966033935547 18.745412826538086 -2.241344451904297
-2.5321240425109863 18.695051193237305 -2.240985155105591
-3.2845849990844727 18.57150650024414 -2.240269899368286
-3.6586902141571045 18.498390197753906 -2.2399144172668457
2.659430980682373 15.626312255859375 -2.245918035507202
2.342733144760132 15.674774169921875 -2.245616912841797
2.025164842605591 15.71681022644043 -2.2453153133392334
1.3879320621490479 15.781561851501465 -2.2447094917297363
0.10874023288488388 15.833518981933594 -2.2434937953948975
-0.21126586198806763 15.830336570739746 -2.243189811706543
-0.5311193466186523 15.820688247680664 -2.2428855895996094
-0.85066157579422 15.804582595825195 -2.242582082748413
-1.169765591621399 15.782026290893555 -2.242278814315796
-2.123155355453491 15.675790786743164 -2.241373300552368
-2.7542552947998047 15.573009490966797 -2.240773916244507
2.828850030899048 13.33748722076416 -2.246084451675415
1.7416051626205444 13.516170501708984 -2.245051622390747
1.4678930044174194 13.547038078308105 -2.2447915077209473
1.1936413049697876 13.572366714477539 -2.2445309162139893
0.6439855694770813 13.606353759765625 -2.244008779525757
-0.1817065328359604 13.61561107635498 -2.243224859237671
-0.7316808700561523 13.593976974487305 -2.2427024841308594
-1.553619384765625 13.519943237304688 -2.241921901702881
-1.3139562606811523 8.418116569519043 -1.403586745262146
2.4790027141571045 11.688029289245605 -2.2457618713378906
2.004197835922241 11.776297569274902 -2.2453105449676514
1.2578600645065308 8.416059494018555 -1.5994592905044556
1.52630615234375 11.84528636932373 -2.244856834411621
1.2864489555358887 11.872507095336914 -2.24462890625
1.0461132526397705 11.89487361907959 -2.2444007396698
0.05732421576976776 8.345905303955078 -1.5687395334243774
-0.15926146507263184 11.933636665344238 -2.2432565689086914
-0.6413122415542603 11.915023803710938 -2.2427992820739746
-1.122106909751892 11.876954078674316 -2.2423431873321533
-1.3617980480194092 11.85064697265625 -2.2421157360076904
-1.1455504894256592 8.457816123962402 -1.6042516231536865
-1.4791125059127808 8.363146781921387 -1.596339225769043
-2.3135313987731934 11.69723892211914 -2.241213321685791
2.208676815032959 10.413528442382812 -2.2501773834228516
1.5930688381195068 8.337935447692871 -1.7943542003631592
1.7858434915542603 10.493292808532715 -2.249965190887451
1.3601794242858887 10.555550575256348 -2.2496774196624756
1.1460620164871216 10.576350212097168 -2.2487130165100098
0.9316515922546387 10.592281341552734 -2.2476370334625244
0.5024780035018921 10.613792419433594 -2.246053457260132
0.2876855432987213 10.619097709655762 -2.2454869747161865
-0.35627439618110657 10.613492965698242 -2.2447431087493896
-1.2126721143722534 10.555715560913086 -2.245948553085327
-1.4265283346176147 10.532299995422363 -2.2466444969177246
-1.4791125059127808 8.363146781921387 -1.7952381372451782
1.9885168075561523 9.375496864318848 -2.2524733543395996
1.5930700302124023 8.337935447692871 -1.9950515031814575
1.416512370109558 9.477618217468262 -2.252199172973633
1.032251000404358 9.526532173156738 -2.252058982849121
0.8394677639007568 9.545205116271973 -2.2520015239715576
0.6463537216186523 9.560015678405762 -2.251952886581421
-0.12785887718200684 9.580526351928711 -2.2518441677093506
-0.3214746117591858 9.57596206665039 -2.2518386840820312
-0.5149609446525574 9.567520141601562 -2.2518417835235596
-1.3139562606811523 8.418116569519043 -2.002406358718872
-1.8592504262924194 9.400386810302734 -2.2521049976348877
1.6339367628097534 8.551854133605957 -2.2542805671691895
1.4607031345367432 8.582818031311035 -2.254197597503662
1.2868847846984863 8.610297203063965 -2.254122018814087
0.7626501321792603 8.671768188476562 -2.2539422512054443
0.5872106552124023 8.685242652893066 -2.2538981437683105
0.23570922017097473 8.701631546020508 -2.253833055496216
-0.11615844815969467 8.70391845703125 -2.2537992000579834
-0.29206177592277527 8.69976806640625 -2.2537941932678223
-0.8187621831893921 8.666203498840332 -2.253826141357422
-0.9937682747840881 8.64798641204834 -2.253852605819702
-1.168371558189392 8.626266479492188 -2.2538869380950928
-1.3425121307373047 8.601044654846191 -2.2539288997650146
-1.6891112327575684 8.540166854858398 -2.2540364265441895
1.651314616203308 7.785627365112305 -2.253084897994995
1.4936559200286865 7.81764030456543 -2.253150701522827
1.0172094106674194 7.894312381744385 -2.2532992362976074
0.6973425149917603 7.929169654846191 -2.253357172012329
0.5369409322738647 7.941709995269775 -2.253373622894287
0.16922850906848907 3.5755200386047363 -1.0133370161056519
0.0957958996295929 3.536447048187256 -1.0015100240707397
0.02401123009622097 3.496227264404297 -0.9897802472114563
-0.04610839858651161 3.4549431800842285 -0.9781567454338074
-0.18135741353034973 3.369457960128784 -0.9552499055862427
-0.24647948145866394 3.3254027366638184 -0.9439799189567566
-0.31004881858825684 3.2817230224609375 -0.9331690669059753
-0.37552610039711 3.2679076194763184 -0.9312089085578918
-0.5078076124191284 3.2533562183380127 -0.9321540594100952
-0.6394823789596558 3.233227491378784 -0.933034360408783
1.5187853574752808 7.160797119140625 -2.251502275466919
1.2282030582427979 7.216690540313721 -2.2516157627105713
0.45890867710113525 3.5614805221557617 -1.104491114616394
0.21866698563098907 3.2342405319213867 -0.9970539808273315
0.1519763171672821 3.210986852645874 -0.9887362718582153
-0.04184326156973839 3.135417938232422 -0.9644730687141418
-0.10435180366039276 3.1084094047546387 -0.9566184878349304
-0.22620360553264618 3.0518651008605957 -0.9412632584571838
-0.2855480909347534 3.022394895553589 -0.9337632656097412
-0.3444799780845642 2.9977355003356934 -0.9281068444252014
-0.40525510907173157 2.992053747177124 -0.9286941289901733
-0.4659472405910492 2.9851739406585693 -0.9292928576469421
0.26352784037590027 2.9964611530303955 -0.9998847842216492
0.20142699778079987 2.9792370796203613 -0.9925758242607117
0.07969237864017487 2.941974401473999 -0.9782871603965759
0.02006835862994194 2.921989679336548 -0.9713084101676941
-0.03871703892946243 2.9011383056640625 -0.9644405841827393
-0.15375731885433197 2.8566906452178955 -0.950954258441925
-0.20998656749725342 2.8330790996551514 -0.94431471824646
-0.26535889506340027 2.8087048530578613 -0.9377866983413696
-0.31987181305885315 2.78359055519104 -0.931370198726654
-0.4320739507675171 2.7681591510772705 -0.9312931895256042
0.4397363066673279 2.9421911239624023 -1.0638352632522583
0.3722814917564392 2.8891851902008057 -1.0417354106903076
0.30714476108551025 2.8346006870269775 -1.0196070671081543
0.24498778581619263 2.7856414318084717 -1.0000104904174805
0.13041992485523224 2.7555487155914307 -0.9865074157714844
0.07419311255216599 2.7389726638793945 -0.9798355102539062
-0.09018920361995697 2.686500072479248 -0.9612533450126648
-0.14373046159744263 2.670396089553833 -0.9563351273536682
-0.2491125464439392 2.636739492416382 -0.9471160769462585
-0.30115965008735657 2.620755672454834 -0.9433690905570984
-0.3535180687904358 2.610077381134033 -0.9419050216674805
0.6106579303741455 2.8791418075561523 -1.1278830766677856
0.5412853956222534 2.833028554916382 -1.1053063869476318
0.40898802876472473 2.736454963684082 -1.0603067874908447
0.3464587330818176 2.6887805461883545 -1.0389076471328735
0.17591552436351776 2.6019110679626465 -0.999375581741333
0.12263427674770355 2.591057777404785 -0.9940516352653503
0.01763061434030533 2.5670793056488037 -0.9837745428085327
-0.1360144019126892 2.5270252227783203 -0.9698037505149841
-0.2855786085128784 2.4851624965667725 -0.958626389503479
-0.48531004786491394 2.4537353515625 -0.9585313200950623
0.5681567192077637 2.678751230239868 -1.1207340955734253
0.38401976227760315 2.569401264190674 -1.0632717609405518
0.32695311307907104 2.537402629852295 -1.0470808744430542
0.2715808153152466 2.506389856338501 -1.0318069458007812
0.21770507097244263 2.475428581237793 -1.0170413255691528
0.16645140945911407 2.461918830871582 -1.0099018812179565
0.06614989787340164 2.442042589187622 -0.999833345413208
-0.08092895150184631 2.4106831550598145 -0.9871878027915955
-0.12913696467876434 2.399256944656372 -0.98337721824646
-0.31801390647888184 2.3479440212249756 -0.9697291254997253
-0.46462035179138184 2.3491272926330566 -0.9800634384155273
0.5344384908676147 2.5197761058807373 -1.1225897073745728
0.47566038370132446 2.4895570278167725 -1.1046169996261597
0.41883909702301025 2.46101450920105 -1.0879735946655273
0.31001952290534973 2.4059836864471436 -1.0572370290756226
0.1578027307987213 2.334002733230591 -1.0195199251174927
0.1101367175579071 2.3269951343536377 -1.015278935432434
0.06288208067417145 2.3214304447174072 -1.012089490890503
0.01594848558306694 2.3222830295562744 -1.0121139287948608
-0.031000975519418716 2.322977304458618 -1.0124828815460205
-0.0780029296875 2.3235135078430176 -1.0131968259811401
-0.17226317524909973 2.3241119384765625 -1.0156655311584473
-0.2670666575431824 2.3240745067596436 -1.0195366144180298
-0.3147070109844208 2.3235342502593994 -1.0218815803527832
-0.4589855968952179 2.3206357955932617 -1.0309643745422363
0.3972460925579071 2.3341422080993652 -1.0959744453430176
0.3452185094356537 2.3097875118255615 -1.0810412168502808
0.24900145828723907 2.2980082035064697 -1.0699394941329956
0.20194824039936066 2.2962584495544434 -1.067006230354309
0.15520751476287842 2.2956290245056152 -1.0650379657745361
0.10869628936052322 2.2965762615203857 -1.0642400979995728
0.015786131843924522 2.2984280586242676 -1.0639327764511108
-0.07720092684030533 2.2996208667755127 -1.0650595426559448
-0.3584216237068176 2.296285390853882 -1.0757861137390137
0.2933068871498108 2.276283025741577 -1.1258015632629395
0.24648436903953552 2.2747719287872314 -1.1223602294921875
0.1536547839641571 2.272653579711914 -1.1173350811004639
0.1075768992304802 2.272913694381714 -1.1161657571792603
0.06159057468175888 2.2737367153167725 -1.1157301664352417
-0.12250488251447678 2.276047468185425 -1.1180706024169922
-0.16871215403079987 2.276197910308838 -1.119591236114502
-0.21504759788513184 2.2761764526367188 -1.1214898824691772
-0.30802732706069946 2.274209976196289 -1.1257392168045044
-0.448150634765625 2.2658565044403076 -1.1329864263534546
0.3838244676589966 2.255277156829834 -1.1868141889572144
0.3369079530239105 2.2541825771331787 -1.1824125051498413
0.29029661417007446 2.252922534942627 -1.1784322261810303
0.10648803412914276 2.2499167919158936 -1.1685171127319336
-0.1669335961341858 2.252216100692749 -1.1716080904006958
-0.21277831494808197 2.2521543502807617 -1.1735740900039673
-0.3507177531719208 2.2469334602355957 -1.179776906967163
0.4736425578594208 2.233135461807251 -1.2503043413162231
0.37980467081069946 2.231666088104248 -1.2398664951324463
0.15053710341453552 2.2265515327453613 -1.2222743034362793
0.10539672523736954 2.226853370666504 -1.2210209369659424
-0.029725341126322746 2.2273848056793213 -1.220055341720581
-0.07479126006364822 2.2278342247009277 -1.2208802700042725
-0.11992431432008743 2.2281010150909424 -1.2221053838729858
-0.16515380144119263 2.228184700012207 -1.2237322330474854
-0.2559435963630676 2.2272748947143555 -1.2279144525527954
-0.3468603491783142 2.2222185134887695 -1.2318540811538696
-0.392524391412735 2.2193918228149414 -1.2344340085983276
0.4685717523097992 2.209228992462158 -1.3038729429244995
0.4219982922077179 2.2086918354034424 -1.2982556819915771
0.37577390670776367 2.207972764968872 -1.2931029796600342
0.3298669457435608 2.207073211669922 -1.2884070873260498
0.28424927592277527 2.205994129180908 -1.284160852432251
0.2388952523469925 2.204737663269043 -1.280356764793396
0.015135497786104679 2.203796148300171 -1.2723923921585083
-0.16336669027805328 2.2040791511535645 -1.2760167121887207
-0.2082226574420929 2.2039401531219482 -1.2781113386154175
-0.25309935212135315 2.2025222778320312 -1.2799956798553467
-0.29798704385757446 2.200084924697876 -1.2818173170089722
