ply
format ascii 1.0
element vertex 246
property float x
property float y
property float z
end_header
-47.25894546508789 3.152836799621582 -2.4020309448242188
-47.313255310058594 2.191930055618286 -2.4020309448242188
-47.348026275634766 1.2301331758499146 -2.4020309448242188
-47.36323928833008 0.2677699327468872 -2.4020309448242188
-47.335018157958984 -1.6568191051483154 -2.4020309448242188
-47.29158020019531 -2.6182780265808105 -2.4020309448242188
-47.22861862182617 -3.578667640686035 -2.4020309448242188
-47.14615249633789 -4.537601470947266 -2.4020309448242188
-46.92284393310547 -6.449371337890625 -2.4020309448242188
-46.78213882446289 -7.401497840881348 -2.4020309448242188
-46.62205505371094 -8.350550651550293 -2.4020309448242188
-43.38707733154297 -9.605355262756348 -2.2536215782165527
-42.890682220458984 -11.341641426086426 -2.2499330043792725
-41.61064529418945 -12.833195686340332 -2.2083349227905273
-32.72486877441406 1.5160789489746094 -2.4020309448242188
-32.75944137573242 0.18520399928092957 -2.4020309448242188
-32.73991012573242 -1.1459616422653198 -2.4020309448242188
-32.70987319946289 -1.8109679222106934 -2.4020309448242188
-32.60928726196289 -3.1384947299957275 -2.4020309448242188
-32.53877639770508 -3.8004348278045654 -2.4020309448242188
-32.35749816894531 -5.1193437576293945 -2.4020309448242188
-32.24676513671875 -5.7757697105407715 -2.4020309448242188
-31.83500862121582 -7.729656219482422 -2.4020309448242188
-31.671382904052734 -8.374907493591309 -2.4020309448242188
-31.13054084777832 -9.601014137268066 -2.3886477947235107
-24.964380264282227 1.6654752492904663 -2.4020309448242188
-24.9930419921875 1.1578785181045532 -2.4020309448242188
-25.01143455505371 0.6498121619224548 -2.4020309448242188
-25.01944351196289 0.14144577085971832 -2.4020309448242188
-25.004554748535156 -0.875208854675293 -2.4020309448242188
-24.981611251831055 -1.3830963373184204 -2.4020309448242188
-24.94832992553711 -1.8904162645339966 -2.4020309448242188
-24.712491989135742 -3.9098122119903564 -2.4020309448242188
-24.313379287719727 -5.903383731842041 -2.4020309448242188
-24.18845558166504 -6.396188259124756 -2.4020309448242188
-23.75383758544922 -7.857967376708984 -2.4020309448242188
-20.176660537719727 1.3460700511932373 -2.4020309448242188
-20.21469497680664 0.5251911878585815 -2.4020309448242188
-20.22119140625 0.1143217459321022 -2.4020309448242188
-20.209136962890625 -0.707355797290802 -2.4020309448242188
-20.128503799438477 -1.9372763633728027 -2.4020309448242188
-20.084985733032227 -2.345867872238159 -2.4020309448242188
-19.973087310791016 -3.1599817276000977 -2.4020309448242188
-19.828205108642578 -3.968881130218506 -2.4020309448242188
-19.74346923828125 -4.3709564208984375 -2.4020309448242188
-19.65060043334961 -4.771215915679932 -2.4020309448242188
-19.32339096069336 -5.959554195404053 -2.4020309448242188
-19.198307037353516 -6.350959777832031 -2.4020309448242188
-16.91520118713379 1.128480076789856 -2.4020309448242188
-16.934635162353516 0.7845478653907776 -2.4020309448242188
-16.947093963623047 0.44029128551483154 -2.4020309448242188
-16.952545166015625 0.0958351120352745 -2.4020309448242188
-16.95097541809082 -0.24864211678504944 -2.4020309448242188
-16.942424774169922 -0.5930183529853821 -2.4020309448242188
-16.794902801513672 -2.308401346206665 -2.4020309448242188
-16.55202293395996 -3.664412260055542 -2.4020309448242188
-16.29802703857422 -4.666018486022949 -2.4020309448242188
-16.199853897094727 -4.996218681335449 -2.4020309448242188
-14.548479080200195 0.9705839157104492 -2.4020309448242188
-14.56518840789795 0.6747761368751526 -2.4020309448242188
-14.579240798950195 -0.21385237574577332 -2.4020309448242188
-14.571887969970703 -0.5100446939468384 -2.4020309448242188
-14.539130210876465 -1.1016775369644165 -2.4020309448242188
-14.513744354248047 -1.3968816995620728 -2.4020309448242188
-14.445013999938965 -1.9854174852371216 -2.4020309448242188
-14.401687622070312 -2.278517961502075 -2.4020309448242188
-14.352408409118652 -2.5706822872161865 -2.4020309448242188
-14.297208786010742 -2.8617818355560303 -2.4020309448242188
-14.236111640930176 -3.15169620513916 -2.4020309448242188
-13.933212280273438 -4.297158718109131 -2.4020309448242188
-13.843019485473633 -4.579391002655029 -2.4020309448242188
-12.775115966796875 0.3319053649902344 -2.4020309448242188
-12.742886543273926 -0.9655699133872986 -2.4020309448242188
-12.693135261535645 -1.4825211763381958 -2.4020309448242188
-12.622421264648438 -1.9970179796218872 -2.4020309448242188
-12.579245567321777 -2.253087043762207 -2.4020309448242188
-12.477307319641113 -2.762319326400757 -2.4020309448242188
-12.354780197143555 -3.26699161529541 -2.4020309448242188
-12.211831092834473 -3.7662649154663086 -2.4020309448242188
-12.132781982421875 -4.0136284828186035 -2.4020309448242188
-11.338363647460938 0.75642991065979 -2.4020309448242188
-11.351399421691895 0.5258879065513611 -2.4020309448242188
-11.359728813171387 0.2951350212097168 -2.4020309448242188
-11.362336158752441 -0.16666442155838013 -2.4020309448242188
-11.356613159179688 -0.3975033462047577 -2.4020309448242188
-11.286849021911621 -1.3182711601257324 -2.4020309448242188
-11.185578346252441 -2.003464698791504 -2.4020309448242188
-11.142557144165039 -2.2303307056427 -2.4020309448242188
-11.094940185546875 -2.4562785625457764 -2.4020309448242188
-10.985974311828613 -2.905035972595215 -2.4020309448242188
-10.858869552612305 -3.3489990234375 -2.4020309448242188
-10.197738647460938 0.6803327798843384 -2.4020309448242188
-10.209460258483887 0.4729841649532318 -2.4020309448242188
-10.216961860656738 0.26544296741485596 -2.4020309448242188
-10.219305992126465 -0.14989975094795227 -2.4020309448242188
-10.214151382446289 -0.35751524567604065 -2.4020309448242188
-10.204779624938965 -0.564983069896698 -2.4020309448242188
-10.1733980178833 -0.9791432023048401 -2.4020309448242188
-10.151402473449707 -1.1856541633605957 -2.4020309448242188
-10.12521743774414 -1.3916759490966797 -2.4020309448242188
-10.094891548156738 -1.5971251726150513 -2.4020309448242188
-9.978791236877441 -2.209179401397705 -2.4020309448242188
-9.880796432495117 -2.6127922534942627 -2.4020309448242188
-9.825666427612305 -2.813023567199707 -2.4020309448242188
-9.267255783081055 0.4293336272239685 -2.4020309448242188
-9.274109840393066 0.24093948304653168 -2.4020309448242188
-9.277045249938965 0.0524473562836647 -2.4020309448242188
-9.276205062866211 -0.13606689870357513 -2.4020309448242188
-9.271522521972656 -0.3245217800140381 -2.4020309448242188
-9.263015747070312 -0.5128433108329773 -2.4020309448242188
-9.23452091217041 -0.8887801766395569 -2.4020309448242188
-9.214555740356445 -1.0762330293655396 -2.4020309448242188
-9.190791130065918 -1.263242483139038 -2.4020309448242188
-9.163220405578613 -1.4497307538986206 -2.4020309448242188
-9.09675121307373 -1.8208363056182861 -2.4020309448242188
-8.918879508972168 -2.5534164905548096 -2.4020309448242188
-8.865153312683105 -2.734114408493042 -2.4020309448242188
-8.807768821716309 -2.9136853218078613 -2.4020309448242188
-8.466140747070312 0.5648106336593628 -2.4020309448242188
-8.484816551208496 0.04796859622001648 -2.4020309448242188
-8.484047889709473 -0.12444686889648438 -2.4020309448242188
-8.38071346282959 -1.325931191444397 -2.4020309448242188
-8.284363746643066 -1.834053874015808 -2.4020309448242188
-8.15723705291748 -2.3353633880615234 -2.4020309448242188
-8.108107566833496 -2.5006327629089355 -2.4020309448242188
-7.801122188568115 0.3614106774330139 -2.4020309448242188
-7.797546863555908 -0.4317074418067932 -2.4020309448242188
-7.78716516494751 -0.5900591611862183 -2.4020309448242188
-7.736753940582275 -1.0633901357650757 -2.4020309448242188
-7.713547229766846 -1.2203752994537354 -2.4020309448242188
-7.657571315765381 -1.532769799232483 -2.4020309448242188
-7.624867916107178 -1.6880501508712769 -2.4020309448242188
-7.549994468688965 -1.9964536428451538 -2.4020309448242188
-7.210177421569824 0.48102033138275146 -2.4020309448242188
-7.21846342086792 0.3344172537326813 -2.4020309448242188
-7.2260918617248535 0.040852051228284836 -2.4020309448242188
-7.225431442260742 -0.10598495602607727 -2.4020309448242188
-7.22178316116333 -0.2527766227722168 -2.4020309448242188
-7.215157985687256 -0.39946410059928894 -2.4020309448242188
-7.205549716949463 -0.5459883213043213 -2.4020309448242188
-7.192968368530273 -0.6922904849052429 -2.4020309448242188
-7.1774163246154785 -0.8383013606071472 -2.4020309448242188
-7.158901691436768 -0.9839665293693542 -2.4020309448242188
-7.113009929656982 -1.2740224599838257 -2.4020309448242188
-7.0553717613220215 -1.561970591545105 -2.4020309448242188
-7.022178649902344 -1.7050102949142456 -2.4020309448242188
-6.905258655548096 -2.1296603679656982 -2.4020309448242188
-6.860559940338135 -2.2695305347442627 -2.4020309448242188
-6.702054977416992 0.44712141156196594 -2.4020309448242188
-6.7097625732421875 0.310849130153656 -2.4020309448242188
-6.714692115783691 0.17445144057273865 -2.4020309448242188
-6.716235160827637 -0.09851577877998352 -2.4020309448242188
-6.712847709655762 -0.2349630743265152 -2.4020309448242188
-6.706685543060303 -0.3713127076625824 -2.4020309448242188
-6.686056137084961 -0.6435023546218872 -2.4020309448242188
-6.671601295471191 -0.7792234420776367 -2.4020309448242188
-6.634432792663574 -1.0496466159820557 -2.4020309448242188
-6.611734867095947 -1.1842381954193115 -2.4020309448242188
-6.586306571960449 -1.318337321281433 -2.4020309448242188
-6.493753910064697 -1.71715247631073 -2.4020309448242188
-6.457521915435791 -1.8487461805343628 -2.4020309448242188
-6.418630123138428 -1.979575514793396 -2.4020309448242188
-6.261338233947754 0.29007551074028015 -2.4020309448242188
-6.265938758850098 0.1627931147813797 -2.4020309448242188
-6.267953872680664 0.03543548658490181 -2.4020309448242188
-6.267378330230713 -0.09193176031112671 -2.4020309448242188
-6.264217376708984 -0.21925963461399078 -2.4020309448242188
-6.22573184967041 -0.7271472215652466 -2.4020309448242188
-6.20967435836792 -0.8534982204437256 -2.4020309448242188
-6.191047191619873 -0.979497492313385 -2.4020309448242188
-6.169867038726807 -1.1050912141799927 -2.4020309448242188
-6.119872093200684 -1.3548626899719238 -2.4020309448242188
-6.091078281402588 -1.4789354801177979 -2.4020309448242188
-6.059772968292236 -1.6023941040039062 -2.4020309448242188
-5.989660739898682 -1.8472799062728882 -2.4020309448242188
-5.950903415679932 -1.9686039686203003 -2.4020309448242188
-5.867013454437256 0.15242843329906464 -2.4020309448242188
-5.868362903594971 -0.08607940375804901 -2.4020309448242188
-5.865400791168213 -0.20530074834823608 -2.4020309448242188
-5.860018253326416 -0.3244374096393585 -2.4020309448242188
-5.841997146606445 -0.562264084815979 -2.4020309448242188
-5.814327716827393 -0.7991592288017273 -2.4020309448242188
-5.730241775512695 -1.2686034440994263 -2.4020309448242188
-5.499340057373047 0.3668827712535858 -2.4020309448242188
-5.505661487579346 0.2550654411315918 -2.4020309448242188
-5.509707927703857 0.1431443691253662 -2.4020309448242188
-5.510972023010254 -0.0808369442820549 -2.4020309448242188
-5.48621129989624 -0.5280227661132812 -2.4020309448242188
-5.443850994110107 -0.8612823486328125 -2.4020309448242188
-5.404360771179199 -1.0817551612854004 -2.4020309448242188
-5.3559465408325195 -1.3004430532455444 -2.4020309448242188
-5.298686504364014 -1.5169792175292969 -2.4020309448242188
-5.266757488250732 -1.6243315935134888 -2.4020309448242188
-5.232675552368164 -1.7310142517089844 -2.4020309448242188
-5.177753925323486 0.3454289138317108 -2.4020309448242188
-5.18751335144043 0.13477492332458496 -2.4020309448242188
-5.189182758331299 0.029336242005228996 -2.4020309448242188
-5.188705921173096 -0.0761096179485321 -2.4020309448242188
-5.181328773498535 -0.28686201572418213 -2.4020309448242188
-5.1542277336120605 -0.6019988656044006 -2.4020309448242188
-5.140932083129883 -0.7066033482551575 -2.4020309448242188
-5.107974529266357 -0.9148972630500793 -2.4020309448242188
-5.0883307456970215 -1.0184974670410156 -2.4020309448242188
-5.042747497558594 -1.2243974208831787 -2.4020309448242188
-4.988835334777832 -1.4282708168029785 -2.4020309448242188
-4.958784580230713 -1.5293442010879517 -2.4020309448242188
-4.886012554168701 0.3259657323360443 -2.4020309448242188
-4.891630172729492 0.22661910951137543 -2.4020309448242188
-4.896794319152832 0.027683867141604424 -2.4020309448242188
-4.893876075744629 -0.17129531502723694 -2.4020309448242188
-4.882876396179199 -0.3699914515018463 -2.4020309448242188
-4.874349117279053 -0.46913236379623413 -2.4020309448242188
-4.851266860961914 -0.6667898297309875 -2.4020309448242188
-4.836714744567871 -0.7652259469032288 -2.4020309448242188
-4.78110933303833 -1.0584774017333984 -2.4020309448242188
-4.758613586425781 -1.1554086208343506 -2.4020309448242188
-4.734153747558594 -1.2518589496612549 -2.4020309448242188
-4.707740783691406 -1.3477952480316162 -2.4020309448242188
-4.6300859451293945 0.026175841689109802 -2.4020309448242188
-4.627326488494873 -0.161965474486351 -2.4020309448242188
-4.60886287689209 -0.4435817003250122 -2.4020309448242188
-4.598898410797119 -0.5371379256248474 -2.4020309448242188
-4.557628631591797 -0.8163216710090637 -2.4020309448242188
-4.540102958679199 -0.9087623357772827 -2.4020309448242188
-4.4994306564331055 -1.0924776792526245 -2.4020309448242188
-4.380943298339844 0.20296035706996918 -2.4020309448242188
-4.384162425994873 0.11390304565429688 -2.4020309448242188
-4.385171413421631 -0.06432326883077621 -2.4020309448242188
-4.3829569816589355 -0.15341231226921082 -2.4020309448242188
-4.365468502044678 -0.4201563894748688 -2.4020309448242188
-4.261815547943115 -1.0347840785980225 -2.4020309448242188
-4.239910125732422 -1.12116539478302 -2.4020309448242188
-4.216254234313965 -1.2070859670639038 -2.4020309448242188
-2.2250938415527344 0.10308364778757095 -1.286036491394043
-2.2196764945983887 0.05766845494508743 -1.2819623947143555
-2.2124950885772705 0.012507934123277664 -1.277404546737671
-2.2222986221313477 -0.07778488099575043 -1.283829927444458
-2.226931095123291 -0.12329299747943878 -1.2876873016357422
-2.2297656536102295 -0.16895675659179688 -1.291046142578125
-2.2302050590515137 -0.2146470546722412 -1.293559193611145
-2.227526903152466 -0.2601686120033264 -1.2948051691055298
-4.1093292236328125 -0.6501449346542358 -2.4020309448242188
-4.042973518371582 -0.9816486835479736 -2.4020309448242188
-4.022194862365723 -1.0635943412780762 -2.4020309448242188
-3.999751567840576 -1.1451025009155273 -2.4020309448242188
-3.949923038482666 -1.3066684007644653 -2.4020309448242188
