ply
format ascii 1.0
element vertex 307
property float x
property float y
property float z
end_header
31.69038200378418 -17.506656646728516 6.383823871612549
31.69033432006836 -16.703006744384766 6.31650972366333
31.690284729003906 -15.915816307067871 6.252988815307617
31.690114974975586 -12.910961151123047 6.033775329589844
31.68998146057129 -10.092902183532715 5.86435604095459
31.6899471282959 -9.41163444519043 5.829013347625732
31.649763107299805 -8.727190017700195 5.7889838218688965
31.689899444580078 -8.072160720825195 5.766213417053223
31.689836502075195 -6.111245155334473 5.6907267570495605
31.649654388427734 -5.461212635040283 5.663156032562256
31.68980598449707 -4.19444465637207 5.636501312255859
31.689796447753906 -3.5628044605255127 5.6229705810546875
31.689781188964844 -17.50632667541504 5.546212673187256
31.68973731994629 -16.702699661254883 5.48773717880249
31.689699172973633 -15.915523529052734 5.432549953460693
31.68961524963379 -14.38632869720459 5.331508159637451
31.649381637573242 -12.89438247680664 5.235456466674805
31.68951416015625 -12.190808296203613 5.201486587524414
31.689483642578125 -11.481674194335938 5.163474082946777
31.689455032348633 -10.782553672790527 5.1279754638671875
31.689430236816406 -10.092724800109863 5.094907283782959
31.689401626586914 -9.41147518157959 5.06421422958374
31.68935775756836 -8.072021484375 5.009652137756348
31.68931770324707 -6.759120464324951 4.9638261795043945
26.272111892700195 -4.003750324249268 4.071212291717529
26.257484436035156 -3.475416898727417 4.057580947875977
31.648849487304688 -13.62476921081543 4.487011432647705
31.64879035949707 -12.175141334533691 4.415771484375
31.648698806762695 -9.39938735961914 4.29923677444458
31.648624420166016 -6.75044059753418 4.214014053344727
31.64859962463379 -4.82311487197876 4.168890476226807
31.648590087890625 -4.188990592956543 4.15725040435791
31.648576736450195 -3.5581655502319336 4.147266864776611
31.401885986328125 -16.55096435546875 3.8116936683654785
31.64834213256836 -15.124006271362305 3.766557455062866
34.84224319458008 -14.195175170898438 4.040011882781982
34.84222412109375 -13.4036226272583 4.008716106414795
34.84219741821289 -12.623945236206055 3.9794187545776367
34.84215545654297 -11.096819877624512 3.926583766937256
34.842124938964844 -9.607449531555176 3.881038188934326
34.84210968017578 -8.87508773803711 3.860873222351074
30.74364471435547 -16.983638763427734 2.973245143890381
32.9549560546875 -16.550962448120117 3.1217973232269287
34.559879302978516 -16.515348434448242 3.2424774169921875
36.45780563354492 -16.55095100402832 3.389394998550415
30.743078231811523 -16.983327865600586 2.1779403686523438
32.9549560546875 -16.550962448120117 2.2867953777313232
34.559261322021484 -16.515052795410156 2.375155448913574
38.259544372558594 -16.47063636779785 2.5830070972442627
31.249523162841797 -16.47065544128418 1.3928773403167725
34.466339111328125 -16.470645904541016 1.5062546730041504
38.259544372558594 -16.47063636779785 1.6424732208251953
31.249507904052734 -16.47065544128418 0.5966871380805969
38.259544372558594 -16.470640182495117 0.7036131024360657
30.741378784179688 -16.982389450073242 -0.19773361086845398
35.86478805541992 -17.138935089111328 -0.22379425168037415
37.339256286621094 -16.951112747192383 -0.23087264597415924
39.574180603027344 -17.036584854125977 -0.24257491528987885
30.740812301635742 -16.982078552246094 -0.9888940453529358
34.12569046020508 -17.138940811157227 -1.0752876996994019
35.86479187011719 -17.13893699645996 -1.1192599534988403
39.573486328125 -17.036287307739258 -1.2131704092025757
30.7402400970459 -16.981761932373047 -1.7810336351394653
31.249523162841797 -16.470659255981445 -1.7914433479309082
34.12569046020508 -17.13894271850586 -1.936660885810852
35.86480712890625 -17.13893699645996 -2.015866994857788
37.33793258666992 -16.950511932373047 -2.079554319381714
42.03045654296875 -16.16889762878418 -2.2838246822357178
42.31616973876953 -15.331896781921387 -2.2825441360473633
42.83620071411133 -13.642824172973633 -2.279919147491455
46.28021240234375 -12.761409759521484 -2.434656858444214
46.525272369384766 -11.851058959960938 -2.43483304977417
46.75214767456055 -10.935928344726562 -2.4349966049194336
47.1511116027832 -9.092864036560059 -2.43528413772583
47.32280349731445 -8.16563606262207 -2.435408115386963
47.476287841796875 -7.23516845703125 -2.435518980026245
47.611141204833984 -6.301764965057373 -2.4356164932250977
27.08139419555664 -14.960515022277832 -2.268510341644287
30.85024070739746 -11.867938995361328 -2.423612117767334
31.501583099365234 -10.032886505126953 -2.4240803718566895
32.04275894165039 -8.162028312683105 -2.4244699478149414
32.34144592285156 -6.898202419281006 -2.424685001373291
32.471946716308594 -6.262058734893799 -2.424779176712036
32.58983612060547 -5.623420238494873 -2.4248640537261963
32.69492721557617 -4.982555866241455 -2.4249401092529297
32.867027282714844 -3.6951372623443604 -2.4250645637512207
22.275836944580078 -11.740910530090332 -2.4174606800079346
22.93297576904297 -10.411012649536133 -2.4179322719573975
23.326791763305664 -9.503632545471191 -2.418215036392212
23.510168075561523 -9.044243812561035 -2.418346881866455
23.849584579467773 -8.115168571472168 -2.418590545654297
24.151987075805664 -7.172840595245361 -2.4188079833984375
24.41693878173828 -6.21955680847168 -2.418999671936035
24.64398956298828 -5.25639009475708 -2.4191641807556152
24.743202209472656 -4.771607875823975 -2.419235944747925
24.91275978088379 -3.7965893745422363 -2.419358968734741
17.79030418395996 -9.827857971191406 -2.4142534732818604
17.980871200561523 -9.477163314819336 -2.4143900871276855
18.34109115600586 -8.764771461486816 -2.4146487712860107
18.672914505004883 -8.038640975952148 -2.414886951446533
18.97589111328125 -7.299931526184082 -2.415104627609253
19.116344451904297 -6.926191329956055 -2.415205478668213
19.24942398071289 -6.549741268157959 -2.4153010845184326
19.603740692138672 -5.40558385848999 -2.415555715560913
19.802047729492188 -4.631957530975342 -2.415698528289795
19.889692306518555 -4.242331027984619 -2.415761709213257
19.969640731811523 -3.85105037689209 -2.4158194065093994
20.106258392333984 -3.0641016960144043 -2.4159178733825684
20.162919998168945 -2.6687445640563965 -2.415958881378174
20.211700439453125 -2.272338628768921 -2.415994167327881
15.214997291564941 -7.641425609588623 -2.4124133586883545
15.770309448242188 -6.42502498626709 -2.4128119945526123
15.894010543823242 -6.114343166351318 -2.412900686264038
16.01156997680664 -5.801276206970215 -2.412985324859619
16.12293243408203 -5.4859299659729 -2.413065195083618
16.419403076171875 -4.527525424957275 -2.413278341293335
16.50558090209961 -4.204349994659424 -2.4133405685424805
16.585386276245117 -3.8794918060302734 -2.413398265838623
16.725589752197266 -3.225450038909912 -2.413498878479004
16.88729476928711 -2.2351861000061035 -2.4136157035827637
13.204821586608887 -6.310269832611084 -2.4109771251678467
13.326664924621582 -6.049982070922852 -2.411064624786377
13.857746124267578 -4.715190410614014 -2.4114458560943604
14.18639087677002 -3.6136016845703125 -2.41168212890625
14.25491714477539 -3.3344099521636963 -2.411731481552124
14.317912101745605 -3.0539093017578125 -2.4117767810821533
14.375361442565918 -2.772219181060791 -2.411818265914917
14.42724323272705 -2.4894461631774902 -2.411855459213257
14.473554611206055 -2.205702781677246 -2.41188907623291
14.51424789428711 -1.9210915565490723 -2.4119184017181396
14.54934024810791 -1.6357353925704956 -2.4119436740875244
11.456649780273438 -5.7538743019104 -2.4097273349761963
11.5678071975708 -5.527982711791992 -2.409806966781616
12.05574893951416 -4.368013858795166 -2.4101572036743164
12.139493942260742 -4.130541801452637 -2.41021728515625
12.292885780334473 -3.6508758068084717 -2.410327434539795
12.362455368041992 -3.4088549613952637 -2.4103775024414062
12.427250862121582 -3.1655113697052 -2.41042423248291
12.542397499084473 -2.6752066612243652 -2.4105072021484375
12.592692375183105 -2.4284415245056152 -2.410543203353882
12.638124465942383 -2.180732488632202 -2.410576105117798
12.714282035827637 -1.682849645614624 -2.410630941390991
12.745007514953613 -1.4328808784484863 -2.4106533527374268
10.08080768585205 -5.313281059265137 -2.4087436199188232
10.377062797546387 -4.710935592651367 -2.4089560508728027
10.46785831451416 -4.506386756896973 -2.4090211391448975
10.637263298034668 -4.092102527618408 -2.4091429710388184
10.86047077178955 -3.4589309692382812 -2.4093031883239746
11.045886039733887 -2.8136417865753174 -2.4094364643096924
11.192880630493164 -2.158493995666504 -2.4095423221588135
11.269257545471191 -1.7173843383789062 -2.409597396850586
11.328198432922363 -1.2735952138900757 -2.409640073776245
8.968134880065918 -4.95424747467041 -2.4079480171203613
9.063944816589355 -4.7773261070251465 -2.4080166816711426
9.330244064331055 -4.23570442199707 -2.408207654953003
9.489809036254883 -3.8662688732147217 -2.408322334289551
9.70159912109375 -3.3010308742523193 -2.4084744453430176
9.879655838012695 -2.7242419719696045 -2.408602237701416
9.931396484375 -2.5297560691833496 -2.408639430999756
9.979299545288086 -2.3342907428741455 -2.4086740016937256
10.02334213256836 -2.1379101276397705 -2.408705711364746
10.063512802124023 -1.9407024383544922 -2.4087345600128174
10.099784851074219 -1.742734670639038 -2.4087607860565186
10.132160186767578 -1.5440936088562012 -2.4087841510772705
10.160612106323242 -1.3448480367660522 -2.4088046550750732
8.1384859085083 -4.4959235191345215 -2.4073548316955566
8.61178207397461 -3.508549690246582 -2.4076945781707764
8.679186820983887 -3.3388383388519287 -2.407742977142334
8.743242263793945 -3.1678314208984375 -2.4077889919281006
8.965458869934082 -2.472155809402466 -2.4079484939575195
9.012396812438965 -2.2956655025482178 -2.407982349395752
9.055851936340332 -2.118281126022339 -2.4080135822296143
9.095812797546387 -1.940071940422058 -2.4080424308776855
9.242589950561523 -1.03911554813385 -2.4081482887268066
7.441945552825928 -4.111135959625244 -2.4068570137023926
7.52142333984375 -3.9643068313598633 -2.406913995742798
7.5979905128479 -3.8159360885620117 -2.406968832015991
7.671618461608887 -3.6660821437835693 -2.4070217609405518
7.809975624084473 -3.3621771335601807 -2.407121181488037
7.874645709991455 -3.2082300186157227 -2.407167434692383
7.936266899108887 -3.053041934967041 -2.4072117805480957
8.050297737121582 -2.7391650676727295 -2.4072935581207275
8.197966575622559 -2.2605273723602295 -2.4073996543884277
8.24087905883789 -2.099141836166382 -2.407430648803711
8.280608177185059 -1.9369421005249023 -2.407459259033203
8.317138671875 -1.77398681640625 -2.4074854850769043
8.380541801452637 -1.4460762739181519 -2.407531261444092
8.430986404418945 -1.1159170866012573 -2.4075677394866943
8.451325416564941 -0.9501553177833557 -2.4075822830200195
6.848308086395264 -3.783193826675415 -2.406432628631592
6.921422958374023 -3.6480660438537598 -2.4064853191375732
6.991874694824219 -3.5115294456481934 -2.4065356254577637
7.124645709991455 -3.2344164848327637 -2.4066309928894043
7.186913967132568 -3.093947649002075 -2.4066755771636963
7.246410846710205 -2.9522814750671387 -2.4067184925079346
7.303105354309082 -2.80946683883667 -2.406759023666382
7.356982231140137 -2.6655659675598145 -2.4067976474761963
7.408022403717041 -2.5206246376037598 -2.406834363937378
7.501486778259277 -2.2278730869293213 -2.4069015979766846
7.54388427734375 -2.0801680088043213 -2.4069321155548096
7.58336877822876 -1.9316582679748535 -2.4069604873657227
7.711855411529541 -1.3306939601898193 -2.407052993774414
7.758266448974609 -1.0268750190734863 -2.4070866107940674
6.403488636016846 -3.3750805854797363 -2.4061148166656494
6.591466903686523 -2.992368698120117 -2.406249761581421
6.649067401885986 -2.8624050617218018 -2.4062912464141846
6.704099178314209 -2.7313365936279297 -2.4063305854797363
6.806384086608887 -2.466071605682373 -2.4064040184020996
6.853596210479736 -2.3319790363311768 -2.406437873840332
6.898151874542236 -2.1969804763793945 -2.4064700603485107
6.940048694610596 -2.0611300468444824 -2.4065001010894775
7.049602031707764 -1.6489962339401245 -2.40657901763916
7.08068323135376 -1.5102596282958984 -2.4066014289855957
7.134641170501709 -1.2310961484909058 -2.4066402912139893
5.888569355010986 -3.253007173538208 -2.4057486057281494
6.011970043182373 -3.0193920135498047 -2.4058361053466797
6.1260986328125 -2.781100034713745 -2.405917167663574
6.17962646484375 -2.6603152751922607 -2.4059555530548096
6.450026512145996 -1.915598750114441 -2.4061496257781982
6.486467361450195 -1.788595199584961 -2.4061758518218994
6.520407676696777 -1.6608998775482178 -2.406200408935547
6.580708026885986 -1.403619408607483 -2.4062438011169434
6.607053279876709 -1.2741400003433228 -2.4062628746032715
6.652077674865723 -1.0137454271316528 -2.4062952995300293
5.494385719299316 -3.035250186920166 -2.405468702316284
5.715993404388428 -2.5949225425720215 -2.4056265354156494
5.765927791595459 -2.4822185039520264 -2.4056620597839355
5.813642501831055 -2.3685522079467773 -2.405696153640747
5.859108924865723 -2.253969669342041 -2.405728816986084
5.9023118019104 -2.1385128498077393 -2.405759334564209
5.98187255859375 -1.9051562547683716 -2.405816078186035
6.052189826965332 -1.6688451766967773 -2.4058661460876465
6.164687156677246 -1.1888304948806763 -2.4059464931488037
6.186879634857178 -1.0675534009933472 -2.4059622287750244
6.224099159240723 -0.8238152861595154 -2.405989408493042
5.251829624176025 -2.6376259326934814 -2.4052963256835938
5.302685260772705 -2.533885955810547 -2.4053328037261963
5.525925159454346 -2.0021398067474365 -2.4054923057556152
5.634400367736816 -1.6733657121658325 -2.4055697917938232
5.695862770080566 -1.4508306980133057 -2.405613660812378
5.74852991104126 -1.2261202335357666 -2.405651092529297
5.792313098907471 -0.9994738698005676 -2.4056825637817383
5.810853004455566 -0.885546863079071 -2.405695915222168
5.827151775360107 -0.7712759375572205 -2.405707597732544
5.841200828552246 -0.6567071676254272 -2.405717611312866
4.931517124176025 -2.4767825603485107 -2.4050679206848145
5.110932350158691 -2.082242488861084 -2.40519642829895
5.188865661621094 -1.8800185918807983 -2.40525221824646
5.22484016418457 -1.7777862548828125 -2.405277967453003
5.290719032287598 -1.5712953805923462 -2.405325174331665
5.348428726196289 -1.362367868423462 -2.4053664207458496
5.374189376831055 -1.2570931911468506 -2.4053850173950195
5.397877216339111 -1.1513292789459229 -2.4054019451141357
5.419478416442871 -1.0451198816299438 -2.4054174423217773
5.471697807312012 -0.7242287993431091 -2.4054548740386963
5.484881401062012 -0.616648256778717 -2.4054644107818604
4.642739295959473 -2.331721544265747 -2.4048616886138916
4.81163215637207 -1.9603207111358643 -2.404982805252075
4.849251747131348 -1.8654834032058716 -2.4050097465515137
4.918862342834473 -1.6736745834350586 -2.405059814453125
4.950822830200195 -1.5768096446990967 -2.4050827026367188
4.98087739944458 -1.4792754650115967 -2.405104398727417
5.009007453918457 -1.381195306777954 -2.4051244258880615
5.035202503204346 -1.2825820446014404 -2.4051432609558105
5.102086067199707 -0.9839022755622864 -2.40519118309021
5.120450496673584 -0.8835427761077881 -2.4052042961120605
5.151240348815918 -0.6818133592605591 -2.405226707458496
5.163653373718262 -0.580534040927887 -2.405235528945923
4.540154933929443 -1.8497099876403809 -2.4047887325286865
4.575650691986084 -1.760236144065857 -2.4048142433166504
4.609377384185791 -1.6700594425201416 -2.4048385620117188
4.6413254737854 -1.5792416334152222 -2.4048614501953125
4.699836254119873 -1.395788550376892 -2.4049034118652344
4.726377964019775 -1.3032631874084473 -2.4049224853515625
4.77397346496582 -1.1166939735412598 -2.404956817626953
4.795011043548584 -1.0227420330047607 -2.4049718379974365
4.846985816955566 -0.7386581301689148 -2.4050095081329346
4.860576152801514 -0.6433416604995728 -2.4050192832946777
4.872288703918457 -0.547776460647583 -2.4050276279449463
4.181999206542969 -1.9984792470932007 -2.4045321941375732
4.220483303070068 -1.9159969091415405 -2.404559850692749
4.257341384887695 -1.8327748775482178 -2.4045863151550293
4.292551040649414 -1.748840570449829 -2.404611587524414
4.388201713562012 -1.4931139945983887 -2.4046804904937744
4.416708946228027 -1.406671404838562 -2.404700756072998
4.443515300750732 -1.3196831941604614 -2.4047200679779053
4.491971492767334 -1.144209623336792 -2.404755115509033
4.551630973815918 -0.8778128027915955 -2.4047980308532715
4.568011283874512 -0.7882342338562012 -2.4048097133636475
4.606546401977539 -0.5179000496864319 -2.4048378467559814
3.8424365520477295 -2.1226611137390137 -2.4042890071868896
3.9608874320983887 -1.8928148746490479 -2.404374122619629
4.065590858459473 -1.6563732624053955 -2.404449224472046
4.127565860748291 -1.4954910278320312 -2.404493808746338
4.183173656463623 -1.3322927951812744 -2.404533863067627
4.310949802398682 -0.8313604593276978 -2.40462589263916
4.32646369934082 -0.7465527057647705 -2.404636859893799
4.340307712554932 -0.6614477634429932 -2.4046471118927
4.362961292266846 -0.49051329493522644 -2.404663324356079
3.6837925910949707 -1.941614031791687 -2.4041757583618164
3.7212512493133545 -1.868923306465149 -2.404202461242676
3.824951171875 -1.6466323137283325 -2.4042770862579346
3.8565855026245117 -1.5712100267410278 -2.404299736022949
3.8867270946502686 -1.4951879978179932 -2.4043214321136475
3.992197275161743 -1.1856456995010376 -2.4043972492218018
4.055154800415039 -0.948553740978241 -2.404442548751831
4.089316368103027 -0.7886077761650085 -2.4044671058654785
