ply
format ascii 1.0
element vertex 300
property float x
property float y
property float z
end_header
-1.194863200187683 9.811996459960938 1.7428994178771973
-1.7592138051986694 9.586705207824707 1.7186203002929688
-2.241767644882202 9.945915222167969 1.7977294921875
-2.337158203125 9.476810455322266 1.7210832834243774
-2.52392578125 8.098869323730469 1.4957870244979858
-3.2761669158935547 9.194128036499023 1.7210195064544678
-3.4309422969818115 9.048945426940918 1.7064107656478882
-1.1793017387390137 9.684226036071777 1.4945281744003296
-1.5754833221435547 9.677433967590332 1.5020464658737183
-1.7859374284744263 9.732343673706055 1.515834927558899
-1.9873290061950684 9.72443962097168 1.520520567893982
-2.1690330505371094 9.623230934143066 1.511208415031433
-2.35498046875 9.549072265625 1.5066931247711182
-2.5298826694488525 9.43799877166748 1.4968914985656738
-2.4771435260772705 8.550166130065918 1.3637020587921143
-3.0776708126068115 9.219108581542969 1.4889360666275024
-3.2333641052246094 9.074004173278809 1.4757009744644165
-1.476709008216858 12.126482009887695 1.590786099433899
-1.3643505573272705 9.592604637145996 1.2617287635803223
-1.5669970512390137 9.625322341918945 1.2699203491210938
-1.772436499595642 9.658767700195312 1.2787749767303467
-1.9720897674560547 9.649882316589355 1.2825884819030762
-2.1710009574890137 9.631939888000488 1.285744547843933
-2.3359715938568115 9.471991539001465 1.2704061269760132
-2.4264111518859863 9.052007675170898 1.2203731536865234
-2.681103467941284 9.254151344299316 1.2546392679214478
-3.03790020942688 9.09997272491455 1.249294400215149
-3.447260618209839 9.674274444580078 1.3373816013336182
-1.476709008216858 12.126482963562012 1.3117822408676147
-1.7247363328933716 12.12647819519043 1.3152661323547363
-1.5471142530441284 9.503177642822266 1.033901333808899
-2.347905158996582 8.759125709533691 0.9737737774848938
-2.844233274459839 9.126704216003418 1.0265291929244995
-3.2075488567352295 9.608160972595215 1.0877145528793335
-3.4004735946655273 9.542978286743164 1.0878546237945557
-1.476709008216858 12.126482963562012 1.0341235399246216
-1.7247363328933716 12.12647819519043 1.036869764328003
-1.9741796255111694 12.12647533416748 1.040053129196167
-1.7278172969818115 9.415631294250488 0.8103682994842529
-1.9306689500808716 9.447214126586914 0.8162609934806824
-2.176464796066284 9.656195640563965 0.8379302620887756
-2.606562376022339 8.996866226196289 0.7929290533065796
-2.9744873046875 9.544669151306152 0.846307635307312
-3.164809465408325 9.480137825012207 0.8460577130317688
-1.7247363328933716 12.12647819519043 0.7595345973968506
-1.974184513092041 12.126474380493164 0.7618649005889893
-2.225273370742798 12.126473426818848 0.7645223736763
-2.1720409393310547 9.636570930480957 0.6125567555427551
-2.9355125427246094 9.419599533081055 0.6118188500404358
-1.476709008216858 12.126480102539062 0.4816927909851074
-1.7247363328933716 12.12647819519043 0.4829714894294739
-1.974184513092041 12.126474380493164 0.4844558537006378
-2.225273370742798 12.126471519470215 0.48614346981048584
-2.1676464080810547 9.617079734802246 0.38872435688972473
-2.3398680686950684 9.487807273864746 0.385323166847229
-2.478212833404541 12.126469612121582 0.20907104015350342
-2.163276433944702 9.597702026367188 0.1661900281906128
-1.476709008216858 12.126480102539062 -0.06877776980400085
-1.7247363328933716 12.126477241516113 -0.06896042078733444
-1.974184513092041 12.126474380493164 -0.06917327642440796
-2.225273370742798 12.126471519470215 -0.06941406428813934
-2.478217601776123 12.126469612121582 -0.06968521326780319
-1.7247363328933716 12.126477241516113 -0.3448924124240875
-1.974184513092041 12.126473426818848 -0.3459510803222656
-2.225273370742798 12.126471519470215 -0.34715697169303894
-1.476709008216858 12.126479148864746 -0.6195276975631714
-1.7247363328933716 12.126477241516113 -0.6211749315261841
-2.1573877334594727 9.571545600891113 -0.4975906312465668
-11.328422546386719 45.935096740722656 -2.3993513584136963
-13.163371086120605 45.43500518798828 -2.398953437805176
-14.07280445098877 45.15742111206055 -2.3987560272216797
-21.95288848876953 41.85831832885742 -2.397045612335205
-22.788148880004883 41.40545654296875 -2.396864175796509
-1.974184513092041 12.126473426818848 -0.9008445739746094
-2.225273370742798 12.126470565795898 -0.9039866328239441
-7.340512752532959 29.764644622802734 -2.247797727584839
-7.936864852905273 29.609392166137695 -2.247668504714966
-9.107888221740723 31.43698501586914 -2.3998167514801025
-10.362899780273438 31.041893005371094 -2.3995444774627686
-11.600930213928223 30.5969181060791 -2.3992760181427
-13.421723365783691 29.83722496032715 -2.39888072013855
-14.01800537109375 29.559783935546875 -2.3987512588500977
-15.19320011138916 28.96940040588379 -2.398496150970459
-15.77163028717041 28.656652450561523 -2.3983705043792725
-1.4767041206359863 12.126480102539062 -1.1728012561798096
-1.7247363328933716 12.126474380493164 -1.1759182214736938
-1.974184513092041 12.126473426818848 -1.1795294284820557
-2.225268602371216 12.126470565795898 -1.1836400032043457
-6.062722206115723 22.617694854736328 -2.2480669021606445
-6.515856742858887 22.490270614624023 -2.2479686737060547
-6.966306209564209 22.353796005249023 -2.247871160507202
-8.299845695495605 21.890460968017578 -2.2475814819335938
-9.329848289489746 23.189786911010742 -2.3997600078582764
-12.049323081970215 21.893327713012695 -2.399169445037842
-1.476709008216858 12.126479148864746 -1.4510964155197144
-1.7247314453125 12.12647533416748 -1.4549524784088135
-1.9741796255111694 12.126473426818848 -1.4594194889068604
-4.900820255279541 18.2830810546875 -2.2484426498413086
-5.266860008239746 18.17922592163086 -2.2482399940490723
-5.992870807647705 17.95155143737793 -2.248077154159546
-6.352277755737305 17.826841354370117 -2.2479991912841797
-6.709098815917969 17.694929122924805 -2.2479217052459717
-7.4143967628479 17.409799575805664 -2.2477686405181885
-8.107626914978027 17.096569061279297 -2.2476181983947754
-9.383066177368164 17.89101219177246 -2.399742603302002
-9.740490913391113 17.698225021362305 -2.399665117263794
-1.4767041206359863 12.126479148864746 -1.7308850288391113
-1.7247363328933716 12.126474380493164 -1.7354837656021118
-1.6187353134155273 9.943120956420898 -1.4273812770843506
-1.8730322122573853 10.206937789916992 -1.470361351966858
-2.1576220989227295 9.572614669799805 -1.3903628587722778
-5.024804592132568 15.051737785339355 -2.2483701705932617
-5.325991153717041 14.946695327758789 -2.248218297958374
-5.625190258026123 14.83617877960205 -2.2481534481048584
-5.922111511230469 14.719691276550293 -2.248089075088501
-6.797917366027832 14.334789276123047 -2.247899055480957
-7.084492206573486 14.194856643676758 -2.2478368282318115
-7.368200302124023 14.049201011657715 -2.247775077819824
-1.4767041206359863 12.12647819519043 -2.012464761734009
-1.7247314453125 12.12647533416748 -2.017810821533203
-1.6915526390075684 9.21799087524414 -1.5439201593399048
-1.8492333889007568 9.048710823059082 -1.5214877128601074
-2.028559446334839 9.000022888183594 -1.519850730895996
-2.2097508907318115 8.960211753845215 -1.5203241109848022
-2.418813467025757 9.023663520812988 -1.5390310287475586
-2.668149471282959 9.209426879882812 -1.5795434713363647
-4.060981273651123 13.031055450439453 -2.248553991317749
-4.581235408782959 12.856637001037598 -2.2484374046325684
-5.094038009643555 12.661458015441895 -2.2483248710632324
-5.347236156463623 12.555882453918457 -2.24821138381958
-5.847304344177246 12.330219268798828 -2.2481026649475098
-1.4464452266693115 11.8779296875 -2.2490782737731934
-1.8774999380111694 9.18702220916748 -1.7624917030334473
-2.053725481033325 9.111648559570312 -1.755597472190857
-2.2416796684265137 9.089666366577148 -1.759690523147583
-2.4560985565185547 9.162745475769043 -1.783036708831787
-3.3291258811950684 11.490870475769043 -2.248652935028076
-3.7881200313568115 11.34726333618164 -2.248551845550537
-4.015361309051514 11.26858139038086 -2.248502016067505
-4.686909198760986 11.005363464355469 -2.248354196548462
-4.907080173492432 10.908697128295898 -2.2483060359954834
-5.125253677368164 10.807622909545898 -2.248257875442505
-5.555278301239014 10.59244155883789 -2.248164176940918
-5.76696252822876 10.47842025756836 -2.2481181621551514
-1.70962393283844 10.501394271850586 -2.249007225036621
-1.9205565452575684 9.39771556854248 -2.027547597885132
-2.2197265625 9.848151206970215 -2.1339235305786133
-2.5473973751068115 10.329297065734863 -2.2488231658935547
-3.3685741424560547 10.090493202209473 -2.248642683029175
-3.5706493854522705 10.020548820495605 -2.248598337173462
-3.9703710079193115 9.868544578552246 -2.2485103607177734
-4.557670593261719 9.610762596130371 -2.2483813762664795
-4.749848365783691 9.517029762268066 -2.2483389377593994
-5.128349304199219 9.318076133728027 -2.248255729675293
-1.1568310260772705 9.499638557434082 -2.2491273880004883
-1.3475195169448853 9.474291801452637 -2.2490856647491455
-1.7271728515625 9.412127494812012 -2.24900221824646
-2.477421760559082 9.242298126220703 -2.248837471008301
-3.211557626724243 9.012802124023438 -2.248676061630249
-3.5710935592651367 8.876120567321777 -2.2485969066619873
-4.099355220794678 8.644305229187012 -2.248480796813965
-1.0500781536102295 8.62302303314209 -2.249150037765503
-1.395776391029358 8.573566436767578 -2.2490739822387695
-1.9098730087280273 8.473427772521973 -2.2489612102508545
-2.079785108566284 8.433187484741211 -2.2489237785339355
-2.416982412338257 8.342503547668457 -2.248849630355835
-2.7502636909484863 8.238343238830566 -2.248776435852051
-3.241630792617798 8.057221412658691 -2.2486684322357178
-4.033442497253418 7.69068717956543 -2.2484941482543945
-4.187153339385986 7.607944011688232 -2.248460292816162
-1.1187353134155273 7.865703105926514 -2.249134063720703
-1.433935523033142 7.814141750335693 -2.2490649223327637
-1.5906884670257568 7.783616542816162 -2.249030351638794
-1.7468066215515137 7.749955654144287 -2.2489960193634033
-2.363520383834839 7.584146499633789 -2.2488605976104736
-2.515454053878784 7.534991264343262 -2.2488272190093994
-2.6663670539855957 7.482792854309082 -2.248793840408325
-2.8161962032318115 7.427579402923584 -2.248760938644409
-2.9648828506469727 7.369361400604248 -2.2487282752990723
-3.112368106842041 7.308171272277832 -2.2486958503723145
-3.5470361709594727 7.106997013092041 -2.2486002445220947
-3.6891257762908936 7.034164905548096 -2.2485690116882324
-3.829716682434082 6.958489894866943 -2.248538017272949
-2.034677743911743 7.022932052612305 -2.248932123184204
-2.454150438308716 6.887251853942871 -2.248839855194092
-2.864672899246216 6.726545333862305 -2.2487497329711914
-2.999267578125 6.667518138885498 -2.2487199306488037
-3.2647509574890137 6.541409969329834 -2.248661518096924
-3.3955321311950684 6.474374771118164 -2.2486324310302734
-3.5249509811401367 6.404736042022705 -2.2486038208007812
-0.9527880549430847 6.698924541473389 -2.24916934967041
-1.0872313976287842 6.678329944610596 -2.2491395473480225
-1.8827391862869263 6.498489856719971 -2.248964548110962
-2.012953996658325 6.459248065948486 -2.2489359378814697
-2.142387628555298 6.417399883270264 -2.2489073276519775
-2.2709081172943115 6.372960090637207 -2.2488789558410645
-2.775336742401123 6.16965913772583 -2.2487683296203613
-1.1351903676986694 6.186089992523193 -2.2491281032562256
-1.382875919342041 6.135315895080566 -2.2490739822387695
-1.5059081315994263 6.106202125549316 -2.24904727935791
-1.7500829696655273 6.040597915649414 -2.2489941120147705
-1.991430640220642 5.965236663818359 -2.248941659927368
-2.110893487930298 5.92393684387207 -2.2489166259765625
-2.347245931625366 5.834178447723389 -2.248867988586426
-2.6944236755371094 5.681929588317871 -2.2487971782684326
-3.038886547088623 5.521565914154053 -2.2538466453552246
-0.8264697194099426 5.810776233673096 -2.249204397201538
-0.9429491758346558 5.792929649353027 -2.2491796016693115
-1.0592870712280273 5.772733211517334 -2.249154806137085
-1.5229443311691284 5.681492805480957 -2.2541139125823975
-1.6368261575698853 5.64968729019165 -2.2540957927703857
-1.7502050399780273 5.616113185882568 -2.254283905029297
-1.974365234375 5.540783405303955 -2.254103183746338
-2.0852489471435547 5.499739646911621 -2.25400710105896
-2.1952781677246094 5.456473350524902 -2.2539069652557373
-2.5197949409484863 5.313485145568848 -2.253584861755371
-2.7310497760772705 5.207370281219482 -2.253351926803589
-0.775561511516571 5.452905178070068 -2.254197120666504
-0.9940624833106995 5.417061805725098 -2.2540876865386963
-1.3186376094818115 5.346843242645264 -2.2538950443267822
-1.53237783908844 5.289175987243652 -2.2537477016448975
-1.7436083555221558 5.222935676574707 -2.2535858154296875
-1.84817373752594 5.186634540557861 -2.2534995079040527
-1.9519726037979126 5.148231029510498 -2.2534096240997314
-2.1571435928344727 5.065185546875 -2.25321888923645
-2.358774423599243 4.97393798828125 -2.25301456451416
-2.653876781463623 4.822017669677734 -2.252682685852051
-0.6251025199890137 5.133196830749512 -2.253659725189209
-0.7281396389007568 5.119489669799805 -2.2536139488220215
-0.8308837413787842 5.103708267211914 -2.2535643577575684
-1.035302758216858 5.065938472747803 -2.2534544467926025
-1.1368944644927979 5.043971061706543 -2.25339412689209
-1.2380175590515137 5.019957065582275 -2.2533302307128906
-1.3386377096176147 4.993907451629639 -2.253262996673584
-1.6370214223861694 4.903665542602539 -2.253040075302124
-1.9293749332427979 4.795546531677246 -2.252786874771118
-2.0252978801727295 4.755602836608887 -2.2526957988739014
-2.1203906536102295 4.713736057281494 -2.252601385116577
-2.307934522628784 4.624293327331543 -2.2524030208587646
-2.4003124237060547 4.576756000518799 -2.2522990703582764
-0.5884130597114563 4.831889629364014 -2.25313138961792
-0.78211909532547 4.804142951965332 -2.2530417442321777
-0.8785058259963989 4.787345886230469 -2.2529916763305664
-1.070165991783142 4.747934341430664 -2.2528815269470215
-1.447900414466858 4.646099090576172 -2.2526214122772217
-1.540956974029541 4.61590576171875 -2.2525482177734375
-1.6333739757537842 4.583841323852539 -2.252471923828125
-1.8161669969558716 4.514163017272949 -2.252309799194336
-1.9064648151397705 4.476574420928955 -2.2522239685058594
-1.9959814548492432 4.437172889709473 -2.2521352767944336
-2.0846824645996094 4.3959760665893555 -2.2520434856414795
-2.2594969272613525 4.308264255523682 -2.2518508434295654
-2.345536947250366 4.261783123016357 -2.2517502307891846
-0.6466454863548279 4.546506404876709 -2.2526113986968994
-0.91943359375 4.498984336853027 -2.252470016479492
-1.0994677543640137 4.458173751831055 -2.2523598670959473
-1.1888232231140137 4.435056209564209 -2.2523000240325928
-1.3660497665405273 4.383438587188721 -2.252171277999878
-1.627602458000183 4.292725086212158 -2.251955270767212
-1.7135009765625 4.258995056152344 -2.2518773078918457
-1.7987011671066284 4.223540782928467 -2.2517964839935303
-1.966860294342041 4.147517204284668 -2.2516260147094727
-0.7835351228713989 4.269838333129883 -2.2520906925201416
-0.869189441204071 4.2531352043151855 -2.2520430088043213
-0.9544872641563416 4.234710216522217 -2.251992702484131
-1.1238720417022705 4.192718982696533 -2.251882314682007
-1.2914159297943115 4.14393424987793 -2.251760721206665
-1.6198877096176147 4.026317119598389 -2.2514827251434326
-1.700439453125 3.992807626724243 -2.25140643119812
-1.7802881002426147 3.9576830863952637 -2.2513272762298584
-1.859413981437683 3.920955181121826 -2.2512452602386475
-1.937783122062683 3.882638454437256 -2.2511608600616455
-2.0153613090515137 3.842752695083618 -2.2510735988616943
-0.49699217081069946 4.081225872039795 -2.2518150806427
-0.5789160132408142 4.070346355438232 -2.2517786026000977
-0.7420263290405273 4.043641090393066 -2.251697063446045
-0.8231493830680847 4.027827262878418 -2.2516517639160156
-0.9039208889007568 4.010383129119873 -2.251603841781616
-0.9843261241912842 3.991312265396118 -2.2515532970428467
-1.3796825408935547 3.871891498565674 -2.251258373260498
-1.4571874141693115 3.84326171875 -2.2511911392211914
-1.6860156059265137 3.748087167739868 -2.250974178314209
-1.7609423398971558 3.7133123874664307 -2.250896453857422
-1.8351659774780273 3.677034854888916 -2.250816583633423
-1.9086425304412842 3.639268636703491 -2.2507340908050537
-0.47139647603034973 3.871022939682007 -2.251446485519409
-0.6265869140625 3.8488237857818604 -2.2513744831085205
-0.7038134336471558 3.835386276245117 -2.2513344287872314
-0.9336376786231995 3.7857635021209717 -2.2511982917785645
-1.0095263719558716 3.7661473751068115 -2.251147508621216
-1.084999918937683 3.7450053691864014 -2.251094102859497
-1.1600244045257568 3.722346782684326 -2.251038074493408
-1.2345800399780273 3.6981804370880127 -2.2509796619415283
-1.308632731437683 3.672518253326416 -2.250918388366699
-1.3821532726287842 3.645367383956909 -2.250854730606079
-1.455102562904358 3.6167399883270264 -2.250788688659668
-1.5274658203125 3.5866539478302 -2.2507200241088867
-1.6702831983566284 3.522134304046631 -2.250575304031372
-1.8103857040405273 3.4519152641296387 -2.2504212856292725
-1.8793407678604126 3.414703845977783 -2.250340700149536
