ply
format ascii 1.0
element vertex 296
property float x
property float y
property float z
end_header
40.05845642089844 -18.09942626953125 6.7340521812438965
40.720272064208984 -17.415695190429688 6.784703731536865
40.03038024902344 -20.07377815246582 4.808720111846924
39.55235290527344 -17.87074851989746 4.660603046417236
38.41748809814453 -19.26496696472168 3.638141393661499
38.86754608154297 -15.701342582702637 3.548570394515991
39.74467849731445 -15.128188133239746 3.5999841690063477
38.457733154296875 -18.32147216796875 2.641575813293457
38.03240203857422 -16.26612091064453 2.5650432109832764
40.35491180419922 -16.30219268798828 1.7161706686019897
41.91639709472656 -15.954822540283203 1.7684884071350098
31.33420753479004 -16.51422119140625 -0.9973434209823608
31.252811431884766 -15.672138214111328 -0.9844598174095154
34.51252746582031 -15.593649864196777 -1.0663877725601196
36.30952072143555 -15.529253005981445 -1.1119781732559204
40.67980194091797 -15.484146118164062 -1.2256245613098145
31.1370792388916 -17.223722457885742 -1.804578185081482
31.450029373168945 -16.57526397705078 -1.8029202222824097
31.282958984375 -15.687248229980469 -1.7747914791107178
32.74354553222656 -15.599227905273438 -1.8393797874450684
36.50415802001953 -15.612494468688965 -2.013493299484253
42.09901428222656 -13.162721633911133 -2.2369444370269775
42.357059478759766 -12.308852195739746 -2.2369720935821533
46.347068786621094 -8.514765739440918 -2.389787435531616
46.51002883911133 -7.575849533081055 -2.389805316925049
46.65407180786133 -6.63381290435791 -2.3898210525512695
46.7787971496582 -5.689032554626465 -2.3898348808288574
46.88459777832031 -4.741946220397949 -2.3898468017578125
27.251522064208984 -15.802400588989258 -2.3097763061523438
27.613563537597656 -14.553327560424805 -2.2886712551116943
27.918554306030273 -14.000136375427246 -2.2900118827819824
28.777626037597656 -13.002463340759277 -2.3154218196868896
29.331825256347656 -12.54495906829834 -2.3391199111938477
30.052284240722656 -12.140233993530273 -2.3765013217926025
30.684188842773438 -10.974357604980469 -2.389400005340576
31.092695236206055 -9.721467971801758 -2.3886170387268066
31.456298828125 -8.45517349243164 -2.38830828666687
31.62056541442871 -7.817272663116455 -2.3882899284362793
31.772167205810547 -7.176243782043457 -2.3882858753204346
31.910945892333984 -6.532305717468262 -2.388300895690918
32.14935302734375 -5.236687660217285 -2.38832688331604
21.65984344482422 -12.559943199157715 -2.4037697315216064
22.149383544921875 -11.67351245880127 -2.4037044048309326
22.380634307861328 -11.223066329956055 -2.4036693572998047
22.602645874023438 -10.768019676208496 -2.403632879257202
23.21278190612793 -9.377277374267578 -2.403514862060547
23.397274017333984 -8.905814170837402 -2.403472423553467
23.57222557067871 -8.43067455291748 -2.4034290313720703
23.737342834472656 -7.95215368270874 -2.40338397026062
23.89289093017578 -7.470351219177246 -2.4033374786376953
24.174394607543945 -6.497884750366211 -2.40324068069458
24.416357040405273 -5.514819622039795 -2.4031383991241455
24.52235221862793 -5.019832134246826 -2.403085470199585
24.618261337280273 -4.522818088531494 -2.40303111076355
24.704139709472656 -4.023982524871826 -2.402975559234619
17.896249771118164 -9.431958198547363 -2.4029972553253174
18.26258659362793 -8.700397491455078 -2.402939558029175
18.434551239013672 -8.32919692993164 -2.4029088020324707
18.59896469116211 -7.954606533050537 -2.40287709236145
18.755762100219727 -7.576773643493652 -2.402844190597534
19.046239852905273 -6.811982154846191 -2.4027748107910156
19.425750732421875 -5.645071983337402 -2.4029619693756104
19.538721084594727 -5.251838207244873 -2.4033069610595703
19.735136032104492 -4.457490921020508 -2.403310537338257
19.899316787719727 -3.6557915210723877 -2.4033119678497314
20.030858993530273 -2.8481836318969727 -2.4033114910125732
14.67171859741211 -8.507723808288574 -2.4030470848083496
15.1607027053833 -7.602541923522949 -2.403067111968994
15.311327934265137 -7.29447078704834 -2.4030730724334717
15.455810546875 -6.983326435089111 -2.403078317642212
15.59383773803711 -6.6693854331970215 -2.403083324432373
15.725595474243164 -6.3526740074157715 -2.403088092803955
15.850858688354492 -6.03339147567749 -2.403092384338379
16.18758773803711 -5.061229228973389 -2.403102397918701
16.286649703979492 -4.7328572273254395 -2.4031050205230713
16.46473503112793 -4.07042121887207 -2.403108835220337
16.543670654296875 -3.736666202545166 -2.4031100273132324
16.681259155273438 -3.0646393299102783 -2.403111457824707
16.791532516479492 -2.3876125812530518 -2.403110980987549
16.836395263671875 -2.047565460205078 -2.4031100273132324
16.874326705932617 -1.7066797018051147 -2.403108596801758
12.90379810333252 -6.800745487213135 -2.4029223918914795
13.038710594177246 -6.538434982299805 -2.4029276371002197
13.16830062866211 -6.273437976837158 -2.402932643890381
13.292490005493164 -6.00587272644043 -2.402937412261963
13.411230087280273 -5.735861778259277 -2.402941942214966
13.632246017456055 -5.188899993896484 -2.402949333190918
13.734414100646973 -4.912176132202148 -2.4029526710510254
13.921825408935547 -4.352808952331543 -2.4029579162597656
14.007011413574219 -4.070396423339844 -2.4029603004455566
14.0864839553833 -3.7863147258758545 -2.4029622077941895
14.160165786743164 -3.5006911754608154 -2.402963399887085
14.228066444396973 -3.2136316299438477 -2.4029645919799805
14.290145874023438 -2.9252541065216064 -2.4029653072357178
14.346405982971191 -2.635683298110962 -2.402965545654297
11.309091567993164 -5.960279941558838 -2.4028172492980957
11.540888786315918 -5.498141765594482 -2.4028260707855225
11.649755477905273 -5.263649940490723 -2.4028303623199463
11.75381851196289 -5.02700138092041 -2.402834177017212
12.1216402053833 -4.060818195343018 -2.402846097946167
12.201298713684082 -3.814871072769165 -2.402848482131958
12.275946617126465 -3.5673601627349854 -2.402850389480591
12.345595359802246 -3.3183860778808594 -2.4028520584106445
12.524101257324219 -2.5637354850769043 -2.4028549194335938
12.57338809967041 -2.3099496364593506 -2.402855157852173
12.617528915405273 -2.05522084236145 -2.402855157852173
12.656494140625 -1.7996490001678467 -2.4028546810150146
12.690312385559082 -1.5433385372161865 -2.4028542041778564
12.71889591217041 -1.2864006757736206 -2.40285325050354
10.4512300491333 -4.469898700714111 -2.402749538421631
10.703056335449219 -3.8280017375946045 -2.4027581214904785
10.778290748596191 -3.610783100128174 -2.4027602672576904
10.849111557006836 -3.3920915126800537 -2.4027621746063232
10.915497779846191 -3.172011613845825 -2.402763843536377
11.034843444824219 -2.728046417236328 -2.402766466140747
11.136122703552246 -2.2796132564544678 -2.4027678966522217
11.253867149353027 -1.6002031564712524 -2.4027678966522217
11.283915519714355 -1.3723013401031494 -2.4027671813964844
8.843769073486328 -5.128256320953369 -2.4026594161987305
9.316357612609863 -4.209360122680664 -2.4026782512664795
9.39957046508789 -4.020112991333008 -2.402681350708008
9.478964805603027 -3.8292198181152344 -2.402684211730957
9.62606430053711 -3.442808151245117 -2.40268874168396
9.872812271118164 -2.6537234783172607 -2.402695655822754
9.972041130065918 -2.2523438930511475 -2.4026973247528076
10.090263366699219 -1.643565058708191 -2.402698040008545
10.148476600646973 -1.2342126369476318 -2.4026973247528076
8.294940948486328 -4.159605026245117 -2.402616024017334
8.603964805603027 -3.475747585296631 -2.402627468109131
8.856719017028809 -2.7691497802734375 -2.402635335922241
8.910918235778809 -2.5894863605499268 -2.402636766433716
9.008330345153809 -2.2270519733428955 -2.4026389122009277
9.091025352478027 -1.8609713315963745 -2.4026401042938232
9.126806259155273 -1.6767535209655762 -2.4026401042938232
9.15884780883789 -1.4918487071990967 -2.4026401042938232
9.187138557434082 -1.3063321113586426 -2.402642250061035
9.211709022521973 -1.120288372039795 -2.402649402618408
9.23250961303711 -0.9337835311889648 -2.402656316757202
7.341777324676514 -4.25728702545166 -2.402559518814087
7.426366806030273 -4.107958793640137 -2.4025628566741943
7.507939338684082 -3.956944704055786 -2.402566432952881
7.803164005279541 -3.337341785430908 -2.4025776386260986
7.869071960449219 -3.17887020111084 -2.4025797843933105
7.931737899780273 -3.019094228744507 -2.4025819301605225
7.991181373596191 -2.858083963394165 -2.4025840759277344
8.047343254089355 -2.6959033012390137 -2.402585744857788
8.100214958190918 -2.5326225757598877 -2.4025871753692627
8.149785041809082 -2.368304967880249 -2.402588367462158
8.238896369934082 -2.036827564239502 -2.402590274810791
8.424931526184082 -1.0246026515960693 -2.4026103019714355
6.910117149353027 -3.6418731212615967 -2.4025182723999023
7.051747798919678 -3.3594818115234375 -2.4025323390960693
7.118261337280273 -3.2162132263183594 -2.4025349617004395
7.181855201721191 -3.0716137886047363 -2.4025373458862305
7.500878810882568 -2.1797425746917725 -2.4025473594665527
7.582890510559082 -1.874650239944458 -2.4025490283966064
7.619247913360596 -1.7209267616271973 -2.4025495052337646
7.652499675750732 -1.5664989948272705 -2.4025521278381348
7.709619045257568 -1.2557915449142456 -2.4025650024414062
7.754140377044678 -0.943021833896637 -2.4025774002075195
6.252343654632568 -3.625554084777832 -2.4024505615234375
6.324384689331055 -3.4983885288238525 -2.4024579524993896
6.393867015838623 -3.369788646697998 -2.402465343475342
6.52493143081665 -3.108511209487915 -2.4024791717529297
6.645331859588623 -2.84214448928833 -2.402491807937622
6.701464653015137 -2.7071897983551025 -2.4024977684020996
6.754843711853027 -2.5711259841918945 -2.402503490447998
6.805468559265137 -2.434007167816162 -2.402507781982422
6.85330057144165 -2.2958929538726807 -2.4025092124938965
7.108739852905273 -1.3059993982315063 -2.402531385421753
7.133710861206055 -1.1619805097579956 -2.4025373458862305
7.155781269073486 -1.0174916982650757 -2.402543067932129
7.174931526184082 -0.8725256323814392 -2.4025485515594482
5.878583908081055 -3.2517857551574707 -2.4024124145507812
5.943163871765137 -3.132251024246216 -2.402419090270996
6.064990043640137 -2.889387845993042 -2.4024319648742676
6.12218713760376 -2.7661585807800293 -2.402437925338745
6.176894187927246 -2.6417970657348633 -2.4024438858032227
6.229052543640137 -2.5163543224334717 -2.402449369430542
6.325742244720459 -2.2624306678771973 -2.4024596214294434
6.370224475860596 -2.13405442237854 -2.4024641513824463
6.412079811096191 -2.004804849624634 -2.402468681335449
6.48790979385376 -1.7438945770263672 -2.4024767875671387
6.581737995147705 -1.3473049402236938 -2.402486801147461
6.607656002044678 -1.2139415740966797 -2.40248966217041
6.630849361419678 -1.0800750255584717 -2.402492046356201
6.669120788574219 -0.8110690116882324 -2.402496337890625
6.684160232543945 -0.6760409474372864 -2.4024980068206787
5.485615253448486 -3.0344128608703613 -2.402372121810913
5.603867053985596 -2.8101303577423096 -2.4023845195770264
5.712939262390137 -2.5812463760375977 -2.4023959636688232
5.763964653015137 -2.4651994705200195 -2.4024014472961426
5.858974456787109 -2.2301225662231445 -2.402411460876465
5.94436502456665 -1.9913973808288574 -2.4024205207824707
5.98342752456665 -1.8707870244979858 -2.4024245738983154
6.02004861831665 -1.7494112253189087 -2.40242862701416
6.141757488250732 -1.2572451829910278 -2.4024417400360107
6.165937423706055 -1.1327911615371704 -2.402444362640381
6.187587738037109 -1.0078731775283813 -2.4024465084075928
6.206708908081055 -0.8825417757034302 -2.4024486541748047
6.223290920257568 -0.7568502426147461 -2.4024505615234375
5.077773094177246 -2.9444589614868164 -2.402330160140991
5.192705154418945 -2.736741065979004 -2.4023420810699463
5.299140453338623 -2.524543285369873 -2.402353286743164
5.396923542022705 -2.308213710784912 -2.4023637771606445
5.526962757110596 -1.9767489433288574 -2.4023773670196533
5.565820217132568 -1.8645824193954468 -2.402381420135498
5.602402210235596 -1.7516528367996216 -2.4023854732513428
5.636689186096191 -1.638006567955017 -2.4023890495300293
5.668671607971191 -1.5236879587173462 -2.402392625808716
5.698320388793945 -1.4087469577789307 -2.402395725250244
5.750644207000732 -1.1771817207336426 -2.4024014472961426
5.793554782867432 -0.9436901807785034 -2.4024062156677246
5.811454772949219 -0.8263397216796875 -2.4024078845977783
5.840126991271973 -0.5906753540039062 -2.4024112224578857
4.768466472625732 -2.7651000022888184 -2.4022984504699707
5.261132717132568 -1.64495050907135 -2.402350425720215
5.293339729309082 -1.5382275581359863 -2.4023537635803223
5.323349475860596 -1.430871605873108 -2.4023568630218506
5.351210594177246 -1.3229327201843262 -2.402359962463379
5.376874923706055 -1.2144519090652466 -2.402362823486328
5.400351524353027 -1.105473279953003 -2.4023654460906982
5.421601295471191 -0.9960424304008484 -2.40236759185791
4.591181755065918 -2.4197170734405518 -2.402280569076538
4.63918924331665 -2.3263845443725586 -2.402285575866699
4.685292720794678 -2.232100486755371 -2.4022903442382812
4.7294921875 -2.1369011402130127 -2.4022951126098633
4.771738052368164 -2.0408284664154053 -2.402299404144287
4.812031269073486 -1.943921446800232 -2.402303695678711
4.886728286743164 -1.7477608919143677 -2.4023115634918213
5.038222312927246 -1.2455554008483887 -2.4023277759552
5.062382698059082 -1.1434195041656494 -2.4023303985595703
5.1044921875 -0.937784731388092 -2.4023349285125732
5.122412204742432 -0.8343713283538818 -2.402337074279785
5.138242244720459 -0.7306146025657654 -2.402338743209839
5.151972770690918 -0.626560628414154 -2.4023401737213135
4.285380840301514 -2.3704934120178223 -2.4022488594055176
4.332441329956055 -2.283353805541992 -2.4022538661956787
4.377744197845459 -2.1952803134918213 -2.4022586345672607
4.502822399139404 -1.925816297531128 -2.4022717475891113
4.611328125 -1.649263620376587 -2.4022834300994873
4.643749713897705 -1.5556789636611938 -2.4022867679595947
4.702861309051514 -1.3666387796401978 -2.4022932052612305
4.797939300537109 -0.9821575880050659 -2.4023032188415527
4.816816329956055 -0.8849343657493591 -2.4023053646087646
4.848671913146973 -0.6894393563270569 -2.402308940887451
4.87258768081665 -0.4928176701068878 -2.4023115634918213
4.051933288574219 -2.2413582801818848 -2.4022250175476074
4.096435546875 -2.1589651107788086 -2.4022297859191895
4.139277458190918 -2.0756895542144775 -2.4022343158721924
4.180390357971191 -1.991565465927124 -2.402238607406616
4.219824314117432 -1.906624436378479 -2.402242660522461
4.257529258728027 -1.8209056854248047 -2.4022467136383057
4.327685356140137 -1.6472668647766113 -2.402254104614258
4.360126972198486 -1.559417724609375 -2.4022576808929443
4.390771389007568 -1.470931053161621 -2.4022607803344727
4.419619083404541 -1.3818426132202148 -2.402263879776001
4.446660041809082 -1.292189359664917 -2.40226674079895
4.471894264221191 -1.2020052671432495 -2.4022696018218994
4.495292663574219 -1.111330509185791 -2.4022719860076904
4.536562442779541 -0.9286532402038574 -2.4022765159606934
4.554413795471191 -0.8367263674736023 -2.402278423309326
4.607148170471191 -0.4659704566001892 -2.4022841453552246
3.880068302154541 -2.0449321269989014 -2.402207612991333
3.959589719772339 -1.8863729238510132 -2.4022159576416016
3.996943235397339 -1.805918574333191 -2.402219772338867
4.032656192779541 -1.7247273921966553 -2.402223587036133
4.066709041595459 -1.642830491065979 -2.4022271633148193
4.099101543426514 -1.5602587461471558 -2.402230739593506
4.129824161529541 -1.47705078125 -2.4022340774536133
4.158847332000732 -1.3932366371154785 -2.4022369384765625
4.211796760559082 -1.2239360809326172 -2.402242660522461
4.257851600646973 -1.0526303052902222 -2.402247667312622
4.278271198272705 -0.9663143754005432 -2.402249813079834
4.296933650970459 -0.8796020150184631 -2.402251720428467
4.328994274139404 -0.7051342725753784 -2.4022552967071533
4.342382907867432 -0.6174483895301819 -2.402256727218628
4.353984355926514 -0.5295116901397705 -2.4022581577301025
4.36379861831665 -0.4413580298423767 -2.402259111404419
3.5993359088897705 -2.0871527194976807 -2.4021785259246826
3.7192869186401367 -1.865082025527954 -2.402191162109375
3.756240129470825 -1.7894930839538574 -2.4021949768066406
3.7916698455810547 -1.7131710052490234 -2.4021987915039062
3.8255467414855957 -1.6361489295959473 -2.4022023677825928
3.857851505279541 -1.5584566593170166 -2.4022057056427
3.8885838985443115 -1.4801266193389893 -2.4022090435028076
3.917714834213257 -1.4011917114257812 -2.402212142944336
3.945263624191284 -1.3216826915740967 -2.402215003967285
3.995488166809082 -1.1610772609710693 -2.4022204875946045
4.018154144287109 -1.0800442695617676 -2.4022228717803955
4.058554649353027 -0.9166857600212097 -2.4022271633148193
4.076250076293945 -0.8344265818595886 -2.402229070663452
4.106669902801514 -0.6689202785491943 -2.4022324085235596
4.119355201721191 -0.5857375860214233 -2.402233839035034
4.13037109375 -0.5023168921470642 -2.4022350311279297
4.13967752456665 -0.41868987679481506 -2.402236223220825
